<?xml version="1.0" encoding="UTF-8" standalone="no"?>
<svg width="155px" height="40px" viewBox="0 0 155 40" version="1.1" xmlns="http://www.w3.org/2000/svg" xmlns:xlink="http://www.w3.org/1999/xlink">
    <!-- Generator: Sketch 3.8.2 (29753) - http://www.bohemiancoding.com/sketch -->
    <title>kyt_logo</title>
    <desc>Created with Sketch.</desc>
    <defs></defs>
    <g id="Symbols" stroke="none" stroke-width="1" fill="none" fill-rule="evenodd">
        <g id="Header" transform="translate(-135.000000, -20.000000)">
            <g id="kyt_logo">
                <g transform="translate(135.000000, 20.000000)">
                    <path d="M83.6824673,39.8119832 L3.48594944,39.8119832 C1.56953828,39.8119832 0,38.366746 0,36.6021067 L0,3.20987654 C0,1.44523729 1.56953828,0 3.48594944,0 L83.6800072,0 C85.5988785,0 87.1659567,1.44523729 87.1659567,3.20987654 L87.1659567,36.6021067 C87.1684168,38.366746 85.5988785,39.8119832 83.6824673,39.8119832 Z" id="Shape" fill="#65AAD3"></path>
                    <g id="Group" transform="translate(93.483471, 9.061049)" fill="#000000">
                        <polygon id="Shape" points="19.604468 2.50311474 11.6091711 2.50311474 11.606711 24.7026843 8.62754036 24.7026843 8.63000045 2.50311474 0.65684439 2.50311474 0.65684439 0.19481255 19.6020079 0.19481255"></polygon>
                        <polygon id="Shape" points="36.5766382 24.7072149 23.1666802 24.7049496 23.1666802 0.240117794 36.5790983 0.237852531 36.5766382 2.48272738 26.2221137 2.48272738 26.2171935 11.1111111 36.0575589 11.1111111 36.060019 13.355986 26.2196536 13.355986 26.2196536 22.3921169 36.5741781 22.3921169"></polygon>
                        <path d="M60.5895898,23.6855816 C58.3976484,24.5509118 55.8391534,24.9813116 52.9091846,24.9813116 C48.8008321,24.9813116 45.8315018,23.8939857 43.9839732,21.7215993 C42.1389047,19.5650697 41.1991498,16.6677993 41.1991498,13.0161966 C41.1991498,9.34647185 42.1659657,6.26798052 44.1069778,3.77392683 C46.0553701,1.25948579 49.2780898,0.0158568354 53.8267987,0.0135915732 C55.9646181,0.0135915732 58.1098178,0.262770416 60.245177,0.740740741 L59.9499661,3.29822177 C57.6645412,2.68660097 55.4479989,2.37172953 53.3052593,2.36946427 C50.0579388,2.36946427 47.7971148,3.36617964 46.4686655,5.37999773 C45.1402162,7.39834636 44.4735314,9.79952429 44.4735314,12.6107147 C44.4759915,15.7548986 45.1844978,18.2036471 46.643332,19.9229811 C48.0923258,21.6694982 50.4515534,22.5280326 53.698874,22.5325631 C54.7075114,22.5325631 55.8416135,22.4170348 57.1233211,22.1678559 C58.3755076,21.9209423 59.408746,21.6015404 60.2476371,21.2164458 L60.5895898,23.6855816 L60.5895898,23.6855816 Z" id="Shape"></path>
                    </g>
                    <g id="Group" transform="translate(21.458509, 9.061049)" fill="#FFFFFF">
                        <polygon id="Shape" points="14.5523086 24.9722505 3.2604893 12.535961 3.2604893 24.9722505 0.212436124 24.9722505 0.212436124 0.459848227 3.2604893 0.459848227 3.2604893 12.0579907 14.6015104 0.459848227 18.3187085 0.459848227 6.5324108 12.2188243 18.736924 24.9722505"></polygon>
                        <polygon id="Shape" points="35.7607561 2.74776305 25.4013114 2.74776305 25.4013114 11.3784121 35.2416768 11.3784121 35.2416768 13.6232869 25.4013114 13.6232869 25.4013114 22.6571526 35.7607561 22.6571526 35.7607561 24.9722505 22.3532583 24.9722505 22.3532583 0.505153472 35.7607561 0.505153472"></polygon>
                        <path d="M50.2236332,15.9542417 L50.2236332,24.9699853 L47.2493827,24.9699853 L47.2493827,15.9746291 L38.9588749,0.457582965 L42.2553973,0.457582965 L46.7819654,9.08823196 C47.148519,9.81085061 47.4953919,10.540265 47.8422647,11.2651489 L48.8238412,13.3922302 L48.8755031,13.3922302 C49.168254,12.6673462 49.5397278,11.8971571 49.9333424,11.083928 L51.187989,8.6782195 L55.5694117,0.457582965 L58.7404694,0.457582965 L50.2236332,15.9542417 L50.2236332,15.9542417 Z" id="Shape"></path>
                    </g>
                </g>
            </g>
        </g>
    </g>
</svg>