<?xml version="1.0" encoding="UTF-8" standalone="no"?>
<svg width="512px" height="512px" viewBox="0 0 512 512" version="1.1" xmlns="http://www.w3.org/2000/svg" xmlns:xlink="http://www.w3.org/1999/xlink">
    <!-- Generator: Sketch 39.1 (31720) - http://www.bohemiancoding.com/sketch -->
    <title>add-photo</title>
    <desc>Created with Sketch.</desc>
    <defs></defs>
    <g id="Page-1" stroke="none" stroke-width="1" fill="none" fill-rule="evenodd">
        <g id="add-photo" fill="#000000">
            <path d="M418.504348,18 C366.85913,18 325.008696,59.8504348 325.008696,111.495652 C325.008696,163.14087 366.85913,204.991304 418.504348,204.991304 C470.149565,204.991304 512,163.14087 512,111.495652 C512,59.8504348 470.149565,18 418.504348,18 L418.504348,18 Z M471.930435,119.509565 C471.930435,123.961739 469.25913,129.304348 464.806957,129.304348 L436.313043,129.304348 L436.313043,157.798261 C436.313043,162.250435 430.970435,164.921739 426.518261,164.921739 L410.490435,164.921739 C406.038261,164.921739 400.695652,162.250435 400.695652,157.798261 L400.695652,129.304348 L372.201739,129.304348 C367.749565,129.304348 365.078261,123.961739 365.078261,119.509565 L365.078261,103.481739 C365.078261,99.0295652 367.749565,93.6869565 372.201739,93.6869565 L400.695652,93.6869565 L400.695652,65.1930435 C400.695652,60.7408696 406.038261,58.0695652 410.490435,58.0695652 L426.518261,58.0695652 C430.970435,58.0695652 436.313043,60.7408696 436.313043,65.1930435 L436.313043,93.6869565 L464.806957,93.6869565 C469.25913,93.6869565 471.930435,99.0295652 471.930435,103.481739 L471.930435,119.509565 L471.930435,119.509565 Z M112.194783,275.335652 C82.8104348,275.335652 59.6591304,251.293913 59.6591304,222.8 C59.6591304,194.306087 82.8104348,170.264348 112.194783,170.264348 C141.57913,170.264348 164.730435,194.306087 164.730435,222.8 C164.730435,251.293913 141.57913,275.335652 112.194783,275.335652 L112.194783,275.335652 Z M112.194783,179.168696 C88.1530435,179.168696 68.5634783,198.758261 68.5634783,222.8 C68.5634783,246.841739 88.1530435,266.431304 112.194783,266.431304 C136.236522,266.431304 155.826087,246.841739 155.826087,222.8 C155.826087,198.758261 136.236522,179.168696 112.194783,179.168696 L112.194783,179.168696 Z M454.121739,250.403478 L454.121739,354.584348 L317.885217,243.28 L166.511304,395.544348 L119.318261,347.46087 L26.7130435,432.052174 L26.7130435,149.784348 C26.7130435,145.332174 35.6173913,138.208696 40.0695652,138.208696 L279.596522,138.208696 C277.815652,129.304348 276.034783,121.290435 276.034783,111.495652 L40.0695652,111.495652 C17.8086957,111.495652 0,127.523478 0,149.784348 L0,456.984348 C0,479.245217 17.8086957,494.382609 40.0695652,494.382609 L440.765217,494.382609 C463.026087,494.382609 480.834783,479.245217 480.834783,456.984348 L480.834783,239.718261 C471.930435,244.170435 471.930435,248.622609 454.121739,250.403478 L454.121739,250.403478 Z M119.318261,362.598261 L166.511304,410.681739 L317.885217,257.526957 L454.121739,368.831304 L454.121739,456.984348 C454.121739,460.546087 445.217391,467.669565 442.546087,467.669565 L38.2886957,467.669565 C35.6173913,467.669565 26.7130435,460.546087 26.7130435,456.984348 L26.7130435,447.189565 L119.318261,362.598261 L119.318261,362.598261 Z M276.034783,111.495652 L276.034783,111.495652 L276.034783,110.605217 C276.034783,109.714783 276.034783,111.495652 276.034783,111.495652 L276.034783,111.495652 Z" id="Shape"></path>
        </g>
    </g>
</svg>