<?xml version="1.0" encoding="UTF-8" standalone="no"?>
<svg width="512px" height="512px" viewBox="0 0 512 512" version="1.1" xmlns="http://www.w3.org/2000/svg" xmlns:xlink="http://www.w3.org/1999/xlink">
    <!-- Generator: Sketch 39.1 (31720) - http://www.bohemiancoding.com/sketch -->
    <title>add-video</title>
    <desc>Created with Sketch.</desc>
    <defs></defs>
    <g id="Page-1" stroke="none" stroke-width="1" fill="none" fill-rule="evenodd">
        <g id="add-video" fill="#000000">
            <g id="Group" transform="translate(17.000000, 0.000000)">
                <path d="M431.786667,187.733333 C443.733333,214.186667 449.706667,242.346667 449.706667,273.066667 C449.706667,389.12 354.986667,483.84 238.933333,483.84 C122.88,483.84 28.16,389.12 28.16,273.066667 C28.16,157.013333 122.88,62.2933333 238.933333,62.2933333 C244.906667,62.2933333 250.88,62.2933333 256.853333,63.1466667 C259.413333,55.4666667 261.973333,47.7866667 265.386667,40.96 C256.853333,40.1066667 247.466667,39.2533333 238.08,39.2533333 C110.08,39.2533333 5.12,144.213333 5.12,273.066667 C5.12,401.92 110.08,506.88 238.933333,506.88 C367.786667,506.88 472.746667,401.92 472.746667,273.066667 C472.746667,237.226667 464.213333,202.24 449.706667,171.52 C444.586667,177.493333 438.613333,182.613333 431.786667,187.733333 L431.786667,187.733333 Z" id="Shape"></path>
                <path d="M367.786667,4.26666667 C318.293333,4.26666667 278.186667,44.3733333 278.186667,93.8666667 C278.186667,143.36 318.293333,183.466667 367.786667,183.466667 C417.28,183.466667 457.386667,143.36 457.386667,93.8666667 C457.386667,44.3733333 417.28,4.26666667 367.786667,4.26666667 L367.786667,4.26666667 Z M418.133333,101.546667 C418.133333,105.813333 416.426667,110.933333 412.16,110.933333 L384,110.933333 L384,138.24 C384,142.506667 378.88,145.066667 375.466667,145.066667 L360.106667,145.066667 C355.84,145.066667 349.866667,142.506667 349.866667,138.24 L349.866667,110.933333 L322.56,110.933333 C318.293333,110.933333 315.733333,105.813333 315.733333,101.546667 L315.733333,86.1866667 C315.733333,81.92 319.146667,76.8 322.56,76.8 L349.866667,76.8 L349.866667,49.4933333 C349.866667,45.2266667 355.84,42.6666667 360.106667,42.6666667 L375.466667,42.6666667 C379.733333,42.6666667 384,45.2266667 384,49.4933333 L384,76.8 L412.16,76.8 C416.426667,76.8 418.133333,81.92 418.133333,86.1866667 L418.133333,101.546667 L418.133333,101.546667 Z" id="Shape"></path>
                <path d="M163.84,385.706667 C159.573333,388.266667 156.16,385.706667 156.16,380.586667 L156.16,170.666667 C156.16,165.546667 159.573333,163.84 163.84,165.546667 L353.28,271.36 C357.546667,273.92 357.546667,278.186667 353.28,279.893333 L163.84,385.706667 L163.84,385.706667 Z" id="Shape"></path>
            </g>
        </g>
    </g>
</svg>