<?xml version="1.0" encoding="UTF-8" standalone="no"?>
<svg width="512px" height="512px" viewBox="0 0 512 512" version="1.1" xmlns="http://www.w3.org/2000/svg" xmlns:xlink="http://www.w3.org/1999/xlink">
    <!-- Generator: Sketch 39.1 (31720) - http://www.bohemiancoding.com/sketch -->
    <title>add-recipe</title>
    <desc>Created with Sketch.</desc>
    <defs></defs>
    <g id="Page-1" stroke="none" stroke-width="1" fill="none" fill-rule="evenodd">
        <g id="add-recipe" fill="#000000">
            <path d="M384.294828,4.40517241 C333.194828,4.40517241 291.786207,45.8137931 291.786207,96.9137931 C291.786207,148.013793 333.194828,189.422414 384.294828,189.422414 C435.394828,189.422414 476.803448,148.013793 476.803448,96.9137931 C476.803448,45.8137931 435.394828,4.40517241 384.294828,4.40517241 L384.294828,4.40517241 Z M436.275862,104.843103 C436.275862,109.248276 434.513793,114.534483 430.108621,114.534483 L401.034483,114.534483 L401.034483,142.727586 C401.034483,147.132759 395.748276,149.775862 392.224138,149.775862 L376.365517,149.775862 C371.960345,149.775862 365.793103,147.132759 365.793103,142.727586 L365.793103,114.534483 L337.6,114.534483 C333.194828,114.534483 330.551724,109.248276 330.551724,104.843103 L330.551724,88.9844828 C330.551724,84.5793103 334.075862,79.2931034 337.6,79.2931034 L365.793103,79.2931034 L365.793103,51.1 C365.793103,46.6948276 371.960345,44.0517241 376.365517,44.0517241 L392.224138,44.0517241 C396.62931,44.0517241 401.034483,46.6948276 401.034483,51.1 L401.034483,79.2931034 L430.108621,79.2931034 C434.513793,79.2931034 436.275862,84.5793103 436.275862,88.9844828 L436.275862,104.843103 L436.275862,104.843103 Z M401.034483,228.187931 L401.034483,478.401724 C401.034483,491.617241 393.105172,503.07069 379.889655,508.356897 C375.484483,510.118966 371.07931,511 367.555172,511 C358.744828,511 349.934483,507.475862 343.767241,501.308621 L216.017241,377.963793 L88.2672414,501.308621 C81.2189655,507.475862 73.2896552,511 64.4793103,511 C60.0741379,511 55.6689655,510.118966 52.1448276,508.356897 C38.9293103,503.07069 31,491.617241 31,478.401724 L31,103.081034 C31,89.8655172 38.9293103,78.412069 52.1448276,73.1258621 C56.55,71.3637931 60.9551724,70.4827586 64.4793103,70.4827586 L253.901724,70.4827586 C252.139655,79.2931034 251.258621,86.3413793 251.258621,95.1517241 C251.258621,98.6758621 251.258621,105.724138 252.139655,105.724138 L66.2413793,105.724138 L66.2413793,469.591379 L189.586207,351.532759 L216.017241,326.863793 L242.448276,351.532759 L365.793103,469.591379 L365.793103,227.306897 C374.603448,228.187931 378.127586,229.068966 385.175862,229.068966 C390.462069,229.068966 395.748276,228.187931 401.034483,228.187931 L401.034483,228.187931 Z" id="Shape"></path>
        </g>
    </g>
</svg>