<?xml version="1.0" encoding="UTF-8" standalone="no"?>
<svg width="512px" height="512px" viewBox="0 0 512 512" version="1.1" xmlns="http://www.w3.org/2000/svg" xmlns:xlink="http://www.w3.org/1999/xlink">
    <!-- Generator: Sketch 39.1 (31720) - http://www.bohemiancoding.com/sketch -->
    <title>add-to-cart</title>
    <desc>Created with Sketch.</desc>
    <defs></defs>
    <g id="Page-1" stroke="none" stroke-width="1" fill="none" fill-rule="evenodd">
        <g id="add-to-cart" fill="#000000">
            <path d="M435.522013,223.842767 L435.522013,305.955975 C435.522013,314.006289 429.081761,322.056604 421.031447,322.861635 L148.125786,355.062893 C149.735849,360.698113 151.345912,367.943396 151.345912,373.578616 C151.345912,379.213836 147.320755,383.238994 144.90566,391.289308 L385.610063,391.289308 C394.465409,391.289308 402.515723,398.534591 402.515723,407.389937 C402.515723,416.245283 395.27044,423.490566 385.610063,423.490566 L379.169811,423.490566 C392.855346,427.515723 402.515723,440.396226 402.515723,454.886792 C402.515723,472.597484 387.220126,487.893082 368.704403,487.893082 C350.188679,487.893082 334.893082,472.597484 334.893082,454.886792 C334.893082,440.396226 344.553459,427.515723 358.238994,423.490566 L144.100629,423.490566 C157.786164,427.515723 167.446541,440.396226 167.446541,454.886792 C167.446541,472.597484 152.150943,487.893082 133.63522,487.893082 C115.119497,487.893082 99.8238994,472.597484 99.8238994,454.886792 C99.8238994,440.396226 109.484277,427.515723 123.169811,423.490566 L116.72956,423.490566 C107.874214,423.490566 99.8238994,413.025157 99.8238994,404.169811 C99.8238994,396.119497 111.899371,374.383648 115.924528,366.333333 L70.8427673,149.779874 L16.9056604,149.779874 C8.05031447,149.779874 0,142.534591 0,133.679245 C0,124.823899 7.24528302,117.578616 16.9056604,117.578616 L83.7232704,117.578616 C101.433962,117.578616 101.433962,141.72956 104.654088,149.779874 L319.597484,149.779874 C338.113208,193.251572 380.779874,224.647799 431.496855,224.647799 C433.106918,224.647799 433.91195,223.842767 435.522013,223.842767 L435.522013,223.842767 Z M512,109.528302 C512,62.836478 474.163522,25 427.471698,25 C380.779874,25 342.943396,62.836478 342.943396,109.528302 C342.943396,156.220126 380.779874,194.056604 427.471698,194.056604 C474.163522,194.056604 512,156.220126 512,109.528302 L512,109.528302 Z M475.773585,116.773585 C475.773585,120.798742 473.358491,125.628931 469.333333,125.628931 L443.572327,125.628931 L443.572327,151.389937 C443.572327,155.415094 438.742138,157.830189 434.716981,157.830189 L420.226415,157.830189 C416.201258,157.830189 411.371069,155.415094 411.371069,151.389937 L411.371069,125.628931 L385.610063,125.628931 C381.584906,125.628931 379.169811,120.798742 379.169811,116.773585 L379.169811,102.283019 C379.169811,98.2578616 381.584906,93.427673 385.610063,93.427673 L411.371069,93.427673 L411.371069,67.6666667 C411.371069,63.6415094 416.201258,61.2264151 420.226415,61.2264151 L434.716981,61.2264151 C438.742138,61.2264151 443.572327,63.6415094 443.572327,67.6666667 L443.572327,93.427673 L469.333333,93.427673 C473.358491,93.427673 475.773585,98.2578616 475.773585,102.283019 L475.773585,116.773585 L475.773585,116.773585 Z" id="Shape"></path>
        </g>
    </g>
</svg>