<?xml version="1.0" encoding="utf-8"?>
<!-- Generator: Adobe Illustrator 16.2.1, SVG Export Plug-In . SVG Version: 6.00 Build 0)  -->
<!DOCTYPE svg PUBLIC "-//W3C//DTD SVG 1.1//EN" "http://www.w3.org/Graphics/SVG/1.1/DTD/svg11.dtd">
<svg version="1.1" id="Ebene_1" xmlns="http://www.w3.org/2000/svg" xmlns:xlink="http://www.w3.org/1999/xlink" x="0px" y="0px"
	 width="512px" height="512px" viewBox="397 685 512 512" enable-background="new 397 685 512 512" xml:space="preserve">
<path d="M909.517,1047.925c0,4.455-1.714,8.396-5.141,11.824l-25.704,25.701c-3.427,3.427-7.369,5.142-11.824,5.142
	c-4.456,0-8.396-1.715-11.823-5.142L653,883.425L450.974,1085.45c-3.427,3.427-7.369,5.142-11.823,5.142
	c-4.456,0-8.396-1.715-11.824-5.142l-25.702-25.701c-3.428-3.428-5.142-7.369-5.142-11.824s1.714-8.396,5.142-11.825l239.552-239.55
	c3.427-3.427,7.368-5.141,11.823-5.141s8.396,1.714,11.823,5.141l239.553,239.55C907.803,1039.528,909.517,1043.47,909.517,1047.925
	z"/>
</svg>
