<?xml version="1.0" encoding="UTF-8" standalone="no"?>
<svg width="512px" height="512px" viewBox="0 0 512 512" version="1.1" xmlns="http://www.w3.org/2000/svg" xmlns:xlink="http://www.w3.org/1999/xlink">
    <!-- Generator: Sketch 39.1 (31720) - http://www.bohemiancoding.com/sketch -->
    <title>angle-left</title>
    <desc>Created with Sketch.</desc>
    <defs></defs>
    <g id="Page-1" stroke="none" stroke-width="1" fill="none" fill-rule="evenodd">
        <g id="angle-left" fill="#000000">
            <path d="M405.581162,42.5811623 C405.581162,47.0273881 403.871075,50.9605878 400.450902,54.3807615 L198.831663,256 L400.450902,457.619238 C403.871075,461.039412 405.581162,464.972612 405.581162,469.418838 C405.581162,473.865063 403.871075,477.798263 400.450902,481.218437 L374.799599,506.869739 C371.379426,510.289913 367.446226,512 363,512 C358.553774,512 354.620574,510.289913 351.200401,506.869739 L112.130261,267.799599 C108.710087,264.379426 107,260.446226 107,256 C107,251.553774 108.710087,247.620574 112.130261,244.200401 L351.200401,5.13026052 C354.620574,1.71008684 358.553774,0 363,0 C367.446226,0 371.379426,1.71008684 374.799599,5.13026052 L400.450902,30.7815631 C403.871075,34.2017368 405.581162,38.1349365 405.581162,42.5811623 L405.581162,42.5811623 Z" id="Shape"></path>
        </g>
    </g>
</svg>