<?xml version="1.0" encoding="UTF-8" standalone="no"?>
<svg width="512px" height="512px" viewBox="0 0 512 512" version="1.1" xmlns="http://www.w3.org/2000/svg" xmlns:xlink="http://www.w3.org/1999/xlink">
    <!-- Generator: Sketch 39.1 (31720) - http://www.bohemiancoding.com/sketch -->
    <title>angle-down</title>
    <desc>Created with Sketch.</desc>
    <defs></defs>
    <g id="Page-1" stroke="none" stroke-width="1" fill="none" fill-rule="evenodd">
        <g id="angle-down" fill="#000000">
            <path d="M512,149.588735 C511.988462,154.059645 510.132352,158.327608 506.869987,161.384754 L267.797318,400.457423 C264.745807,403.731052 260.471586,405.590034 255.99628,405.590034 C251.520973,405.590034 247.246752,403.731052 244.195241,400.457423 L5.13261144,161.384754 C1.85898182,158.333243 6.68742711e-16,154.059022 0,149.583716 C-5.57285592e-16,145.108409 1.85898182,140.834188 5.13261144,137.782677 L30.7826774,112.132611 C33.834188,108.858982 38.108409,107 42.5837155,107 C47.059022,107 51.333243,108.858982 54.3847537,112.132611 L256.001299,313.749157 L457.617845,112.132611 C460.669355,108.858982 464.943576,107 469.418883,107 C473.894189,107 478.16841,108.858982 481.219921,112.132611 L506.869987,137.832873 C510.122225,140.88045 511.977426,145.1318 512,149.588735 L512,149.588735 L512,149.588735 Z" id="Shape"></path>
        </g>
    </g>
</svg>