<?xml version="1.0" encoding="UTF-8" standalone="no"?>
<svg width="512px" height="512px" viewBox="0 0 512 512" version="1.1" xmlns="http://www.w3.org/2000/svg" xmlns:xlink="http://www.w3.org/1999/xlink">
    <!-- Generator: Sketch 39.1 (31720) - http://www.bohemiancoding.com/sketch -->
    <title>angle-right</title>
    <desc>Created with Sketch.</desc>
    <defs></defs>
    <g id="Page-1" stroke="none" stroke-width="1" fill="none" fill-rule="evenodd">
        <g id="angle-right" fill="#000000">
            <path d="M405.42,256 C405.408507,260.453468 403.559638,264.704781 400.31,267.75 L162.17,505.89 C159.130394,509.150859 154.872847,511.002588 150.415,511.002588 C145.957153,511.002588 141.699606,509.150859 138.66,505.89 L113.11,480.34 C109.849141,477.300394 107.997412,473.042847 107.997412,468.585 C107.997412,464.127153 109.849141,459.869606 113.11,456.83 L313.94,256 L113.11,55.17 C109.849141,52.1303939 107.997412,47.8728475 107.997412,43.415 C107.997412,38.9571525 109.849141,34.6996061 113.11,31.66 L138.71,6.11 C141.749606,2.84914145 146.007153,0.997411875 150.465,0.997411875 C154.922847,0.997411875 159.180394,2.84914145 162.22,6.11 L400.31,244.25 C403.559638,247.295219 405.408507,251.546532 405.42,256 L405.42,256 L405.42,256 Z" id="Shape"></path>
        </g>
    </g>
</svg>