<?xml version="1.0" encoding="UTF-8" standalone="no"?>
<svg width="512px" height="512px" viewBox="0 0 512 512" version="1.1" xmlns="http://www.w3.org/2000/svg" xmlns:xlink="http://www.w3.org/1999/xlink">
    <!-- Generator: Sketch 40 (33762) - http://www.bohemiancoding.com/sketch -->
    <title>bars</title>
    <desc>Created with Sketch.</desc>
    <defs></defs>
    <g id="Page-1" stroke="none" stroke-width="1" fill="none" fill-rule="evenodd">
        <g id="bars" fill="#000000">
            <path d="M512,405.666667 L512,448.333333 C512,454.111111 509.888889,459.111111 505.666667,463.333333 C501.444444,467.555556 496.444444,469.666667 490.666667,469.666667 L21.3333333,469.666667 C15.5555556,469.666667 10.5555556,467.555556 6.33333333,463.333333 C2.11111111,459.111111 0,454.111111 0,448.333333 L0,405.666667 C0,399.888889 2.11111111,394.888889 6.33333333,390.666667 C10.5555556,386.444444 15.5555556,384.333333 21.3333333,384.333333 L490.666667,384.333333 C496.444444,384.333333 501.444444,386.444444 505.666667,390.666667 C509.888889,394.888889 512,399.888889 512,405.666667 L512,405.666667 Z M512,235 L512,277.666667 C512,283.444444 509.888889,288.444444 505.666667,292.666667 C501.444444,296.888889 496.444444,299 490.666667,299 L21.3333333,299 C15.5555556,299 10.5555556,296.888889 6.33333333,292.666667 C2.11111111,288.444444 0,283.444444 0,277.666667 L0,235 C0,229.222222 2.11111111,224.222222 6.33333333,220 C10.5555556,215.777778 15.5555556,213.666667 21.3333333,213.666667 L490.666667,213.666667 C496.444444,213.666667 501.444444,215.777778 505.666667,220 C509.888889,224.222222 512,229.222222 512,235 L512,235 Z M512,64.3333333 L512,107 C512,112.777778 509.888889,117.777778 505.666667,122 C501.444444,126.222222 496.444444,128.333333 490.666667,128.333333 L21.3333333,128.333333 C15.5555556,128.333333 10.5555556,126.222222 6.33333333,122 C2.11111111,117.777778 0,112.777778 0,107 L0,64.3333333 C0,58.5555556 2.11111111,53.5555556 6.33333333,49.3333333 C10.5555556,45.1111111 15.5555556,43 21.3333333,43 L490.666667,43 C496.444444,43 501.444444,45.1111111 505.666667,49.3333333 C509.888889,53.5555556 512,58.5555556 512,64.3333333 L512,64.3333333 Z" id="Shape"></path>
        </g>
    </g>
</svg>