<?xml version="1.0" encoding="UTF-8" standalone="no"?>
<svg width="512px" height="512px" viewBox="0 0 512 512" version="1.1" xmlns="http://www.w3.org/2000/svg" xmlns:xlink="http://www.w3.org/1999/xlink">
    <!-- Generator: Sketch 39.1 (31720) - http://www.bohemiancoding.com/sketch -->
    <title>blog</title>
    <desc>Created with Sketch.</desc>
    <defs></defs>
    <g id="Page-1" stroke="none" stroke-width="1" fill="none" fill-rule="evenodd">
        <g id="blog" fill="#000000">
            <path d="M505.6,504.8 C501.6,509.6 495.2,512 488.8,512 L436.8,512 C424.8,512 414.4,502.4 413.6,490.4 C401.6,279.2 233.6,111.2 21.6,98.4 C9.6,97.6 0,87.2 0,75.2 L0,23.2 C0,16.8 2.4,11.2 7.2,6.4 C12,2.4 17.6,0 23.2,0 L24,0 C152,6.4 271.2,60 361.6,150.4 C452,240.8 505.6,360 512,488 C512,493.6 510.4,500 505.6,504.8 L505.6,504.8 Z M320,504 C316,508.8 309.6,512 303.2,512 L254.4,512 C242.4,512 232.8,503.2 231.2,491.2 C220,380 132,292 20.8,281.6 C8.8,280 0,270.4 0,258.4 L0,209.6 C0,203.2 2.4,196.8 8,192.8 C12,188.8 17.6,186.4 24,186.4 L25.6,186.4 C103.2,192.8 176,226.4 231.2,281.6 C286.4,336.8 320,409.6 326.4,487.2 C326.4,493.6 324,500 320,504 L320,504 Z M69.6,512 C31.2,512 0,480.8 0,442.4 C0,404 31.2,372.8 69.6,372.8 C108,372.8 139.2,404 139.2,442.4 C139.2,480.8 108,512 69.6,512 L69.6,512 Z" id="Shape"></path>
        </g>
    </g>
</svg>