<?xml version="1.0" encoding="utf-8"?>
<!-- Generator: Adobe Illustrator 16.2.1, SVG Export Plug-In . SVG Version: 6.00 Build 0)  -->
<!DOCTYPE svg PUBLIC "-//W3C//DTD SVG 1.1//EN" "http://www.w3.org/Graphics/SVG/1.1/DTD/svg11.dtd">
<svg version="1.1" id="Ebene_1" xmlns="http://www.w3.org/2000/svg" xmlns:xlink="http://www.w3.org/1999/xlink" x="0px" y="0px"
	 width="512px" height="512px" viewBox="-224 -224 512 512" enable-background="new -224 -224 512 512" xml:space="preserve">
<path d="M244.5-175.188h-69.062v-31.875c0-8.498-7.439-15.938-15.938-15.938s-15.938,7.439-15.938,15.938v31.875H47.938v-31.875
	C47.938-215.561,40.498-223,32-223s-15.938,7.439-15.938,15.938v31.875h-95.625v-31.875c0-8.498-7.439-15.938-15.938-15.938
	s-15.938,7.439-15.938,15.938v31.875H-180.5c-23.377,0-42.5,19.123-42.5,42.5V244.5c0,23.377,19.123,42.5,42.5,42.5h425
	c23.377,0,42.5-19.123,42.5-42.5v-377.188C287-156.064,267.877-175.188,244.5-175.188z M255.125,244.5
	c0,6.371-4.254,10.625-10.625,10.625h-425c-6.376,0-10.625-4.254-10.625-10.625v-377.188c0-6.376,4.249-10.625,10.625-10.625h69.062
	v31.875c0,8.498,7.439,15.938,15.938,15.938s15.938-7.439,15.938-15.938v-31.875h95.625v31.875c0,8.498,7.439,15.938,15.938,15.938
	s15.938-7.439,15.938-15.938v-31.875h95.625v31.875c0,8.498,7.439,15.938,15.938,15.938s15.938-7.439,15.938-15.938v-31.875H244.5
	c6.371,0,10.625,4.249,10.625,10.625V244.5z M-111.438-31.75h63.75v47.812h-63.75V-31.75z M-111.438,47.938h63.75V95.75h-63.75
	V47.938z M-111.438,127.625h63.75v47.812h-63.75V127.625z M0.125,127.625h63.75v47.812H0.125V127.625z M0.125,47.938h63.75V95.75
	H0.125V47.938z M0.125-31.75h63.75v47.812H0.125V-31.75z M111.688,127.625h63.75v47.812h-63.75V127.625z M111.688,47.938h63.75
	V95.75h-63.75V47.938z M111.688-31.75h63.75v47.812h-63.75V-31.75z"/>
</svg>
