<?xml version="1.0" encoding="UTF-8" standalone="no"?>
<svg width="512px" height="512px" viewBox="0 0 512 512" version="1.1" xmlns="http://www.w3.org/2000/svg" xmlns:xlink="http://www.w3.org/1999/xlink">
    <!-- Generator: Sketch 39.1 (31720) - http://www.bohemiancoding.com/sketch -->
    <title>challenges</title>
    <desc>Created with Sketch.</desc>
    <defs></defs>
    <g id="Page-1" stroke="none" stroke-width="1" fill="none" fill-rule="evenodd">
        <g id="challenges" fill="#000000">
            <path d="M92,103 L153.6,84.6 L172,23 L190.4,84.6 L252,103 L190.4,121.4 L172,183 L153.6,121.4 L92,103 L92,103 Z M72,83 L81.6,52.6 L112,43 L81.6,33.4 L72,3 L62.4,33.4 L32,43 L62.4,52.6 L72,83 L72,83 Z M272,83 L281.6,52.6 L312,43 L281.6,33.4 L272,3 L262.4,33.4 L232,43 L262.4,52.6 L272,83 L272,83 Z M498.4,101.4 L96,503.8 C92,507.8 87.2,509.4 81.6,509.4 C76,509.4 71.2,507.8 67.2,503.8 L5.6,441.4 C1.6,437.4 0,432.6 0,427 C0,421.4 1.6,416.6 5.6,412.6 L408,11 C412,7 416.8,5.4 422.4,5.4 C428,5.4 432.8,7 436.8,11 L498.4,73.4 C502.4,77.4 504,82.2 504,87.8 C504,93.4 501.6,97.4 498.4,101.4 L498.4,101.4 Z M456,87 L422.4,53.4 L330.4,145.4 L364,179 L456,87 L456,87 Z M481.6,234.2 L472,203.8 L462.4,234.2 L432,243.8 L462.4,253.4 L472,283.8 L481.6,253.4 L512,243.8 L481.6,234.2 L481.6,234.2 Z" id="Shape"></path>
        </g>
    </g>
</svg>