<?xml version="1.0" encoding="UTF-8" standalone="no"?>
<svg width="512px" height="512px" viewBox="0 0 512 512" version="1.1" xmlns="http://www.w3.org/2000/svg" xmlns:xlink="http://www.w3.org/1999/xlink">
    <!-- Generator: Sketch 39.1 (31720) - http://www.bohemiancoding.com/sketch -->
    <title>checkmark</title>
    <desc>Created with Sketch.</desc>
    <defs></defs>
    <g id="Page-1" stroke="none" stroke-width="1" fill="none" fill-rule="evenodd">
        <g id="checkmark" fill="#000000">
            <path d="M456.376898,22.7684033 C469.17625,20.3706986 480.775663,23.1680207 491.575116,31.5599873 C502.374569,39.9519538 508.774246,50.7416251 511.174124,64.3286186 C513.574003,77.915612 510.774144,90.3037531 502.374569,101.892659 L247.987447,473.536892 C239.987852,484.326564 229.188398,490.720443 216.789026,493.118148 C203.989674,495.515852 192.390261,492.71853 181.590808,484.326564 C175.191132,479.531154 157.992002,461.947986 129.99342,431.976677 C101.994837,402.005368 75.996153,373.232911 51.1974084,345.259689 L13.5993116,303.299857 C4.39977728,293.30942 0,281.720514 0,267.733903 C0,253.747292 4.79975703,241.758768 14.7992509,231.768332 C24.7987447,221.777896 35.9981778,217.382104 49.1975096,217.781721 C62.3968414,218.181339 73.1962948,223.775983 82.3958291,234.565654 L203.989674,366.039797 L425.178477,42.749276 C433.178072,31.9596047 443.577546,25.166108 456.376898,22.7684033 L456.376898,22.7684033 Z" id="Shape"></path>
        </g>
    </g>
</svg>