<?xml version="1.0" encoding="UTF-8" standalone="no"?>
<svg width="512px" height="512px" viewBox="0 0 512 512" version="1.1" xmlns="http://www.w3.org/2000/svg" xmlns:xlink="http://www.w3.org/1999/xlink">
    <!-- Generator: Sketch 39.1 (31720) - http://www.bohemiancoding.com/sketch -->
    <title>check</title>
    <desc>Created with Sketch.</desc>
    <defs></defs>
    <g id="Page-1" stroke="none" stroke-width="1" fill="none" fill-rule="evenodd">
        <g id="check" fill="#000000">
            <path d="M512,136.634839 C512,145.443441 508.916989,152.930753 502.750968,159.096774 L263.597419,398.250323 L218.673548,443.174194 C212.507527,449.340215 205.020215,452.423226 196.211613,452.423226 C187.403011,452.423226 179.915699,449.340215 173.749677,443.174194 L128.825806,398.250323 L9.24903226,278.673548 C3.08301075,272.507527 0,265.020215 0,256.211613 C0,247.403011 3.08301075,239.915699 9.24903226,233.749677 L54.1729032,188.825806 C60.3389247,182.659785 67.8262366,179.576774 76.6348387,179.576774 C85.4434409,179.576774 92.9307527,182.659785 99.0967742,188.825806 L196.211613,286.270968 L412.903226,69.2490323 C419.069247,63.0830108 426.556559,60 435.365161,60 C444.173763,60 451.661075,63.0830108 457.827097,69.2490323 L502.750968,114.172903 C508.916989,120.338925 512,127.826237 512,136.634839 L512,136.634839 Z" id="Shape"></path>
        </g>
    </g>
</svg>