<?xml version="1.0" encoding="utf-8"?>
<!-- Generator: Adobe Illustrator 16.2.1, SVG Export Plug-In . SVG Version: 6.00 Build 0)  -->
<!DOCTYPE svg PUBLIC "-//W3C//DTD SVG 1.1//EN" "http://www.w3.org/Graphics/SVG/1.1/DTD/svg11.dtd">
<svg version="1.1" id="Ebene_1" xmlns="http://www.w3.org/2000/svg" xmlns:xlink="http://www.w3.org/1999/xlink" x="0px" y="0px"
	 width="512px" height="512px" viewBox="-224 -224 512 512" enable-background="new -224 -224 512 512" xml:space="preserve">
<path d="M0.196,221.22c-7.176,0-12.306-4.108-12.306-11.292V97.086c0-7.184,5.129-11.281,12.306-11.281
	c7.184,0,12.312,4.098,12.312,11.281v112.842C12.508,217.111,8.406,221.22,0.196,221.22z M61.755,221.22
	c-7.184,0-12.315-4.108-12.315-11.292V97.086c0-7.184,5.132-11.281,12.315-11.281c7.17,0,12.303,4.098,12.303,11.281v112.842
	C73.03,217.111,68.925,221.22,61.755,221.22z M-60.327,221.22c-7.184,0-12.311-4.108-12.311-11.292v-90.271
	c0-7.184,5.127-11.279,12.311-11.279s12.312,4.096,12.312,11.279v90.271C-48.015,217.111-53.143,221.22-60.327,221.22z
	 M122.272,221.22c-7.183,0-12.312-4.108-12.312-11.292v-90.271c0-7.184,5.129-11.279,12.312-11.279
	c7.18,0,12.312,4.096,12.312,11.279v90.271C134.585,217.111,129.452,221.22,122.272,221.22z M158.178-173.735
	c-7.183,0-14.358,1.028-21.541,2.053C114.069-203.483,73.03-224,30.973-224c-42.062,0-82.07,20.517-105.66,53.347
	c-74.892-14.366-139.517,41.032-139.517,109.762c0,49.242,34.876,92.326,86.17,106.683v230.816c0,7.186,0,11.292,7.184,11.292
	h303.65c7.186,0,10.256-4.106,10.256-11.292V46.829c51.293-15.394,85.147-58.478,85.147-106.694
	C278.204-122.442,224.854-173.735,158.178-173.735z M-108.543,268.404h1.025v-10.255H171.51v10.255H-108.543z M180.745,26.304
	c-6.148,1.029-9.235,5.131-9.235,11.285v200.039h-279.027V37.589c0-5.128-6.155-10.256-11.284-11.285
	c-44.109-9.232-74.886-45.134-74.886-87.195c0-56.423,56.421-102.585,120.026-87.198c5.129,1.025,10.258-1.025,13.334-5.131
	c18.462-30.774,53.347-48.211,90.272-48.211c37.958,0,71.808,19.491,90.271,48.211c2.056,4.105,8.215,7.185,13.343,5.131
	c8.209-2.049,17.436-3.077,24.618-3.077c53.344,0,97.453,41.035,97.453,90.274C254.611-19.858,224.854,16.046,180.745,26.304z"/>
</svg>
