<?xml version="1.0" encoding="UTF-8" standalone="no"?>
<svg width="512px" height="512px" viewBox="0 0 512 512" version="1.1" xmlns="http://www.w3.org/2000/svg" xmlns:xlink="http://www.w3.org/1999/xlink">
    <!-- Generator: Sketch 39.1 (31720) - http://www.bohemiancoding.com/sketch -->
    <title>clock</title>
    <desc>Created with Sketch.</desc>
    <defs></defs>
    <g id="Page-1" stroke="none" stroke-width="1" fill="none" fill-rule="evenodd">
        <g id="clock" fill="#000000">
            <path d="M512,256 C512,302.444424 500.555294,345.277741 477.666886,384.499953 C454.777475,423.722165 423.722165,454.777475 384.499953,477.666886 C345.277741,500.555294 302.444424,512 256,512 C209.555576,512 166.722259,500.555294 127.500047,477.666886 C88.2778353,454.777475 57.2225255,423.722165 34.3331137,384.499953 C11.4447059,345.277741 0,302.444424 0,256 C0,209.555576 11.4447059,166.722259 34.3331137,127.500047 C57.2225255,88.2778353 88.2778353,57.2225255 127.500047,34.3331137 C166.722259,11.4447059 209.555576,0 256,0 C302.444424,0 345.277741,11.4447059 384.499953,34.3331137 C423.722165,57.2225255 454.777475,88.2778353 477.666886,127.500047 C500.555294,166.722259 512,209.555576 512,256 M437.333333,256 C437.333333,223.111529 429.222651,192.778039 413.000282,164.999529 C396.777914,137.222024 374.777976,115.222086 347.000471,98.9997176 C319.221961,82.777349 288.888471,74.6666667 256,74.6666667 C223.111529,74.6666667 192.778039,82.777349 164.999529,98.9997176 C137.222024,115.222086 115.222086,137.222024 98.9997176,164.999529 C82.777349,192.778039 74.6666667,223.111529 74.6666667,256 C74.6666667,288.888471 82.777349,319.221961 98.9997176,347.000471 C115.222086,374.777976 137.222024,396.777914 164.999529,413.000282 C192.778039,429.222651 223.111529,437.333333 256,437.333333 C288.888471,437.333333 319.221961,429.222651 347.000471,413.000282 C374.777976,396.777914 396.777914,374.777976 413.000282,347.000471 C429.222651,319.221961 437.333333,288.888471 437.333333,256 M298.666667,138.666667 L298.666667,288 C298.666667,291.111153 297.666761,293.667137 295.666949,295.666949 C293.667137,297.666761 291.111153,298.666667 288,298.666667 L181.333333,298.666667 C178.22218,298.666667 175.666196,297.666761 173.666384,295.666949 C171.666573,293.667137 170.666667,291.111153 170.666667,288 L170.666667,266.666667 C170.666667,263.555514 171.666573,260.999529 173.666384,258.999718 C175.666196,256.999906 178.22218,256 181.333333,256 L256,256 L256,138.666667 C256,135.555514 256.999906,132.999529 258.999718,130.999718 C260.999529,128.999906 263.555514,128 266.666667,128 L288,128 C291.111153,128 293.667137,128.999906 295.666949,130.999718 C297.666761,132.999529 298.666667,135.555514 298.666667,138.666667" id="Page-1"></path>
        </g>
    </g>
</svg>