<?xml version="1.0" encoding="UTF-8" standalone="no"?>
<svg width="512px" height="512px" viewBox="0 0 512 512" version="1.1" xmlns="http://www.w3.org/2000/svg" xmlns:xlink="http://www.w3.org/1999/xlink">
    <!-- Generator: Sketch 39.1 (31720) - http://www.bohemiancoding.com/sketch -->
    <title>closing-quotes</title>
    <desc>Created with Sketch.</desc>
    <defs></defs>
    <g id="Page-1" stroke="none" stroke-width="1" fill="none" fill-rule="evenodd">
        <g id="closing-quotes" fill="#000000">
            <path d="M110.9,248.71 C110.792339,261.064942 112.635001,273.359483 116.36,285.14 L145.5,285.14 C198.32,285.14 225.64,321.57 225.64,394.43 C225.64,472.75 194.64,511 130.93,511 C56.25,511 18,450.89 18,332.5 C18,245.07 38,164.93 78.11,90.25 L101.79,46.54 C118.18,15.57 134.57,1 150.97,1 C174.65,1 187.4,11.93 187.4,35.61 C187.4,42.9 183.76,52 178.29,62.93 L158.29,95.72 C127.29,150.36 110.9,201.36 110.9,248.71 L110.9,248.71 Z M376.83,248.71 C376.83,257.82 378.65,270.57 384.12,285.14 L413.26,285.14 C466.08,285.14 493.4,321.57 493.4,394.43 C493.4,472.75 462.4,511 398.69,511 C324.01,511 285.76,450.89 285.76,332.5 C285.76,250.5 305.76,170.39 345.87,90.25 L367.7,46.54 C382.29,15.57 398.7,1 418.7,1 C442.38,1 453.31,11.93 453.31,35.61 C453.481902,45.2191143 450.956328,54.6839528 446.02,62.93 L424.18,97.54 C415.07,112.11 405.97,137.61 395.04,172.22 C382.29,206.82 376.83,232.32 376.83,248.71 L376.83,248.71 Z" id="Shape"></path>
        </g>
    </g>
</svg>