<?xml version="1.0" encoding="UTF-8" standalone="no"?>
<svg width="512px" height="512px" viewBox="0 0 512 512" version="1.1" xmlns="http://www.w3.org/2000/svg" xmlns:xlink="http://www.w3.org/1999/xlink">
    <!-- Generator: Sketch 39.1 (31720) - http://www.bohemiancoding.com/sketch -->
    <title>closing-cite-quotes</title>
    <desc>Created with Sketch.</desc>
    <defs></defs>
    <g id="Page-1" stroke="none" stroke-width="1" fill="none" fill-rule="evenodd">
        <g id="closing-cite-quotes" fill="#1D1C1B">
            <path d="M469.556105,27 C479.450923,30.9950909 487.859195,43.352 494.827377,64.1636364 C501.749105,84.9752727 505.233195,107.273455 505.233195,131.058182 C505.233195,192.517545 481.913014,256.392545 435.365559,322.822545 C388.77165,389.206091 330.796377,443.232727 261.439741,484.856 C253.496014,484.856 248.525377,481.371909 246.574286,474.450182 C244.576741,467.482 246.574286,460.049273 252.520468,452.152 C296.094832,424.372182 331.771923,389.717091 359.551741,348.093818 C387.285105,306.470545 401.175014,262.849727 401.175014,217.277818 C401.175014,175.654545 391.233741,148.896727 371.444105,137.004364 C365.497923,131.058182 365.962468,122.138909 372.93065,110.246545 C379.852377,98.3541818 389.28265,86.4618182 401.175014,74.5694545 C413.067377,62.6770909 425.424286,51.8067273 438.33865,41.8654545 C451.206559,31.9706364 461.612377,27 469.556105,27 M231.708832,27 C241.60365,30.9950909 250.011923,43.352 256.980105,64.1636364 C263.901832,84.9752727 267.385923,107.273455 267.385923,131.058182 C267.385923,192.517545 244.065741,256.392545 197.518286,322.822545 C150.924377,389.206091 92.9491045,443.232727 23.5924682,484.856 C15.6487409,484.856 10.6781046,481.371909 8.72701364,474.450182 C6.77592273,467.482 8.72701364,460.049273 14.6731955,452.152 C58.2475591,424.372182 93.92465,389.717091 121.704468,348.093818 C149.437832,306.470545 163.327741,262.849727 163.327741,217.277818 C163.327741,175.654545 153.386468,148.896727 133.596832,137.004364 C127.65065,131.058182 128.115195,122.138909 135.083377,110.246545 C142.005105,98.3541818 151.435377,86.4618182 163.327741,74.5694545 C175.220105,62.6770909 187.577014,51.8067273 200.491377,41.8654545 C213.359286,31.9706364 223.765105,27 231.708832,27" id="Fill-1"></path>
        </g>
    </g>
</svg>