<?xml version="1.0" encoding="UTF-8" standalone="no"?>
<svg width="512px" height="512px" viewBox="0 0 512 512" version="1.1" xmlns="http://www.w3.org/2000/svg" xmlns:xlink="http://www.w3.org/1999/xlink">
    <!-- Generator: Sketch 39.1 (31720) - http://www.bohemiancoding.com/sketch -->
    <title>comments</title>
    <desc>Created with Sketch.</desc>
    <defs></defs>
    <g id="Page-1" stroke="none" stroke-width="1" fill="none" fill-rule="evenodd">
        <g id="comments" fill="#000000">
            <path d="M201.145724,91.5728624 C172.005227,91.5728624 144.765489,96.5255421 119.426509,106.430901 C94.0875285,116.336261 73.9455157,129.768731 59.00047,146.728313 C44.0487316,163.681202 36.5728624,181.87226 36.5728624,201.301489 C36.5728624,216.922508 41.6192414,231.981332 51.7119995,246.477959 C61.8047576,260.974586 75.996862,273.547031 94.2883129,284.195292 L122.006587,300.197802 L111.967372,324.201566 C118.446012,320.393357 124.352417,316.678847 129.686587,313.058037 L142.255685,304.203449 L157.394822,307.064625 C171.817134,309.696937 186.445056,311.040798 201.105567,311.080311 C230.246063,311.080311 257.485802,306.127632 282.824782,296.222272 C308.163762,286.316913 328.305775,272.887789 343.25082,255.9349 C358.202559,238.982011 365.678428,220.790953 365.678428,201.361724 C365.678428,181.932496 358.212598,163.721358 343.280938,146.728313 C328.3292,129.775424 308.187187,116.3463 282.854899,106.440941 C257.522612,96.5355813 230.28622,91.5795552 201.145724,91.5728624 L201.145724,91.5728624 Z M201.145724,55 C237.527841,55 271.196024,61.5221437 302.150272,74.5664312 C333.10452,87.6107187 357.533278,105.373437 375.436546,127.854588 C393.339813,150.329045 402.291447,174.804652 402.291447,201.28141 C402.291447,227.758168 393.349853,252.233776 375.466663,274.708233 C357.563395,297.182691 333.134637,314.945409 302.180389,327.99639 C271.226141,341.04737 237.547919,347.57286 201.145724,347.57286 C184.281935,347.530536 167.454689,346.002008 150.859293,343.005017 C126.842216,359.951412 99.9197722,372.347577 71.429019,379.577879 C63.3218452,381.525977 55.1187421,383.050655 46.8530192,384.145722 L45.9996859,384.145722 C43.8392148,384.115163 41.7631864,383.301874 40.1568624,381.856781 C38.3457044,380.331849 37.1739384,378.18182 36.8740389,375.833252 C36.6807868,375.233379 36.585861,374.606191 36.5929408,373.975997 C36.5886668,373.354101 36.6356757,372.732912 36.7334899,372.118742 C36.8367019,371.520957 37.0296235,370.942192 37.3057251,370.402036 L38.0185095,368.976468 L39.022431,367.400311 L40.1568624,365.994821 L41.4318428,364.579291 L42.5763133,363.294272 C43.5266924,362.143108 45.7319734,359.757121 49.1921564,356.136311 C52.6523394,352.515501 55.1286792,349.70452 56.621176,347.70337 C58.1471367,345.695527 60.288836,342.934742 63.0462739,339.421017 C65.7561383,335.964479 68.1453154,332.268143 70.1841562,328.37788 C72.1919993,324.569671 74.1429536,320.379971 76.0370189,315.808782 C52.3913198,302.142063 33.8087317,285.299606 20.2892547,265.28141 C6.76977772,245.263214 0.0066928104,223.929881 0,201.28141 C0,174.804652 8.9516339,150.329045 26.8549017,127.854588 C44.7581695,105.38013 69.1869275,87.6174115 100.141176,74.5664312 C131.095424,61.5221437 164.763606,55 201.145724,55 L201.145724,55 Z M436.003133,388.994664 C437.910584,393.565853 439.861538,397.755552 441.855996,401.563762 C443.894837,405.454025 446.284014,409.150361 448.993878,412.606899 C451.758009,416.13401 453.899708,418.894794 455.418976,420.889252 C456.938244,422.883709 459.414584,425.694689 462.847996,429.322193 C466.274715,432.943003 468.46661,435.322297 469.423682,436.460075 C469.611081,436.647474 469.992571,437.075813 470.568153,437.745095 C471.143734,438.414376 471.572074,438.889565 471.853172,439.170663 C472.269928,439.616431 472.652502,440.09297 472.997643,440.596232 C473.370005,441.096617 473.705528,441.623389 474.001564,442.172389 L474.714349,443.597957 L475.286584,445.314663 L475.427133,447.171918 L475.146035,449.029173 C474.691751,451.498022 473.375332,453.725261 471.431525,455.313722 C469.686165,456.790533 467.425278,457.512861 465.146976,457.321565 C427.604139,452.439484 391.865547,438.294468 361.150742,416.160781 C344.555345,419.157772 327.728099,420.6863 310.864311,420.728624 C259.242664,420.728624 214.290403,408.15618 176.007528,383.011291 C187.057358,383.774271 195.423371,384.155762 201.105567,384.155762 C231.008446,384.266298 260.761735,379.932211 289.390429,371.295527 C317.580546,362.722036 342.722088,350.437383 364.815055,334.441566 C388.621382,316.919788 406.90614,296.730926 419.669329,273.874978 C439.705148,238.598687 444.27199,196.61063 432.288623,157.851764 C456.85793,171.377934 476.287159,188.330822 490.576309,208.71043 C504.865459,229.090038 512.006688,250.995606 511.999995,274.427135 C511.999995,297.283083 505.23691,318.663266 491.710741,338.567684 C478.184571,358.472102 459.615368,375.281095 436.003133,388.994664 L436.003133,388.994664 Z" id="Shape"></path>
        </g>
    </g>
</svg>