<?xml version="1.0" encoding="utf-8"?>
<!-- Generator: Adobe Illustrator 16.2.1, SVG Export Plug-In . SVG Version: 6.00 Build 0)  -->
<!DOCTYPE svg PUBLIC "-//W3C//DTD SVG 1.1//EN" "http://www.w3.org/Graphics/SVG/1.1/DTD/svg11.dtd">
<svg version="1.1" id="Ebene_1" xmlns="http://www.w3.org/2000/svg" xmlns:xlink="http://www.w3.org/1999/xlink" x="0px" y="0px"
	 width="512px" height="512px" viewBox="-224 -224 512 512" enable-background="new -224 -224 512 512" xml:space="preserve">
<path d="M277.602,24h-32.805C220.797-48,133.602-95.199,32-95.199S-156.801-48-180,24h-33.602C-219.199,24-224,30.398-224,36
	s4.801,12,10.398,12H-184v157.602C-184,251.203-144,288-96,288h256c47.203,0,88-36.797,88-82.398V48h29.602
	C283.203,48,288,41.602,288,36S283.203,24,277.602,24z M32-74.398C121.602-74.398,198.398-32,221.602,24h-379.203
	C-134.398-32-57.602-74.398,32-74.398z M224,205.602C224,239.203,196,264,160,264H-96c-35.199,0-64-24.797-64-58.398V48h384V205.602
	z M-15.199-108c0-5.602,4.801-12,10.398-12H68c5.602,0,10.398,6.398,10.398,12S73.602-96,68-96H-4.801
	C-10.398-96-15.199-102.398-15.199-108z M76-134.398c-5.602,0-12-4.801-12-10.402v-45.598c0-5.602,6.398-10.402,12-10.402
	S88-196,88-190.398v44.797C88-139.199,81.602-134.398,76-134.398z M32-134.398c-5.602,0-8-4.801-8-10.402v-68.801
	C24-219.199,26.398-224,32-224s8,4.801,8,10.398v68C40-139.199,37.602-134.398,32-134.398z M-12-134.398
	c-5.602,0-12-4.801-12-10.402v-45.598c0-5.602,6.398-10.402,12-10.402S0-196,0-190.398v44.797C0-139.199-6.398-134.398-12-134.398z"
	/>
</svg>
