<?xml version="1.0" encoding="UTF-8" standalone="no"?>
<svg width="512px" height="512px" viewBox="0 0 512 512" version="1.1" xmlns="http://www.w3.org/2000/svg" xmlns:xlink="http://www.w3.org/1999/xlink">
    <!-- Generator: Sketch 39.1 (31720) - http://www.bohemiancoding.com/sketch -->
    <title>difficulty</title>
    <desc>Created with Sketch.</desc>
    <defs></defs>
    <g id="Page-1" stroke="none" stroke-width="1" fill="none" fill-rule="evenodd">
        <g id="difficulty" fill="#000000">
            <path d="M292.570711,420.710711 L475.430711,420.710711 L475.430711,384.140711 L292.570711,384.140711 L292.570711,420.710711 L292.570711,420.710711 Z M182.860711,274.430711 L475.430711,274.430711 L475.430711,237.850711 L182.860711,237.850711 L182.860711,274.420711 L182.860711,274.430711 Z M365.710711,128.140711 L475.430711,128.140711 L475.430711,91.5707109 L365.710711,91.5707109 L365.710711,128.140711 L365.710711,128.140711 Z M512.000711,365.850711 L512.000711,438.990711 C511.866149,449.035734 503.755734,457.146149 493.710711,457.280711 L18.2907109,457.280711 C13.4381099,457.324331 8.78355742,455.358996 5.43071095,451.850711 C1.92497167,448.500251 -0.0401409353,443.849847 0.00071094559,439.000711 L0.00071094559,365.850711 C-0.0429095155,360.99811 1.92242639,356.343557 5.43071095,352.990711 C8.78355742,349.482426 13.4381099,347.51709 18.2907109,347.560711 L493.710711,347.560711 C503.755734,347.695273 511.866149,355.805688 512.000711,365.850711 L512.000711,365.850711 Z M512.000711,219.560711 L512.000711,292.700711 C511.866149,302.745734 503.755734,310.856149 493.710711,310.990711 L18.2907109,310.990711 C13.4381099,311.034331 8.78355742,309.068996 5.43071095,305.560711 C1.92497167,302.210251 -0.0401409353,297.559847 0.00071094559,292.710711 L0.00071094559,219.570711 C-0.0429095155,214.71811 1.92242639,210.063557 5.43071095,206.710711 C8.78355742,203.202426 13.4381099,201.23709 18.2907109,201.280711 L493.710711,201.280711 C503.755734,201.415273 511.866149,209.525688 512.000711,219.570711 L512.000711,219.560711 Z M512.000711,73.2707109 L512.000711,146.410711 C511.866149,156.455734 503.755734,164.566149 493.710711,164.700711 L18.2907109,164.700711 C13.4381099,164.744331 8.78355742,162.778996 5.43071095,159.270711 C1.9275147,155.922639 -0.037374838,151.276381 0.00071094559,146.430711 L0.00071094559,73.2807109 C-0.0401409353,68.4315751 1.92497167,63.7811705 5.43071095,60.4307109 C8.78355742,56.9224264 13.4381099,54.9570905 18.2907109,55.0007109 L493.710711,55.0007109 C503.751904,55.1351472 511.860783,63.2395933 512.000711,73.2807109 L512.000711,73.2707109 Z" id="Shape"></path>
        </g>
    </g>
</svg>