<?xml version="1.0" encoding="UTF-8" standalone="no"?>
<svg width="512px" height="512px" viewBox="0 0 512 512" version="1.1" xmlns="http://www.w3.org/2000/svg" xmlns:xlink="http://www.w3.org/1999/xlink">
    <!-- Generator: Sketch 39.1 (31720) - http://www.bohemiancoding.com/sketch -->
    <title>dkr-logo</title>
    <desc>Created with Sketch.</desc>
    <defs></defs>
    <g id="Page-1" stroke="none" stroke-width="1" fill="none" fill-rule="evenodd">
        <g id="dkr-logo" fill="#000000">
            <path d="M0,487.741519 L15.3021002,487.741519 C18.1970921,487.741519 20.6785137,487.741519 23.1599354,486.500808 C29.7770598,484.432956 33.9127625,478.229402 33.9127625,469.957997 C33.9127625,461.273021 29.3634895,455.483037 22.7463651,453.415186 C20.6785137,452.588045 18.1970921,452.588045 15.3021002,452.588045 L0,452.588045 L0,457.550889 L4.13570275,457.550889 L4.13570275,482.778675 L0,482.778675 L0,487.741519 L0,487.741519 L0,487.741519 Z M10.7528271,482.365105 L10.7528271,457.550889 L14.8885299,457.550889 C16.9563813,457.550889 18.6106624,457.550889 20.2649435,458.378029 C24.4006462,460.03231 26.8820679,464.168013 26.8820679,469.957997 C26.8820679,475.747981 24.4006462,479.883683 20.2649435,481.537964 C18.6106624,482.365105 16.9563813,482.365105 14.4749596,482.365105 L10.7528271,482.365105 L10.7528271,482.365105 L10.7528271,482.365105 Z M35.5670436,480.710824 C35.5670436,485.673667 39.7027464,488.155089 43.8384491,488.155089 C49.628433,488.155089 51.6962843,483.192246 51.6962843,483.192246 L51.6962843,483.192246 L51.6962843,484.432956 L51.6962843,484.846527 C51.6962843,486.087237 52.5234249,487.327948 55.0048465,487.327948 L60.7948304,487.327948 L60.7948304,482.778675 L58.726979,482.778675 C57.8998384,482.778675 57.4862682,482.365105 57.4862682,481.537964 L57.4862682,471.612278 C57.4862682,464.995153 53.7641357,461.686591 47.1470113,461.686591 C40.9434572,461.686591 37.2213247,464.995153 37.2213247,464.995153 L39.7027464,469.544426 C39.7027464,469.544426 43.0113086,467.063005 46.733441,467.063005 C49.2148627,467.063005 51.2827141,468.303716 51.2827141,471.612278 L51.2827141,472.439418 L49.628433,472.439418 C45.4927302,472.025848 35.5670436,472.852989 35.5670436,480.710824 L35.5670436,480.710824 L35.5670436,480.710824 Z M41.7705977,480.297254 C41.7705977,476.575121 47.5605816,476.161551 50.0420032,476.161551 L50.8691438,476.161551 L50.8691438,476.988691 C50.8691438,480.297254 48.3877221,483.605816 45.0791599,483.605816 C43.0113086,483.605816 41.7705977,481.951535 41.7705977,480.297254 L41.7705977,480.297254 L41.7705977,480.297254 Z M62.8626817,482.365105 C62.8626817,486.500808 68.6526656,488.568659 73.2019386,488.568659 C78.9919225,488.568659 83.9547658,486.087237 83.9547658,481.124394 C83.9547658,476.161551 79.4054927,474.50727 75.6833603,473.266559 C72.7883683,472.439418 70.3069467,471.612278 70.3069467,469.544426 C70.3069467,467.890145 71.9612278,467.476575 74.0290792,467.476575 C76.0969305,467.476575 77.7512116,468.303716 77.7512116,469.544426 L77.7512116,470.785137 L82.7140549,470.785137 L82.7140549,467.063005 C82.7140549,463.340872 77.3376414,461.686591 73.6155089,461.686591 C69.0662359,461.686591 63.6898223,463.754443 63.6898223,468.717286 C63.6898223,473.680129 67.825525,475.33441 71.5476575,476.575121 C74.8562197,477.815832 77.3376414,478.229402 77.3376414,480.297254 C77.3376414,481.951535 75.6833603,482.778675 73.2019386,482.778675 C70.720517,482.778675 68.2390953,481.951535 68.2390953,480.297254 L68.2390953,479.470113 L62.8626817,479.470113 L62.8626817,482.365105 L62.8626817,482.365105 L62.8626817,482.365105 Z M93.0533118,487.741519 L115.799677,487.741519 L115.799677,480.297254 L109.596123,480.297254 L109.596123,463.754443 L112.904685,463.754443 C114.972536,463.754443 116.213247,464.168013 117.040388,465.822294 L126.552504,483.605816 C128.206785,486.500808 129.447496,487.741519 134.410339,487.741519 L141.441034,487.741519 L141.441034,480.297254 L138.959612,480.297254 C137.305331,480.297254 136.06462,479.883683 135.23748,478.229402 L126.966074,462.927302 C125.311793,459.61874 123.243942,458.791599 123.243942,458.791599 L123.243942,458.791599 L136.478191,440.594507 L141.441034,440.594507 L141.441034,433.150242 L121.589661,433.150242 L121.589661,440.594507 L126.138934,440.594507 L115.799677,455.483037 L109.596123,455.483037 L109.596123,440.594507 L114.972536,440.594507 L114.972536,433.150242 L93.0533118,433.150242 L93.0533118,440.594507 L99.6704362,440.594507 L99.6704362,479.883683 L93.0533118,479.883683 L93.0533118,487.741519 L93.0533118,487.741519 L93.0533118,487.741519 Z M142.681745,467.890145 C142.681745,479.883683 152.193861,488.568659 164.187399,488.568659 C176.180937,488.568659 185.693053,480.297254 185.693053,467.890145 C185.693053,455.896607 176.180937,447.211632 164.187399,447.211632 C152.193861,447.625202 142.681745,455.896607 142.681745,467.890145 L142.681745,467.890145 L142.681745,467.890145 Z M152.607431,467.890145 C152.607431,460.859451 157.983845,455.483037 164.187399,455.483037 C170.390953,455.483037 175.767367,460.44588 175.767367,467.890145 C175.767367,475.33441 170.390953,480.297254 164.187399,480.297254 C157.570275,480.297254 152.607431,475.33441 152.607431,467.890145 L152.607431,467.890145 L152.607431,467.890145 Z M190.655897,468.303716 C190.655897,481.124394 200.995153,488.568659 212.161551,488.568659 C219.605816,488.568659 225.80937,484.846527 228.290792,482.365105 L224.982229,475.33441 C222.914378,476.988691 218.365105,480.297254 212.575121,480.297254 C205.957997,480.297254 200.168013,475.747981 200.168013,467.890145 C200.168013,460.859451 204.717286,455.896607 211.747981,455.896607 C215.056543,455.896607 219.192246,457.137318 219.192246,459.61874 L219.192246,462.100162 L227.463651,462.100162 L227.463651,456.723748 C227.463651,449.693053 217.951535,447.211632 211.33441,447.211632 C199.754443,447.625202 190.655897,456.310178 190.655897,468.303716 L190.655897,468.303716 L190.655897,468.303716 Z M233.667205,487.741519 L254.759289,487.741519 L254.759289,480.297254 L248.969305,480.297254 L248.969305,469.544426 C248.969305,462.513732 253.105008,456.310178 260.135703,456.310178 C265.098546,456.310178 266.339257,459.61874 266.339257,464.168013 L266.339257,487.327948 L281.641357,487.327948 L281.641357,479.883683 L275.851373,479.883683 L275.851373,462.100162 C275.851373,451.760905 270.88853,447.211632 262.203554,447.211632 C255.58643,447.211632 250.623586,451.347334 248.555735,455.069467 L248.555735,455.069467 C248.555735,455.069467 248.969305,453.828756 248.969305,451.760905 L248.969305,432.736672 L233.253635,432.736672 L233.253635,440.180937 L239.457189,440.180937 L239.457189,480.297254 L233.667205,480.297254 L233.667205,487.741519 L233.667205,487.741519 L233.667205,487.741519 Z M287.017771,487.741519 L308.109855,487.741519 L308.109855,480.297254 L302.319871,480.297254 L302.319871,471.612278 C302.319871,464.168013 306.042003,457.137318 313.899838,457.137318 L316.38126,457.137318 L316.38126,447.625202 L314.726979,447.625202 C308.936995,447.625202 303.974152,452.174475 302.319871,457.550889 L302.319871,457.550889 L302.319871,455.069467 L302.319871,452.588045 C302.319871,449.279483 300.66559,447.625202 296.943457,447.625202 L286.6042,447.625202 L286.6042,455.069467 L291.153473,455.069467 C292.394184,455.069467 292.807754,455.896607 292.807754,456.723748 L292.807754,479.470113 L287.017771,479.470113 L287.017771,487.741519 L287.017771,487.741519 L287.017771,487.741519 Z M319.689822,467.890145 C319.689822,479.056543 327.547658,488.568659 340.781906,488.568659 C350.707593,488.568659 356.497577,483.192246 356.497577,483.192246 L352.775444,476.161551 C352.775444,476.161551 347.812601,480.297254 341.609047,480.297254 C335.819063,480.297254 330.442649,476.575121 330.029079,469.544426 L357.324717,469.544426 C357.324717,469.544426 357.738288,467.476575 357.738288,466.235864 C357.738288,455.896607 351.534733,447.625202 340.368336,447.625202 C327.961228,447.625202 319.689822,455.896607 319.689822,467.890145 L319.689822,467.890145 L319.689822,467.890145 Z M330.029079,463.754443 C330.85622,458.791599 334.578352,455.069467 339.541195,455.069467 C343.676898,455.069467 346.98546,458.378029 346.98546,463.754443 L330.029079,463.754443 L330.029079,463.754443 L330.029079,463.754443 Z M361.46042,481.537964 L361.46042,487.741519 L395.786753,487.741519 L395.786753,474.92084 L387.515347,474.92084 L387.515347,480.710824 L376.34895,480.710824 L373.040388,480.710824 L373.040388,480.710824 C373.040388,480.710824 374.281099,479.883683 375.108239,478.642973 L394.959612,455.483037 L394.959612,449.279483 L361.46042,449.279483 L361.46042,462.100162 L369.731826,462.100162 L369.731826,456.310178 L380.484653,456.310178 L383.793215,456.310178 L383.793215,456.310178 C383.793215,456.310178 382.552504,457.137318 381.725363,458.378029 L361.46042,481.537964 L361.46042,481.537964 L361.46042,481.537964 Z M399.922456,467.890145 C399.922456,479.056543 407.780291,488.568659 421.01454,488.568659 C430.940226,488.568659 436.73021,483.192246 436.73021,483.192246 L433.008078,476.161551 C433.008078,476.161551 428.045234,480.297254 421.84168,480.297254 C416.051696,480.297254 410.675283,476.575121 410.261712,469.544426 L437.557351,469.544426 C437.557351,469.544426 437.970921,467.476575 437.970921,466.235864 C437.970921,455.896607 431.767367,447.625202 420.600969,447.625202 C407.780291,447.625202 399.922456,455.896607 399.922456,467.890145 L399.922456,467.890145 L399.922456,467.890145 Z M409.848142,463.754443 C410.675283,458.791599 414.397415,455.069467 419.360258,455.069467 C423.495961,455.069467 426.804523,458.378029 426.804523,463.754443 L409.848142,463.754443 L409.848142,463.754443 L409.848142,463.754443 Z M440.038772,495.599354 L440.038772,503.043619 L461.130856,503.043619 L461.130856,495.599354 L455.340872,495.599354 L455.340872,486.500808 C455.340872,484.432956 454.927302,483.192246 454.927302,483.192246 L454.927302,483.192246 C454.927302,483.192246 458.649435,488.568659 466.0937,488.568659 C476.432956,488.568659 483.877221,480.710824 483.877221,467.890145 C483.877221,455.896607 477.260097,447.211632 466.50727,447.211632 C457.408724,447.211632 454.100162,453.828756 454.100162,453.828756 L454.100162,453.828756 L454.100162,452.174475 L454.100162,451.760905 C454.100162,449.693053 452.859451,448.038772 449.137318,448.038772 L439.211632,448.038772 L439.211632,455.483037 L443.760905,455.483037 C445.001616,455.483037 445.415186,456.310178 445.415186,457.137318 L445.415186,495.185784 L440.038772,495.185784 L440.038772,495.599354 L440.038772,495.599354 Z M454.927302,468.303716 C454.927302,459.61874 459.890145,455.896607 464.852989,455.896607 C470.642973,455.896607 474.778675,460.859451 474.778675,468.303716 C474.778675,476.161551 470.229402,480.297254 464.852989,480.297254 C458.649435,480.297254 454.927302,474.50727 454.927302,468.303716 L454.927302,468.303716 L454.927302,468.303716 Z M492.562197,473.266559 C492.562197,486.500808 503.315024,488.155089 509.105008,488.155089 C510.759289,488.155089 512,487.741519 512,487.741519 L512,479.883683 L510.345719,479.883683 C507.450727,479.883683 502.487884,479.056543 502.487884,472.439418 L502.487884,455.896607 L511.58643,455.896607 L511.58643,448.452342 L502.487884,448.452342 L502.487884,437.699515 L492.975767,437.699515 L492.975767,448.452342 L486.772213,448.452342 L486.772213,455.896607 L492.562197,455.896607 L492.562197,473.266559 L492.562197,473.266559 L492.562197,473.266559 Z M212.161551,43.1534733 L213.815832,55.9741519 L223.741519,46.8756058 L236.975767,48.9434572 L230.772213,37.3634895 L237.389338,25.7835218 L223.741519,28.2649435 L214.229402,19.1663974 L212.161551,31.9870759 L199.754443,37.7770598 L212.161551,43.1534733 L212.161551,43.1534733 Z M157.156704,68.3812601 L161.705977,78.720517 L167.909532,68.7948304 L179.903069,67.9676898 L172.045234,59.2827141 L174.940226,48.5298869 L163.773829,53.0791599 L153.848142,47.2891761 L154.675283,58.4555735 L145.576737,65.8998384 L157.156704,68.3812601 L157.156704,68.3812601 Z M271.71567,28.2649435 L270.47496,39.4313409 L280.814216,33.641357 L291.567044,38.19063 L288.672052,27.0242326 L296.943457,18.3392569 L284.949919,17.9256866 L279.159935,8 L274.197092,18.7528271 L262.617124,21.2342488 L271.71567,28.2649435 L271.71567,28.2649435 Z M331.68336,33.641357 L327.961228,42.7399031 L337.886914,39.8449111 L345.74475,45.634895 L346.15832,35.7092084 L354.429725,30.3327948 L344.917609,27.4378029 L342.022617,17.9256866 L335.819063,25.7835218 L325.479806,25.7835218 L331.68336,33.641357 L331.68336,33.641357 Z M115.799677,108.084006 L122.003231,115.528271 L124.898223,106.429725 L134.410339,103.121163 L126.138934,97.7447496 L126.138934,88.2326333 L117.867528,94.0226171 L108.355412,91.1276252 L111.663974,100.226171 L105.46042,108.084006 L115.799677,108.084006 L115.799677,108.084006 Z M355.256866,312.387722 C346.15832,307.011309 332.096931,305.357027 323.411955,304.529887 C315.96769,304.116317 301.9063,305.357027 293.634895,307.011309 C250.623586,314.869144 207.198708,339.68336 198.513732,367.806139 C193.964459,355.812601 191.483037,340.510501 189.415186,326.035541 C186.106624,303.702746 183.211632,284.678514 172.872375,280.542811 C133.583199,265.654281 117.040388,246.216478 117.453958,214.371567 C117.453958,184.180937 136.478191,136.206785 187.760905,136.206785 C200.581583,136.206785 215.056543,139.101777 230.358643,145.305331 C231.185784,145.718901 231.599354,145.718901 232.426494,145.718901 C234.907916,145.718901 236.562197,143.65105 237.802908,142.82391 L238.216478,142.410339 C281.227787,103.534733 316.38126,95.2633279 338.300485,95.2633279 C359.392569,95.2633279 374.694669,101.880452 385.861066,115.528271 C393.718901,124.626817 399.095315,139.928918 397.441034,151.095315 C393.305331,180.872375 391.65105,184.594507 378.003231,208.995153 C357.324717,246.216478 353.189015,277.647819 358.151858,301.634895 C358.565428,303.289176 360.219709,308.252019 363.941842,308.252019 C354.843296,240.426494 415.638126,201.964459 407.780291,135.379645 C403.644588,102.707593 375.108239,78.3069467 334.991922,78.3069467 C313.899838,78.3069467 272.129241,85.3376414 232.426494,132.898223 L232.012924,133.311793 C232.012924,133.311793 231.185784,133.311793 230.358643,132.898223 C213.402262,125.453958 197.686591,121.318255 183.211632,121.318255 C128.620355,121.318255 105.04685,176.323102 102.978998,210.649435 C100.497577,252.006462 119.93538,276.407108 165.84168,290.054927 C175.767367,292.949919 178.662359,308.252019 179.903069,327.276252 C181.557351,362.429725 196.03231,389.311793 201.822294,394.274637 C229.945073,417.434572 303.147011,394.274637 343.263328,363.256866 C351.534733,356.639742 359.806139,347.127625 358.978998,347.541195 C346.15832,352.504039 337.059774,360.361874 332.096931,362.429725 C326.306947,366.151858 323.825525,366.978998 313.899838,372.355412 C296.116317,382.281099 212.575121,404.613893 210.50727,381.040388 C208.439418,354.57189 261.789984,326.035541 297.770598,318.591276 C304.387722,317.350565 315.55412,314.042003 331.26979,315.696284 C331.68336,315.696284 346.15832,317.764136 351.534733,322.313409 C355.256866,325.621971 358.151858,330.171244 358.151858,334.306947 C358.151858,337.201939 356.911147,339.68336 354.843296,342.164782 C366.423263,335.547658 368.904685,320.659128 355.256866,312.387722 L355.256866,312.387722 L355.256866,312.387722 Z" id="Shape"></path>
        </g>
    </g>
</svg>