<?xml version="1.0" encoding="UTF-8" standalone="no"?>
<svg width="512px" height="512px" viewBox="0 0 512 512" version="1.1" xmlns="http://www.w3.org/2000/svg" xmlns:xlink="http://www.w3.org/1999/xlink">
    <!-- Generator: Sketch 39.1 (31720) - http://www.bohemiancoding.com/sketch -->
    <title>dkr-hat</title>
    <desc>Created with Sketch.</desc>
    <defs></defs>
    <g id="Page-1" stroke="none" stroke-width="1" fill="none" fill-rule="evenodd">
        <g id="dkr-hat" fill="#000000">
            <path d="M200,45.6 L202.4,62.4 L215.2,50.4 L232,52.8 L224,37.6 L232.8,22.4 L215.2,25.6 L203.2,13.6 L200,31.2 L184,38.4 L200,45.6 L200,45.6 Z M128.8,78.4 L134.4,92 L142.4,79.2 L157.6,78.4 L147.2,67.2 L151.2,53.6 L136.8,59.2 L124,52 L124.8,66.4 L112.8,76 L128.8,78.4 L128.8,78.4 Z M276.8,26.4 L275.2,40.8 L288.8,33.6 L302.4,39.2 L298.4,24.8 L308.8,13.6 L293.6,12.8 L286.4,0 L280,13.6 L264.8,16.8 L276.8,26.4 L276.8,26.4 Z M354.4,32.8 L349.6,44.8 L362.4,40.8 L372.8,48 L373.6,35.2 L384,28.8 L372,24.8 L368,12.8 L360,23.2 L346.4,23.2 L354.4,32.8 L354.4,32.8 Z M75.2,129.6 L83.2,139.2 L87.2,127.2 L99.2,123.2 L88.8,116 L88.8,104 L78.4,111.2 L66.4,107.2 L70.4,119.2 L62.4,129.6 L75.2,129.6 L75.2,129.6 Z M384.8,393.6 C372.8,386.4 355.2,384.8 343.2,383.2 C333.6,382.4 315.2,384 304.8,386.4 C248.8,396.8 192.8,428.8 181.6,464.8 C176,449.6 172.8,429.6 169.6,410.4 C165.6,381.6 161.6,356.8 148,351.2 C96.8,332 76,306.4 76,265.6 C76,226.4 100.8,164.8 167.2,164.8 C184,164.8 202.4,168.8 222.4,176.8 C223.2,177.6 224,177.6 224.8,177.6 C228,177.6 230.4,175.2 232,173.6 L232.8,172.8 C288.8,122.4 333.6,112 362.4,112 C389.6,112 409.6,120.8 424,138.4 C434.4,150.4 440.8,169.6 439.2,184.8 C433.6,223.2 432,228 414.4,260 C388,308 382.4,348.8 388.8,380 C389.6,382.4 391.2,388.8 396,388.8 C384,300.8 463.2,251.2 452.8,164.8 C447.2,122.4 410.4,91.2 358.4,91.2 C331.2,91.2 276.8,100 225.6,161.6 L224.8,162.4 C224.8,162.4 224,162.4 222.4,161.6 C200.8,152 180,146.4 161.6,146.4 C91.2,146.4 60.8,217.6 57.6,261.6 C54.4,315.2 79.2,346.4 139.2,364 C152,368 156,387.2 157.6,412 C160,457.6 178.4,492 185.6,498.4 C221.6,528 316.8,498.4 368.8,458.4 C379.2,449.6 390.4,437.6 388.8,438.4 C372,444.8 360.8,455.2 354.4,457.6 C347.2,462.4 344,463.2 331.2,470.4 C308,483.2 200,512 197.6,481.6 C195.2,447.2 264,410.4 310.4,400.8 C319.2,399.2 333.6,395.2 353.6,396.8 C354.4,396.8 372.8,399.2 380,405.6 C384.8,409.6 388.8,416 388.8,420.8 C388.8,424.8 387.2,428 384.8,431.2 C399.2,424 402.4,404.8 384.8,393.6 L384.8,393.6 L384.8,393.6 Z" id="Shape"></path>
        </g>
    </g>
</svg>