<?xml version="1.0" encoding="UTF-8" standalone="no"?>
<svg width="512px" height="512px" viewBox="0 0 512 512" version="1.1" xmlns="http://www.w3.org/2000/svg" xmlns:xlink="http://www.w3.org/1999/xlink">
    <!-- Generator: Sketch 39.1 (31720) - http://www.bohemiancoding.com/sketch -->
    <title>envelope</title>
    <desc>Created with Sketch.</desc>
    <defs></defs>
    <g id="Page-1" stroke="none" stroke-width="1" fill="none" fill-rule="evenodd">
        <g id="envelope" fill="#000000">
            <path d="M512,184.714286 L512,411.571429 C512,424.142857 507.52381,434.904762 498.571429,443.857143 C489.619048,452.809524 478.857143,457.285714 466.285714,457.285714 L45.7142857,457.285714 C33.1428571,457.285714 22.3809524,452.809524 13.4285714,443.857143 C4.47619048,434.904762 0,424.142857 0,411.571429 L0,184.714286 C8.38095238,194.047619 18,202.333333 28.8571429,209.571429 C97.8095238,256.428571 145.142857,289.285714 170.857143,308.142857 C181.714286,316.142857 190.52381,322.380952 197.285714,326.857143 C204.047619,331.333333 213.047619,335.904762 224.285714,340.571429 C235.52381,345.238095 246,347.571429 255.714286,347.571429 L256.285714,347.571429 C266,347.571429 276.47619,345.238095 287.714286,340.571429 C298.952381,335.904762 307.952381,331.333333 314.714286,326.857143 C321.47619,322.380952 330.285714,316.142857 341.142857,308.142857 C373.52381,284.714286 420.952381,251.857143 483.428571,209.571429 C494.285714,202.142857 503.809524,193.857143 512,184.714286 L512,184.714286 Z M512,100.714286 C512,115.761905 507.333333,130.142857 498,143.857143 C488.666667,157.571429 477.047619,169.285714 463.142857,179 C391.52381,228.714286 346.952381,259.666667 329.428571,271.857143 C327.52381,273.190476 323.47619,276.095238 317.285714,280.571429 C311.095238,285.047619 305.952381,288.666667 301.857143,291.428571 C297.761905,294.190476 292.809524,297.285714 287,300.714286 C281.190476,304.142857 275.714286,306.714286 270.571429,308.428571 C265.428571,310.142857 260.666667,311 256.285714,311 L255.714286,311 C251.333333,311 246.571429,310.142857 241.428571,308.428571 C236.285714,306.714286 230.809524,304.142857 225,300.714286 C219.190476,297.285714 214.238095,294.190476 210.142857,291.428571 C206.047619,288.666667 200.904762,285.047619 194.714286,280.571429 C188.52381,276.095238 184.47619,273.190476 182.571429,271.857143 C165.238095,259.666667 140.285714,242.285714 107.714286,219.714286 C75.1428571,197.142857 55.6190476,183.571429 49.1428571,179 C37.3333333,171 26.1904762,160 15.7142857,146 C5.23809524,132 0,119 0,107 C0,92.1428571 3.95238095,79.7619048 11.8571429,69.8571429 C19.7619048,59.952381 31.047619,55 45.7142857,55 L466.285714,55 C478.666667,55 489.380952,59.4761905 498.428571,68.4285714 C507.47619,77.3809524 512,88.1428571 512,100.714286 L512,100.714286 Z" id="Shape"></path>
        </g>
    </g>
</svg>