<?xml version="1.0" encoding="UTF-8" standalone="no"?>
<svg width="512px" height="512px" viewBox="0 0 512 512" version="1.1" xmlns="http://www.w3.org/2000/svg" xmlns:xlink="http://www.w3.org/1999/xlink">
    <!-- Generator: Sketch 39.1 (31720) - http://www.bohemiancoding.com/sketch -->
    <title>envelope-outline</title>
    <desc>Created with Sketch.</desc>
    <defs></defs>
    <g id="Page-1" stroke="none" stroke-width="1" fill="none" fill-rule="evenodd">
        <g id="envelope-outline" fill="#000000">
            <path d="M512,411 C512,435.8 491.2,456.6 466.4,456.6 L45.6,456.6 C20.8,456.6 0,435.8 0,411 L0,100.6 C0,75.8 20.8,55 45.6,55 L466.4,55 C491.2,55 512,75.8 512,100.6 L512,411 L512,411 Z M466.4,91 L45.6,91 C40.8,91 36.8,95 36.8,99.8 C36.8,132.6 52.8,160.6 79.2,180.6 C117.6,210.2 156,240.6 193.6,271 C208.8,283 236,309.4 256,309.4 L256,309.4 L256,309.4 C276,309.4 303.2,283 318.4,271 C356.8,240.6 394.4,210.2 432.8,180.6 C451.2,166.2 475.2,134.2 475.2,110.2 C475.2,103.8 476.8,91 466.4,91 L466.4,91 Z M475.2,191.8 C469.6,199 462.4,204.6 455.2,211 C414.4,242.2 372.8,274.2 333.6,307.8 C312,325.4 285.6,347.8 256,347.8 L256,347.8 L256,347.8 C226.4,347.8 200,325.4 178.4,307.8 C138.4,275 97.6,243 56.8,211 C49.6,205.4 43.2,199 36.8,191.8 L36.8,411 C36.8,415.8 40.8,419.8 45.6,419.8 L466.4,419.8 C471.2,419.8 475.2,415.8 475.2,411 L475.2,191.8 L475.2,191.8 Z" id="Shape"></path>
        </g>
    </g>
</svg>