<?xml version="1.0" encoding="UTF-8" standalone="no"?>
<svg width="512px" height="512px" viewBox="0 0 512 512" version="1.1" xmlns="http://www.w3.org/2000/svg" xmlns:xlink="http://www.w3.org/1999/xlink">
    <!-- Generator: Sketch 39.1 (31720) - http://www.bohemiancoding.com/sketch -->
    <title>euro</title>
    <desc>Created with Sketch.</desc>
    <defs></defs>
    <g id="Page-1" stroke="none" stroke-width="1" fill="none" fill-rule="evenodd">
        <g id="euro" fill="#000000">
            <path d="M426.912672,428.725257 L439.642313,486.540718 C440.387553,489.304539 439.993382,492.251776 438.548046,494.722624 C437.199979,497.176133 435.000093,499.051035 432.36393,499.993178 L430.546844,500.354587 C429.328487,500.924887 428.048397,501.352707 426.731967,501.629559 C425.159167,501.990968 423.218265,502.536429 420.90926,503.26594 C418.600256,503.995452 415.993424,504.664728 413.088763,505.27377 C410.17741,505.882812 407.085352,506.488507 403.812589,507.090856 C400.539827,507.693205 396.902308,508.2989 392.900034,508.907942 C388.884374,509.516984 384.825212,510.062444 380.722546,510.544323 C376.61988,511.026203 372.192616,511.390958 367.440752,511.638591 C362.755815,511.87953 358.094304,512 353.456217,512 C296.728331,512 247.151666,496.181647 204.726221,464.544942 C162.300776,432.908236 133.454954,390.302087 118.188755,336.726494 L83.6440421,336.726494 C77.2541473,336.640059 72.0951028,331.481014 72.0086681,325.09112 L72.0086681,284.000882 C72.0951028,277.610987 77.2541473,272.451943 83.6440421,272.365508 L107.647648,272.365508 C107.165769,258.544946 107.286239,245.82869 108.009057,234.216741 L83.6440421,234.216741 C80.5221219,234.339537 77.4907343,233.15315 75.2814964,230.943913 C73.0722584,228.734675 71.885872,225.703287 72.0086681,222.581367 L72.0086681,181.089563 C71.885872,177.967643 73.0722584,174.936255 75.2814964,172.727017 C77.4907343,170.517779 80.5221219,169.331393 83.6440421,169.454189 L119.283022,169.454189 C135.526365,118.54901 165.038118,77.5792417 207.818279,46.544885 C250.59844,15.5105284 299.144419,-0.00330356509 353.456217,0.00338920107 C377.225154,-0.111543203 400.918016,2.6970741 424.001318,8.36600051 C426.96871,9.31300202 429.529671,11.2337232 431.269662,13.8172585 C432.720481,16.4835542 433.111289,19.5992628 432.36393,22.5412792 L416.732974,80.3165831 C416.132539,83.3215844 414.266968,85.922409 411.613008,87.4544182 C408.981044,89.0276468 405.789772,89.3618306 402.888988,88.3679807 L401.433311,88.0065714 C400.46286,87.7656318 399.067418,87.4611109 397.246986,87.0930088 L390.882165,85.8180368 L382.700259,84.5430649 L373.24338,83.4487976 L362.702273,82.535235 L351.970423,82.1738257 C321.458102,82.1805184 294.074649,89.9273952 269.820065,105.414456 C245.56548,120.901517 227.384581,142.234709 215.277367,169.414032 L385.461025,169.414032 C388.930377,169.451579 392.211088,170.999309 394.44625,173.652961 C396.681412,176.306613 397.649041,179.802642 397.096399,183.227902 L388.372378,224.679549 C387.160987,230.984135 383.282529,234.136428 376.737004,234.136428 L199.274963,234.136428 C198.545451,243.104734 198.545451,255.82099 199.274963,272.285195 L366.185858,272.285195 C369.733454,272.239887 373.098302,273.855459 375.281327,276.652225 C377.434849,279.436579 378.233635,283.036637 377.459823,286.470513 L368.735802,327.279654 C367.65584,332.682951 362.97062,336.613029 357.461837,336.736533 L216.733043,336.736533 C228.371764,365.093783 246.482389,387.574784 271.064919,404.179537 C295.647449,420.78429 323.345462,429.086666 354.158957,429.086666 C358.522641,429.086666 362.872939,428.905962 367.209851,428.544552 C371.546764,428.183143 375.63939,427.758152 379.487731,427.26958 C383.242373,426.787701 386.819656,426.242241 390.219581,425.633199 C393.619506,425.024157 396.587748,424.418462 399.124307,423.816113 C401.667558,423.207071 403.909634,422.661611 405.850537,422.179732 L410.217567,421.085465 L412.034653,420.362646 C415.131427,419.143476 418.616017,419.409815 421.491531,421.085465 C424.333206,422.711958 426.315763,425.505894 426.912672,428.725257 L426.912672,428.725257 Z" id="Shape"></path>
        </g>
    </g>
</svg>