<?xml version="1.0" encoding="UTF-8" standalone="no"?>
<svg width="512px" height="512px" viewBox="0 0 512 512" version="1.1" xmlns="http://www.w3.org/2000/svg" xmlns:xlink="http://www.w3.org/1999/xlink">
    <!-- Generator: Sketch 39.1 (31720) - http://www.bohemiancoding.com/sketch -->
    <title>exclamation-triangle</title>
    <desc>Created with Sketch.</desc>
    <defs></defs>
    <g id="Page-1" stroke="none" stroke-width="1" fill="none" fill-rule="evenodd">
        <g id="exclamation-triangle" fill="#000000">
            <path d="M292.489978,410.982183 L292.489978,356.817372 C292.489978,354.156644 291.587231,351.923534 289.781737,350.11804 C287.976244,348.312546 285.838159,347.4098 283.367483,347.4098 L228.632517,347.4098 C226.161841,347.4098 224.023756,348.312546 222.218263,350.11804 C220.412769,351.923534 219.510022,354.156644 219.510022,356.817372 L219.510022,410.982183 C219.510022,413.64291 220.412769,415.876021 222.218263,417.681514 C224.023756,419.487008 226.161841,420.389755 228.632517,420.389755 L283.367483,420.389755 C285.838159,420.389755 287.976244,419.487008 289.781737,417.681514 C291.587231,415.876021 292.489978,413.64291 292.489978,410.982183 L292.489978,410.982183 Z M291.919822,304.363029 L297.051225,173.512249 C297.051225,171.231626 296.100965,169.426132 294.200445,168.095768 C291.72977,166.005197 289.449146,164.959911 287.358575,164.959911 L224.641425,164.959911 C222.550854,164.959911 220.27023,166.005197 217.799555,168.095768 C215.899035,169.426132 214.948775,171.421678 214.948775,174.082405 L219.7951,304.363029 C219.7951,306.263549 220.74536,307.831477 222.64588,309.066815 C224.546399,310.302153 226.827023,310.919822 229.487751,310.919822 L282.227171,310.919822 C284.887899,310.919822 287.12101,310.302153 288.926503,309.066815 C290.731997,307.831477 291.72977,306.263549 291.919822,304.363029 L291.919822,304.363029 Z M287.928731,38.1002227 L506.868597,439.489978 C513.520416,451.463252 513.330364,463.436526 506.298441,475.4098 C503.067558,480.921307 498.648849,485.292502 493.042316,488.523385 C487.435783,491.754269 481.401633,493.36971 474.939866,493.36971 L37.0601336,493.36971 C30.5983667,493.36971 24.5642168,491.754269 18.9576837,488.523385 C13.3511507,485.292502 8.93244246,480.921307 5.70155902,475.4098 C-1.33036377,463.436526 -1.52041574,451.463252 5.13140312,439.489978 L224.071269,38.1002227 C227.302153,32.2086117 231.768374,27.5523385 237.469933,24.1314031 C243.171492,20.7104677 249.348181,19 256,19 C262.651819,19 268.828508,20.7104677 274.530067,24.1314031 C280.231626,27.5523385 284.697847,32.2086117 287.928731,38.1002227 L287.928731,38.1002227 Z" id="Shape"></path>
        </g>
    </g>
</svg>