<?xml version="1.0" encoding="UTF-8" standalone="no"?>
<svg width="512px" height="512px" viewBox="0 0 512 512" version="1.1" xmlns="http://www.w3.org/2000/svg" xmlns:xlink="http://www.w3.org/1999/xlink">
    <!-- Generator: Sketch 39.1 (31720) - http://www.bohemiancoding.com/sketch -->
    <title>facebook</title>
    <desc>Created with Sketch.</desc>
    <defs></defs>
    <g id="Page-1" stroke="none" stroke-width="1" fill="none" fill-rule="evenodd">
        <g id="facebook" fill="#000000">
            <path d="M388.846154,3.69230769 L388.846154,84.9230769 L340.538462,84.9230769 C322.897436,84.9230769 311,88.6153846 304.846154,96 C298.692308,103.384615 295.615385,114.461538 295.615385,129.230769 L295.615385,187.384615 L385.769231,187.384615 L373.769231,278.461538 L295.615385,278.461538 L295.615385,512 L201.461538,512 L201.461538,278.461538 L123,278.461538 L123,187.384615 L201.461538,187.384615 L201.461538,120.307692 C201.461538,82.1538462 212.128205,52.5641026 233.461538,31.5384615 C254.794872,10.5128205 283.205128,0 318.692308,0 C348.846154,0 372.230769,1.23076923 388.846154,3.69230769 L388.846154,3.69230769 Z" id="Shape"></path>
        </g>
    </g>
</svg>