<?xml version="1.0" encoding="UTF-8" standalone="no"?>
<svg width="512px" height="512px" viewBox="0 0 512 512" version="1.1" xmlns="http://www.w3.org/2000/svg" xmlns:xlink="http://www.w3.org/1999/xlink">
    <!-- Generator: Sketch 39.1 (31720) - http://www.bohemiancoding.com/sketch -->
    <title>fridge</title>
    <desc>Created with Sketch.</desc>
    <defs></defs>
    <g id="Page-1" stroke="none" stroke-width="1" fill="none" fill-rule="evenodd">
        <g id="fridge" fill="#000000">
            <path d="M388.06,3.55271368e-15 L123.26,3.55271368e-15 C97.1704463,0.0275584404 76.0275584,21.1704463 76,47.26 L76,428 C76.0275584,454.089554 97.1704463,475.232442 123.26,475.26 L128.16,475.26 L128.16,498.44 C128.176538,504.829261 133.360717,510.000021 139.75,510 L180.32,510 C186.718695,509.994486 191.904486,504.808695 191.91,498.41 L191.91,475.23 L319.41,475.23 L319.41,498.41 C319.41,504.81098 324.59902,510 331,510 L371.57,510 C377.97098,510 383.16,504.81098 383.16,498.41 L383.16,475.23 L388.06,475.23 C414.13786,475.202477 435.275918,454.077837 435.32,428 L435.32,47.26 C435.292442,21.1704463 414.149554,0.0275584404 388.06,0 L388.06,3.55271368e-15 Z M168.73,486.82 L151.34,486.82 L151.34,475.23 L168.73,475.23 L168.73,486.82 L168.73,486.82 Z M359.98,486.82 L342.59,486.82 L342.59,475.23 L359.98,475.23 L359.98,486.82 L359.98,486.82 Z M412.14,428 C412.08497,441.263194 401.323303,451.989107 388.06,452 L123.26,452 C109.996697,451.989107 99.23503,441.263194 99.18,428 L99.18,220.23 L412.18,220.23 L412.18,428 L412.14,428 Z M412.14,197.07 L99.14,197.07 L99.14,47.26 C99.1453021,40.8682819 101.689488,34.7404585 106.212866,30.224582 C110.736244,25.7087055 116.868282,23.1746935 123.26,23.18 L388.06,23.18 C401.350546,23.1910192 412.12346,33.9594593 412.14,47.25 L412.14,197 L412.14,197.07 Z" id="Shape"></path>
            <path d="M139.75,68.65 C133.351305,68.6555137 128.165514,73.841305 128.16,80.24 L128.16,156.47 C128.16,162.87098 133.34902,168.06 139.75,168.06 C146.15098,168.06 151.34,162.87098 151.34,156.47 L151.34,80.24 C151.34,73.8390197 146.15098,68.65 139.75,68.65 L139.75,68.65 Z" id="Shape"></path>
            <path d="M139.75,359.32 C146.148695,359.314486 151.334486,354.128695 151.34,347.73 L151.34,271.49 C151.34,265.08902 146.15098,259.9 139.75,259.9 C133.34902,259.9 128.16,265.08902 128.16,271.49 L128.16,347.72 C128.159998,354.1226 133.347402,359.314481 139.75,359.32 L139.75,359.32 Z" id="Shape"></path>
        </g>
    </g>
</svg>