<?xml version="1.0" encoding="UTF-8" standalone="no"?>
<svg width="512px" height="512px" viewBox="0 0 512 512" version="1.1" xmlns="http://www.w3.org/2000/svg" xmlns:xlink="http://www.w3.org/1999/xlink">
    <!-- Generator: Sketch 39.1 (31720) - http://www.bohemiancoding.com/sketch -->
    <title>group</title>
    <desc>Created with Sketch.</desc>
    <defs></defs>
    <g id="Page-1" stroke="none" stroke-width="1" fill="none" fill-rule="evenodd">
        <g id="group" fill="#000000">
            <path d="M158.133333,255.933333 C129.333333,256.822222 105.777778,268.2 87.4666667,290.066667 L51.7333333,290.066667 C37.1555556,290.066667 24.8888889,286.466667 14.9333333,279.266667 C4.97777778,272.066667 0,261.533333 0,247.666667 C0,184.911111 11.0222222,153.533333 33.0666667,153.533333 C34.1333333,153.533333 38,155.4 44.6666667,159.133333 C51.3333333,162.866667 60,166.644444 70.6666667,170.466667 C81.3333333,174.288889 91.9111111,176.2 102.4,176.2 C114.311111,176.2 126.133333,174.155556 137.866667,170.066667 C136.977778,176.644444 136.533333,182.511111 136.533333,187.666667 C136.533333,212.377778 143.733333,235.133333 158.133333,255.933333 L158.133333,255.933333 Z M443.733333,425.8 C443.733333,447.133333 437.244444,463.977778 424.266667,476.333333 C411.288889,488.688889 394.044444,494.866667 372.533333,494.866667 L139.466667,494.866667 C117.955556,494.866667 100.711111,488.688889 87.7333333,476.333333 C74.7555556,463.977778 68.2666667,447.133333 68.2666667,425.8 C68.2666667,416.377778 68.5777778,407.177778 69.2,398.2 C69.8222222,389.222222 71.0666667,379.533333 72.9333333,369.133333 C74.8,358.733333 77.1555556,349.088889 80,340.2 C82.8444444,331.311111 86.6666667,322.644444 91.4666667,314.2 C96.2666667,305.755556 101.777778,298.555556 108,292.6 C114.222222,286.644444 121.822222,281.888889 130.8,278.333333 C139.777778,274.777778 149.688889,273 160.533333,273 C162.311111,273 166.133333,274.911111 172,278.733333 C177.866667,282.555556 184.355556,286.822222 191.466667,291.533333 C198.577778,296.244444 208.088889,300.511111 220,304.333333 C231.911111,308.155556 243.911111,310.066667 256,310.066667 C268.088889,310.066667 280.088889,308.155556 292,304.333333 C303.911111,300.511111 313.422222,296.244444 320.533333,291.533333 C327.644444,286.822222 334.133333,282.555556 340,278.733333 C345.866667,274.911111 349.688889,273 351.466667,273 C362.311111,273 372.222222,274.777778 381.2,278.333333 C390.177778,281.888889 397.777778,286.644444 404,292.6 C410.222222,298.555556 415.733333,305.755556 420.533333,314.2 C425.333333,322.644444 429.155556,331.311111 432,340.2 C434.844444,349.088889 437.2,358.733333 439.066667,369.133333 C440.933333,379.533333 442.177778,389.222222 442.8,398.2 C443.422222,407.177778 443.733333,416.377778 443.733333,425.8 L443.733333,425.8 Z M170.666667,85.2666667 C170.666667,104.111111 164,120.2 150.666667,133.533333 C137.333333,146.866667 121.244444,153.533333 102.4,153.533333 C83.5555556,153.533333 67.4666667,146.866667 54.1333333,133.533333 C40.8,120.2 34.1333333,104.111111 34.1333333,85.2666667 C34.1333333,66.4222222 40.8,50.3333333 54.1333333,37 C67.4666667,23.6666667 83.5555556,17 102.4,17 C121.244444,17 137.333333,23.6666667 150.666667,37 C164,50.3333333 170.666667,66.4222222 170.666667,85.2666667 L170.666667,85.2666667 Z M358.4,187.666667 C358.4,215.933333 348.4,240.066667 328.4,260.066667 C308.4,280.066667 284.266667,290.066667 256,290.066667 C227.733333,290.066667 203.6,280.066667 183.6,260.066667 C163.6,240.066667 153.6,215.933333 153.6,187.666667 C153.6,159.4 163.6,135.266667 183.6,115.266667 C203.6,95.2666667 227.733333,85.2666667 256,85.2666667 C284.266667,85.2666667 308.4,95.2666667 328.4,115.266667 C348.4,135.266667 358.4,159.4 358.4,187.666667 L358.4,187.666667 Z M512,247.666667 C512,261.533333 507.022222,272.066667 497.066667,279.266667 C487.111111,286.466667 474.844444,290.066667 460.266667,290.066667 L424.533333,290.066667 C406.222222,268.2 382.666667,256.822222 353.866667,255.933333 C368.266667,235.133333 375.466667,212.377778 375.466667,187.666667 C375.466667,182.511111 375.022222,176.644444 374.133333,170.066667 C385.866667,174.155556 397.688889,176.2 409.6,176.2 C420.088889,176.2 430.666667,174.288889 441.333333,170.466667 C452,166.644444 460.666667,162.866667 467.333333,159.133333 C474,155.4 477.866667,153.533333 478.933333,153.533333 C500.977778,153.533333 512,184.911111 512,247.666667 L512,247.666667 Z M477.866667,85.2666667 C477.866667,104.111111 471.2,120.2 457.866667,133.533333 C444.533333,146.866667 428.444444,153.533333 409.6,153.533333 C390.755556,153.533333 374.666667,146.866667 361.333333,133.533333 C348,120.2 341.333333,104.111111 341.333333,85.2666667 C341.333333,66.4222222 348,50.3333333 361.333333,37 C374.666667,23.6666667 390.755556,17 409.6,17 C428.444444,17 444.533333,23.6666667 457.866667,37 C471.2,50.3333333 477.866667,66.4222222 477.866667,85.2666667 L477.866667,85.2666667 Z" id="Shape"></path>
        </g>
    </g>
</svg>