<?xml version="1.0" encoding="UTF-8" standalone="no"?>
<svg width="512px" height="512px" viewBox="0 0 512 512" version="1.1" xmlns="http://www.w3.org/2000/svg" xmlns:xlink="http://www.w3.org/1999/xlink">
    <!-- Generator: Sketch 39.1 (31720) - http://www.bohemiancoding.com/sketch -->
    <title>heart-outline</title>
    <desc>Created with Sketch.</desc>
    <defs></defs>
    <g id="Page-1" stroke="none" stroke-width="1" fill="none" fill-rule="evenodd">
        <g id="heart-outline" fill="#000000">
            <path d="M475.428571,170.714286 C475.428571,155.285714 473.380952,141.666667 469.285714,129.857143 C465.190476,118.047619 459.952381,108.666667 453.571429,101.714286 C447.190476,94.7619048 439.428571,89.0952381 430.285714,84.7142857 C421.142857,80.3333333 412.190476,77.3809524 403.428571,75.8571429 C394.666667,74.3333333 385.333333,73.5714286 375.428571,73.5714286 C365.52381,73.5714286 354.857143,76 343.428571,80.8571429 C332,85.7142857 321.47619,91.8095238 311.857143,99.1428571 C302.238095,106.47619 294,113.333333 287.142857,119.714286 C280.285714,126.095238 274.571429,131.952381 270,137.285714 C266.571429,141.47619 261.904762,143.571429 256,143.571429 C250.095238,143.571429 245.428571,141.47619 242,137.285714 C237.428571,131.952381 231.714286,126.095238 224.857143,119.714286 C218,113.333333 209.761905,106.47619 200.142857,99.1428571 C190.52381,91.8095238 180,85.7142857 168.571429,80.8571429 C157.142857,76 146.47619,73.5714286 136.571429,73.5714286 C126.666667,73.5714286 117.333333,74.3333333 108.571429,75.8571429 C99.8095238,77.3809524 90.8571429,80.3333333 81.7142857,84.7142857 C72.5714286,89.0952381 64.8095238,94.7619048 58.4285714,101.714286 C52.047619,108.666667 46.8095238,118.047619 42.7142857,129.857143 C38.6190476,141.666667 36.5714286,155.285714 36.5714286,170.714286 C36.5714286,202.714286 54.3809524,236.52381 90,272.142857 L256,432.142857 L421.714286,272.428571 C457.52381,236.619048 475.428571,202.714286 475.428571,170.714286 L475.428571,170.714286 Z M512,170.714286 C512,212.809524 490.190476,255.666667 446.571429,299.285714 L268.571429,470.714286 C265.142857,474.142857 260.952381,475.857143 256,475.857143 C251.047619,475.857143 246.857143,474.142857 243.428571,470.714286 L65.1428571,298.714286 C63.2380952,297.190476 60.6190476,294.714286 57.2857143,291.285714 C53.952381,287.857143 48.6666667,281.619048 41.4285714,272.571429 C34.1904762,263.52381 27.7142857,254.238095 22,244.714286 C16.2857143,235.190476 11.1904762,223.666667 6.71428571,210.142857 C2.23809524,196.619048 0,183.47619 0,170.714286 C0,128.809524 12.0952381,96.047619 36.2857143,72.4285714 C60.4761905,48.8095238 93.9047619,37 136.571429,37 C148.380952,37 160.428571,39.047619 172.714286,43.1428571 C185,47.2380952 196.428571,52.7619048 207,59.7142857 C217.571429,66.6666667 226.666667,73.1904762 234.285714,79.2857143 C241.904762,85.3809524 249.142857,91.8571429 256,98.7142857 C262.857143,91.8571429 270.095238,85.3809524 277.714286,79.2857143 C285.333333,73.1904762 294.428571,66.6666667 305,59.7142857 C315.571429,52.7619048 327,47.2380952 339.285714,43.1428571 C351.571429,39.047619 363.619048,37 375.428571,37 C418.095238,37 451.52381,48.8095238 475.714286,72.4285714 C499.904762,96.047619 512,128.809524 512,170.714286 L512,170.714286 Z" id="Shape"></path>
        </g>
    </g>
</svg>