<?xml version="1.0" encoding="UTF-8" standalone="no"?>
<svg width="512px" height="512px" viewBox="0 0 512 512" version="1.1" xmlns="http://www.w3.org/2000/svg" xmlns:xlink="http://www.w3.org/1999/xlink">
    <!-- Generator: Sketch 39.1 (31720) - http://www.bohemiancoding.com/sketch -->
    <title>heart</title>
    <desc>Created with Sketch.</desc>
    <defs></defs>
    <g id="Page-1" stroke="none" stroke-width="1" fill="none" fill-rule="evenodd">
        <g id="heart" fill="#000000">
            <path d="M446.4,299.4 L268.8,470.6 C265.6,473.8 260.8,475.4 256,475.4 C251.2,475.4 247.2,473.8 243.2,470.6 L64.8,298.6 C63.2,296.2 0,239.4 0,170.6 C0,86.6 51.2,37 136.8,37 C187.2,37 233.6,76.2 256,98.6 C278.4,76.2 325.6,37 375.2,37 C460.8,37 512,86.6 512,170.6 C512,239.4 448.8,296.2 446.4,299.4 L446.4,299.4 Z M375.2,73 C332.8,73 284.8,119.4 269.6,137 C262.4,145 248.8,145 241.6,137 C226.4,119.4 178.4,73 136,73 C90.4,73 36,89.8 36,169.8 C36,221.8 88.8,270.6 89.6,271.4 L256,432.2 L421.6,272.2 C422.4,271.4 475.2,222.6 475.2,170.6 C475.2,89.8 420.8,73 375.2,73 L375.2,73 Z" id="Shape"></path>
        </g>
    </g>
</svg>