<?xml version="1.0" encoding="UTF-8" standalone="no"?>
<svg width="512px" height="512px" viewBox="0 0 512 512" version="1.1" xmlns="http://www.w3.org/2000/svg" xmlns:xlink="http://www.w3.org/1999/xlink">
    <!-- Generator: Sketch 40 (33762) - http://www.bohemiancoding.com/sketch -->
    <title>home</title>
    <desc>Created with Sketch.</desc>
    <defs></defs>
    <g id="Page-1" stroke="none" stroke-width="1" fill="none" fill-rule="evenodd">
        <g id="home" fill="#000000">
            <path d="M490.068495,288.735431 C488.471629,290.332298 486.076329,291.929164 483.68103,291.929164 L482.882597,291.929164 C480.487297,291.929164 478.091998,291.130731 476.495131,289.533865 L256.127579,106.692671 L36.5584609,289.533865 C34.1631614,291.130731 31.767862,291.929164 28.5741293,291.929164 C26.1788298,291.929164 23.7835304,290.332298 22.1866641,288.735431 L2.22583509,265.58087 C-0.967897541,261.588704 -0.967897541,254.402806 3.82270141,251.209073 L232.174585,60.3835482 C245.747948,49.2054839 267.305644,49.2054839 280.080574,60.3835482 L357.528591,125.056634 L357.528591,63.5772808 C357.528591,57.9882487 362.31919,53.1976497 367.908222,53.1976497 L428.589142,53.1976497 C434.178174,53.1976497 438.968773,57.9882487 438.968773,63.5772808 L438.968773,192.923452 L508.432458,250.41064 C512.424623,253.604373 513.223057,260.790271 510.029324,264.782437 L490.068495,288.735431 L490.068495,288.735431 Z M438.968773,439.639298 C438.968773,450.817363 429.387575,459.600127 419.007944,459.600127 L296.847671,459.600127 L296.847671,337.439854 L215.407488,337.439854 L215.407488,459.600127 L94.0456483,459.600127 C82.8675841,459.600127 74.0848194,450.01893 74.0848194,439.639298 L74.0848194,287.138565 L74.0848194,285.541699 L256.127579,134.637832 L438.17034,284.743266 L438.17034,286.340132 L438.17034,439.639298 L438.968773,439.639298 Z" id="Shape"></path>
        </g>
    </g>
</svg>