<?xml version="1.0" encoding="UTF-8" standalone="no"?>
<svg width="512px" height="512px" viewBox="0 0 512 512" version="1.1" xmlns="http://www.w3.org/2000/svg" xmlns:xlink="http://www.w3.org/1999/xlink">
    <!-- Generator: Sketch 39.1 (31720) - http://www.bohemiancoding.com/sketch -->
    <title>info-circle</title>
    <desc>Created with Sketch.</desc>
    <defs></defs>
    <g id="Page-1" stroke="none" stroke-width="1" fill="none" fill-rule="evenodd">
        <g id="info-circle" fill="#000000">
            <path d="M341.333333,416 L341.333333,362.666667 C341.333333,359.555556 340.333333,357 338.333333,355 C336.333333,353 333.777778,352 330.666667,352 L298.666667,352 L298.666667,181.333333 C298.666667,178.222222 297.666667,175.666667 295.666667,173.666667 C293.666667,171.666667 291.111111,170.666667 288,170.666667 L181.333333,170.666667 C178.222222,170.666667 175.666667,171.666667 173.666667,173.666667 C171.666667,175.666667 170.666667,178.222222 170.666667,181.333333 L170.666667,234.666667 C170.666667,237.777778 171.666667,240.333333 173.666667,242.333333 C175.666667,244.333333 178.222222,245.333333 181.333333,245.333333 L213.333333,245.333333 L213.333333,352 L181.333333,352 C178.222222,352 175.666667,353 173.666667,355 C171.666667,357 170.666667,359.555556 170.666667,362.666667 L170.666667,416 C170.666667,419.111111 171.666667,421.666667 173.666667,423.666667 C175.666667,425.666667 178.222222,426.666667 181.333333,426.666667 L330.666667,426.666667 C333.777778,426.666667 336.333333,425.666667 338.333333,423.666667 C340.333333,421.666667 341.333333,419.111111 341.333333,416 L341.333333,416 Z M298.666667,117.333333 L298.666667,64 C298.666667,60.8888889 297.666667,58.3333333 295.666667,56.3333333 C293.666667,54.3333333 291.111111,53.3333333 288,53.3333333 L224,53.3333333 C220.888889,53.3333333 218.333333,54.3333333 216.333333,56.3333333 C214.333333,58.3333333 213.333333,60.8888889 213.333333,64 L213.333333,117.333333 C213.333333,120.444444 214.333333,123 216.333333,125 C218.333333,127 220.888889,128 224,128 L288,128 C291.111111,128 293.666667,127 295.666667,125 C297.666667,123 298.666667,120.444444 298.666667,117.333333 L298.666667,117.333333 Z M512,256 C512,302.444444 500.555556,345.277778 477.666667,384.5 C454.777778,423.722222 423.722222,454.777778 384.5,477.666667 C345.277778,500.555556 302.444444,512 256,512 C209.555556,512 166.722222,500.555556 127.5,477.666667 C88.2777778,454.777778 57.2222222,423.722222 34.3333333,384.5 C11.4444444,345.277778 0,302.444444 0,256 C0,209.555556 11.4444444,166.722222 34.3333333,127.5 C57.2222222,88.2777778 88.2777778,57.2222222 127.5,34.3333333 C166.722222,11.4444444 209.555556,0 256,0 C302.444444,0 345.277778,11.4444444 384.5,34.3333333 C423.722222,57.2222222 454.777778,88.2777778 477.666667,127.5 C500.555556,166.722222 512,209.555556 512,256 L512,256 Z" id="Shape"></path>
        </g>
    </g>
</svg>