<?xml version="1.0" encoding="UTF-8" standalone="no"?>
<svg width="512px" height="512px" viewBox="0 0 512 512" version="1.1" xmlns="http://www.w3.org/2000/svg" xmlns:xlink="http://www.w3.org/1999/xlink">
    <!-- Generator: Sketch 39.1 (31720) - http://www.bohemiancoding.com/sketch -->
    <title>instagram</title>
    <desc>Created with Sketch.</desc>
    <defs></defs>
    <g id="Page-1" stroke="none" stroke-width="1" fill="none" fill-rule="evenodd">
        <g id="instagram" fill="#000000">
            <path d="M454,432.666667 L454,216.666667 L409,216.666667 C413.444444,230.666667 415.666667,245.222222 415.666667,260.333333 C415.666667,288.333333 408.555556,314.166667 394.333333,337.833333 C380.111111,361.5 360.777778,380.222222 336.333333,394 C311.888889,407.777778 285.222222,414.666667 256.333333,414.666667 C212.555556,414.666667 175.111111,399.611111 144,369.5 C112.888889,339.388889 97.3333333,303 97.3333333,260.333333 C97.3333333,245.222222 99.5555556,230.666667 104,216.666667 L57,216.666667 L57,432.666667 C57,438.444444 58.9444444,443.277778 62.8333333,447.166667 C66.7222222,451.055556 71.5555556,453 77.3333333,453 L433.666667,453 C439.222222,453 444,451.055556 448,447.166667 C452,443.277778 454,438.444444 454,432.666667 L454,432.666667 Z M359.333333,255 C359.333333,227.444444 349.277778,203.944444 329.166667,184.5 C309.055556,165.055556 284.777778,155.333333 256.333333,155.333333 C228.111111,155.333333 203.944444,165.055556 183.833333,184.5 C163.722222,203.944444 153.666667,227.444444 153.666667,255 C153.666667,282.555556 163.722222,306.055556 183.833333,325.5 C203.944444,344.944444 228.111111,354.666667 256.333333,354.666667 C284.777778,354.666667 309.055556,344.944444 329.166667,325.5 C349.277778,306.055556 359.333333,282.555556 359.333333,255 L359.333333,255 Z M454,135 L454,80 C454,73.7777778 451.777778,68.3888889 447.333333,63.8333333 C442.888889,59.2777778 437.444444,57 431,57 L373,57 C366.555556,57 361.111111,59.2777778 356.666667,63.8333333 C352.222222,68.3888889 350,73.7777778 350,80 L350,135 C350,141.444444 352.222222,146.888889 356.666667,151.333333 C361.111111,155.777778 366.555556,158 373,158 L431,158 C437.444444,158 442.888889,155.777778 447.333333,151.333333 C451.777778,146.888889 454,141.444444 454,135 L454,135 Z M512,65.6666667 L512,446.333333 C512,464.333333 505.555556,479.777778 492.666667,492.666667 C479.777778,505.555556 464.333333,512 446.333333,512 L65.6666667,512 C47.6666667,512 32.2222222,505.555556 19.3333333,492.666667 C6.44444444,479.777778 0,464.333333 0,446.333333 L0,65.6666667 C0,47.6666667 6.44444444,32.2222222 19.3333333,19.3333333 C32.2222222,6.44444444 47.6666667,0 65.6666667,0 L446.333333,0 C464.333333,0 479.777778,6.44444444 492.666667,19.3333333 C505.555556,32.2222222 512,47.6666667 512,65.6666667 L512,65.6666667 Z" id="Shape"></path>
        </g>
    </g>
</svg>