<?xml version="1.0" encoding="UTF-8" standalone="no"?>
<svg width="512px" height="512px" viewBox="0 0 512 512" version="1.1" xmlns="http://www.w3.org/2000/svg" xmlns:xlink="http://www.w3.org/1999/xlink">
    <!-- Generator: Sketch 39.1 (31720) - http://www.bohemiancoding.com/sketch -->
    <title>like-to-cook</title>
    <desc>Created with Sketch.</desc>
    <defs></defs>
    <g id="Page-1" stroke="none" stroke-width="1" fill="none" fill-rule="evenodd">
        <g id="like-to-cook" fill="#000000">
            <path d="M511.601,326.978 C511.601,279.387 473.034,240.82 425.444,240.82 C377.853,240.82 339.286,279.387 339.286,326.978 C339.286,374.568 377.853,413.135 425.444,413.135 C473.033,413.135 511.601,374.567 511.601,326.978 L511.601,326.978 Z M474.676,334.365 C474.676,338.469 472.216,343.388 468.114,343.388 L441.854,343.388 L441.854,369.647 C441.854,373.75 436.934,376.21 432.832,376.21 L418.056,376.21 C413.953,376.21 409.034,373.749 409.034,369.647 L409.034,343.388 L382.774,343.388 C378.671,343.388 376.212,338.468 376.212,334.365 L376.212,319.589 C376.212,315.486 378.672,310.567 382.774,310.567 L409.034,310.567 L409.034,284.307 C409.034,280.204 413.954,277.745 418.056,277.745 L432.832,277.745 C436.935,277.745 441.854,280.205 441.854,284.307 L441.854,310.567 L468.114,310.567 C472.217,310.567 474.676,315.487 474.676,319.589 L474.676,334.365 L474.676,334.365 Z M300.718,377.027 C276.102,402.469 249.025,427.086 222.766,452.519 L212.921,461.55 L203.895,452.519 C153.84,404.929 103.786,357.339 65.223,308.923 C25.833,259.69 0.399,209.641 0.399,158.765 C0.399,129.224 12.708,102.148 34.039,82.455 C54.553,62.759 83.271,51.271 114.455,51.271 C162.867,51.271 189.943,70.146 214.559,107.888 C224.408,93.12 234.255,80.812 246.564,70.963 C264.614,57.017 285.949,50.449 314.668,50.449 C345.847,50.449 373.749,62.758 395.08,81.633 C415.594,101.325 428.727,128.402 428.727,157.943 C428.727,170.252 427.084,182.559 423.799,194.868 C413.133,195.689 403.284,197.332 393.437,200.613 C398.365,185.841 400.825,171.894 400.825,157.943 C400.825,135.791 390.977,115.277 376.209,101.326 C360.615,86.557 339.284,77.531 315.485,77.531 C294.153,77.531 277.743,82.455 264.613,92.299 L264.613,92.299 C250.666,102.969 239.175,119.38 227.688,140.711 L215.379,163.689 L203.071,140.711 C180.918,98.866 158.761,76.709 115.274,76.709 C91.475,76.709 70.144,85.736 54.55,100.505 C38.96,115.277 29.933,134.97 29.933,157.122 C29.933,200.613 53.732,245.744 89.015,290.87 C123.48,334.365 169.427,377.853 215.378,422.158 C243.276,395.082 271.179,368.822 296.612,342.571 C294.973,355.697 297.44,366.362 300.718,377.027 L300.718,377.027 Z" id="Shape"></path>
        </g>
    </g>
</svg>