<?xml version="1.0" encoding="UTF-8" standalone="no"?>
<svg width="512px" height="512px" viewBox="0 0 512 512" version="1.1" xmlns="http://www.w3.org/2000/svg" xmlns:xlink="http://www.w3.org/1999/xlink">
    <!-- Generator: Sketch 39.1 (31720) - http://www.bohemiancoding.com/sketch -->
    <title>notification</title>
    <desc>Created with Sketch.</desc>
    <defs></defs>
    <g id="Page-1" stroke="none" stroke-width="1" fill="none" fill-rule="evenodd">
        <g id="notification" fill="#000000">
            <path d="M455.163172,439.16318 L326.62761,439.16318 C326.62761,479.866109 294.493719,512 253.790791,512 C213.087863,512 180.953972,479.866109 180.953972,439.16318 L52.4184094,439.16318 C33.138075,439.16318 16,422.025105 16,402.74477 C58.8451876,366.32636 108.117153,302.058577 108.117153,164.953975 C108.117153,109.25523 153.1046,49.2719665 230.225938,38.5606695 C228.083678,34.2761506 228.083678,32.1338912 228.083678,27.8493724 C228.083678,12.8535565 240.937235,0 255.93305,0 C270.928866,0 283.782422,12.8535565 283.782422,27.8493724 C283.782422,32.1338912 283.782422,36.41841 281.640163,38.5606695 C356.619241,49.2719665 403.748947,109.25523 403.748947,164.953975 C403.748947,304.200837 453.020913,368.468619 495.866101,402.74477 C491.581582,422.025105 476.585766,439.16318 455.163172,439.16318 L455.163172,439.16318 Z M253.790791,479.866109 C230.225938,479.866109 213.087863,460.585774 213.087863,439.16318 C213.087863,437.020921 210.945603,434.878661 208.803344,434.878661 C206.661085,434.878661 204.518825,437.020921 204.518825,439.16318 C204.518825,467.012552 228.083678,490.577406 255.93305,490.577406 C258.07531,490.577406 260.217569,488.435146 260.217569,486.292887 C258.07531,482.008368 255.93305,479.866109 253.790791,479.866109 L253.790791,479.866109 Z" id="Shape"></path>
        </g>
    </g>
</svg>