<?xml version="1.0" encoding="utf-8"?>
<!-- Generator: Adobe Illustrator 16.2.1, SVG Export Plug-In . SVG Version: 6.00 Build 0)  -->
<!DOCTYPE svg PUBLIC "-//W3C//DTD SVG 1.1//EN" "http://www.w3.org/Graphics/SVG/1.1/DTD/svg11.dtd">
<svg version="1.1" id="Ebene_1" xmlns="http://www.w3.org/2000/svg" xmlns:xlink="http://www.w3.org/1999/xlink" x="0px" y="0px"
	 width="512px" height="512px" viewBox="-224 -224 512 512" enable-background="new -224 -224 512 512" xml:space="preserve">
<path d="M198.015,288.066h-331.134c-28.792,0-51.419-23.66-51.419-51.418v-409.296c0-28.797,23.656-51.418,51.419-51.418H196.99
	c28.792,0,51.418,23.65,51.418,51.418v409.296C249.434,265.44,225.782,288.066,198.015,288.066z M-133.119-197.328
	c-13.367,0-24.68,11.308-24.68,24.68v409.296c0,13.366,11.313,24.675,24.68,24.675H196.99c13.367,0,24.685-11.309,24.685-24.675
	v-409.296c0-13.372-11.317-24.68-24.685-24.68H-133.119L-133.119-197.328z M-125.918,86.5h316.743v11.317h-316.743V86.5z
	 M-125.918,147.178h316.743v11.308h-316.743V147.178z M-125.918,207.846h316.743v11.318h-316.743V207.846z M151.737,47.424h39.087
	v26.733h-39.087V47.424z M167.163,108.102h23.661v26.733h-23.661V108.102z M167.163,169.804h23.661v26.733h-23.661V169.804z
	 M-125.918,48.447h65.815v26.744h-65.815V48.447z M-125.918,109.126h103.867v26.733h-103.867V109.126z M-125.918,169.804h61.703
	v26.733h-61.703V169.804z M-8.685-127.4c-23.651,0-30.852,7.201-38.052,7.201c-7.196,0-14.396-7.201-38.047-7.201
	c-23.656,0-41.135,24.68-41.135,51.419s26.739,90.495,55.531,90.495c15.425,0,18.509-4.112,23.651-4.112
	c4.117,0,8.229,4.112,23.655,4.112c28.792,0,55.531-63.756,55.531-90.495C32.45-103.75,14.966-127.4-8.685-127.4z M-46.736-127.4
	c-5.142,0-9.255-4.112-9.255-9.254c-1.029-10.284,3.088-31.88,23.656-39.081c5.142-2.054,10.284,1.029,12.337,6.171
	c2.059,5.142-1.029,10.284-6.171,12.342c-12.338,4.112-11.309,19.538-11.309,19.538C-36.453-132.542-40.565-127.4-46.736-127.4
	C-45.707-127.4-46.736-127.4-46.736-127.4z"/>
</svg>
