<?xml version="1.0" encoding="UTF-8" standalone="no"?>
<svg width="512px" height="512px" viewBox="0 0 512 512" version="1.1" xmlns="http://www.w3.org/2000/svg" xmlns:xlink="http://www.w3.org/1999/xlink">
    <!-- Generator: Sketch 39.1 (31720) - http://www.bohemiancoding.com/sketch -->
    <title>opening-cite-quotes</title>
    <desc>Created with Sketch.</desc>
    <defs></defs>
    <g id="Page-1" stroke="none" stroke-width="1" fill="none" fill-rule="evenodd">
        <g id="opening-cite-quotes" fill="#1D1C1B">
            <path d="M281.522041,484.865291 C271.580768,480.916655 263.172495,468.513291 256.250768,447.701655 C249.282586,426.890018 245.84495,404.591836 245.84495,380.807109 C245.84495,319.3942 269.118677,255.472745 315.712586,189.042745 C362.260041,122.6592 420.235314,68.6325636 489.638405,27.0092909 C497.535677,27.0092909 502.506314,30.4933818 504.503859,37.4151091 C506.45495,44.3832909 504.503859,51.8160182 498.557677,59.7132909 C454.936859,87.4931091 419.259768,122.1482 391.526405,163.771473 C363.746586,205.394745 349.903132,249.015564 349.903132,294.587473 C349.903132,336.210745 359.79795,362.968564 379.634041,374.860927 C385.580223,380.807109 385.069223,389.726382 378.147495,401.618745 C371.179314,413.511109 361.795495,425.403473 349.903132,437.295836 C338.010768,449.1882 325.607405,460.105018 312.739495,469.999836 C299.825132,479.941109 289.419314,484.865291 281.522041,484.865291 M43.6747682,484.865291 C33.7334955,480.916655 25.3252227,468.513291 18.4034955,447.701655 C11.4353136,426.890018 7.99767727,404.591836 7.99767727,380.807109 C7.99767727,319.3942 31.2714045,255.472745 77.8653136,189.042745 C124.412768,122.6592 182.388041,68.6325636 251.791132,27.0092909 C259.688405,27.0092909 264.659041,30.4933818 266.656586,37.4151091 C268.607677,44.3832909 266.656586,51.8160182 260.710405,59.7132909 C217.089586,87.4931091 181.412495,122.1482 153.679132,163.771473 C125.899314,205.394745 112.055859,249.015564 112.055859,294.587473 C112.055859,336.210745 121.950677,362.968564 141.786768,374.860927 C147.73295,380.807109 147.22195,389.726382 140.300223,401.618745 C133.332041,413.511109 123.948223,425.403473 112.055859,437.295836 C100.163496,449.1882 87.7601318,460.105018 74.8922227,469.999836 C61.9778591,479.941109 51.5720409,484.865291 43.6747682,484.865291" id="Fill-1"></path>
        </g>
    </g>
</svg>