<?xml version="1.0" encoding="UTF-8" standalone="no"?>
<svg width="512px" height="512px" viewBox="0 0 512 512" version="1.1" xmlns="http://www.w3.org/2000/svg" xmlns:xlink="http://www.w3.org/1999/xlink">
    <!-- Generator: Sketch 39.1 (31720) - http://www.bohemiancoding.com/sketch -->
    <title>opening-quotes</title>
    <desc>Created with Sketch.</desc>
    <defs></defs>
    <g id="Page-1" stroke="none" stroke-width="1" fill="none" fill-rule="evenodd">
        <g id="opening-quotes" fill="#000000">
            <path d="M133.61,261.46 C133.61,252.35 131.79,241.46 126.32,226.85 L97.15,226.85 C73.47,226.85 55.26,215.92 38.86,195.85 C24.29,175.85 17,148.49 17,117.53 C17,39.25 47.97,1 111.72,1 C186.4,1 224.61,61.11 224.61,179.5 C224.61,259.64 204.573333,339.783333 164.5,419.93 L142.64,463.64 C126.25,494.64 109.85,511 91.64,511 C67.96,511 55.21,500.07 55.21,476.39 C55.21,467.28 58.85,458.18 64.32,449.07 L86.18,412.64 C102.57,387.14 115.32,348.89 128.07,296.07 C131.75,281.5 133.61,268.75 133.61,261.46 L133.61,261.46 Z M399.54,261.46 C399.652511,249.700329 397.807308,238.003909 394.08,226.85 L364.9,226.85 C341.22,226.85 323.01,215.92 308.44,195.85 C293.87,175.78 286.61,148.54 286.61,117.57 C286.61,39.25 317.54,1 381.29,1 C455.97,1 494.22,61.11 494.22,179.5 C494.22,265.106667 474.183333,345.25 434.11,419.93 L410.43,463.64 C394.04,494.61 377.61,511 361.25,511 C337.57,511 324.82,500.07 324.82,476.39 C324.82,469.1 328.46,460 333.93,449.07 L353.93,412.64 C372.14,379.85 386.72,339.78 397.64,296.07 C397.68,287 399.5,274.21 399.5,261.46 L399.54,261.46 Z" id="Shape"></path>
        </g>
    </g>
</svg>