<?xml version="1.0" encoding="utf-8"?>
<!-- Generator: Adobe Illustrator 16.2.1, SVG Export Plug-In . SVG Version: 6.00 Build 0)  -->
<!DOCTYPE svg PUBLIC "-//W3C//DTD SVG 1.1//EN" "http://www.w3.org/Graphics/SVG/1.1/DTD/svg11.dtd">
<svg version="1.1" id="Ebene_1" xmlns="http://www.w3.org/2000/svg" xmlns:xlink="http://www.w3.org/1999/xlink" x="0px" y="0px"
	 width="512px" height="512px" viewBox="-224 -224 512 512" enable-background="new -224 -224 512 512" xml:space="preserve">
<path d="M-150.701-150.701C-100.426-200.976-39.117-225.5,32-225.5c71.117,0,132.426,24.524,182.707,74.799
	C264.977-100.426,289.5-39.117,289.5,32c0,71.117-24.523,132.426-74.793,182.707C164.426,264.977,103.117,289.5,32,289.5
	c-71.117,0-132.426-24.523-182.701-74.793C-200.977,164.426-225.5,103.117-225.5,32C-225.5-39.117-200.977-100.426-150.701-150.701z
	 M188.95,187.729c12.262-12.262,22.069-24.523,29.433-38.02l-30.654-18.393l9.807-15.938l30.655,18.393
	c15.938-30.654,24.523-61.31,25.745-93.186H217.15V22.193h36.785c-1.222-31.882-9.807-62.537-25.745-93.192l-30.655,18.393
	l-9.807-15.944l30.654-18.393c-7.363-13.483-17.171-25.745-29.433-38.007c-12.263-12.262-24.524-22.075-38.007-29.433
	l-18.394,30.655l-15.938-9.807l18.394-30.655c-30.655-15.938-61.31-24.524-93.198-25.751v36.786H23.414v-36.786
	c-31.876,1.228-62.531,9.813-93.186,25.751l18.393,30.655l-15.944,9.807l-18.393-30.655c-13.489,7.358-25.751,17.171-38.013,29.433
	c-12.262,12.262-22.069,24.524-29.428,38.007l30.655,18.393l-9.808,15.944l-30.654-18.393
	c-15.944,30.655-24.524,61.31-25.751,93.192h36.786v18.393h-36.786c1.227,31.876,9.807,62.531,25.751,93.186l30.654-18.393
	l9.808,15.938l-30.655,18.393c7.358,13.496,17.166,25.758,29.428,38.02s24.523,22.069,38.013,29.422l18.393-30.655l15.944,8.586
	l-18.393,30.655c30.655,15.938,61.31,24.523,93.186,25.756v-36.785h18.393v36.785c31.889-1.232,62.543-8.585,93.198-25.756
	l-18.394-30.655l15.938-8.586l18.394,30.655C163.205,211.02,176.688,201.212,188.95,187.729z M197.535,14.834v36.78H62.654
	C55.303,62.654,45.483,68.785,32,68.785c-11.035,0-19.62-3.676-26.979-9.807C-1.109,51.614-4.786,43.041-4.786,32
	c0-13.489,6.131-24.524,18.394-31.882v-78.475h36.785V0.118C55.303,3.8,60.2,8.704,63.876,14.834H197.535z"/>
</svg>
