<?xml version="1.0" encoding="UTF-8" standalone="no"?>
<svg width="512px" height="512px" viewBox="0 0 512 512" version="1.1" xmlns="http://www.w3.org/2000/svg" xmlns:xlink="http://www.w3.org/1999/xlink">
    <!-- Generator: Sketch 39.1 (31720) - http://www.bohemiancoding.com/sketch -->
    <title>picture-outline</title>
    <desc>Created with Sketch.</desc>
    <defs></defs>
    <g id="Page-1" stroke="none" stroke-width="1" fill="none" fill-rule="evenodd">
        <g id="picture-outline" fill="#000000">
            <path d="M170.666667,170.466667 C170.666667,184.688889 165.688889,196.777778 155.733333,206.733333 C145.777778,216.688889 133.688889,221.666667 119.466667,221.666667 C105.244444,221.666667 93.1555556,216.688889 83.2,206.733333 C73.2444444,196.777778 68.2666667,184.688889 68.2666667,170.466667 C68.2666667,156.244444 73.2444444,144.155556 83.2,134.2 C93.1555556,124.244444 105.244444,119.266667 119.466667,119.266667 C133.688889,119.266667 145.777778,124.244444 155.733333,134.2 C165.688889,144.155556 170.666667,156.244444 170.666667,170.466667 L170.666667,170.466667 Z M443.733333,272.866667 L443.733333,392.333333 L68.2666667,392.333333 L68.2666667,341.133333 L153.6,255.8 L196.266667,298.466667 L332.8,161.933333 L443.733333,272.866667 Z M469.333333,85.1333333 L42.6666667,85.1333333 C40.3555556,85.1333333 38.3555556,85.9777778 36.6666667,87.6666667 C34.9777778,89.3555556 34.1333333,91.3555556 34.1333333,93.6666667 L34.1333333,417.933333 C34.1333333,420.244444 34.9777778,422.244444 36.6666667,423.933333 C38.3555556,425.622222 40.3555556,426.466667 42.6666667,426.466667 L469.333333,426.466667 C471.644444,426.466667 473.644444,425.622222 475.333333,423.933333 C477.022222,422.244444 477.866667,420.244444 477.866667,417.933333 L477.866667,93.6666667 C477.866667,91.3555556 477.022222,89.3555556 475.333333,87.6666667 C473.644444,85.9777778 471.644444,85.1333333 469.333333,85.1333333 L469.333333,85.1333333 Z M512,93.6666667 L512,417.933333 C512,429.666667 507.822222,439.711111 499.466667,448.066667 C491.111111,456.422222 481.066667,460.6 469.333333,460.6 L42.6666667,460.6 C30.9333333,460.6 20.8888889,456.422222 12.5333333,448.066667 C4.17777778,439.711111 0,429.666667 0,417.933333 L0,93.6666667 C0,81.9333333 4.17777778,71.8888889 12.5333333,63.5333333 C20.8888889,55.1777778 30.9333333,51 42.6666667,51 L469.333333,51 C481.066667,51 491.111111,55.1777778 499.466667,63.5333333 C507.822222,71.8888889 512,81.9333333 512,93.6666667 L512,93.6666667 Z" id="Shape"></path>
        </g>
    </g>
</svg>