<?xml version="1.0" encoding="UTF-8" standalone="no"?>
<svg width="512px" height="512px" viewBox="0 0 512 512" version="1.1" xmlns="http://www.w3.org/2000/svg" xmlns:xlink="http://www.w3.org/1999/xlink">
    <!-- Generator: Sketch 39.1 (31720) - http://www.bohemiancoding.com/sketch -->
    <title>pinterest</title>
    <desc>Created with Sketch.</desc>
    <defs></defs>
    <g id="Page-1" stroke="none" stroke-width="1" fill="none" fill-rule="evenodd">
        <g id="pinterest" fill="#000000">
            <path d="M59,183.692308 C59,161.538462 62.8461538,140.666667 70.5384615,121.076923 C78.2307692,101.487179 88.8461538,84.4102564 102.384615,69.8461538 C115.923077,55.2820513 131.512821,42.6666667 149.153846,32 C166.794872,21.3333333 185.769231,13.3333333 206.076923,8 C226.384615,2.66666667 247.102564,0 268.230769,0 C300.641026,0 330.794872,6.82051282 358.692308,20.4615385 C386.589744,34.1025641 409.25641,53.9487179 426.692308,80 C444.128205,106.051282 452.846154,135.487179 452.846154,168.307692 C452.846154,188 450.897436,207.282051 447,226.153846 C443.102564,245.025641 436.948718,263.179487 428.538462,280.615385 C420.128205,298.051282 409.871795,313.384615 397.769231,326.615385 C385.666667,339.846154 370.794872,350.410256 353.153846,358.307692 C335.512821,366.205128 316.128205,370.153846 295,370.153846 C281.051282,370.153846 267.205128,366.871795 253.461538,360.307692 C239.717949,353.74359 229.871795,344.717949 223.923077,333.230769 C221.871795,341.230769 219,352.769231 215.307692,367.846154 C211.615385,382.923077 209.205128,392.666667 208.076923,397.076923 C206.948718,401.487179 204.846154,408.769231 201.769231,418.923077 C198.692308,429.076923 196.025641,436.358974 193.769231,440.769231 C191.512821,445.179487 188.230769,451.589744 183.923077,460 C179.615385,468.410256 174.897436,476.358974 169.769231,483.846154 C164.641026,491.333333 158.282051,500.205128 150.692308,510.461538 L146.384615,512 L143.615385,508.923077 C140.538462,476.717949 139,457.435897 139,451.076923 C139,432.205128 141.205128,411.025641 145.615385,387.538462 C150.025641,364.051282 156.846154,334.564103 166.076923,299.076923 C175.307692,263.589744 180.641026,242.769231 182.076923,236.615385 C175.512821,223.282051 172.230769,205.948718 172.230769,184.615385 C172.230769,167.589744 177.564103,151.589744 188.230769,136.615385 C198.897436,121.641026 212.435897,114.153846 228.846154,114.153846 C241.358974,114.153846 251.102564,118.307692 258.076923,126.615385 C265.051282,134.923077 268.538462,145.435897 268.538462,158.153846 C268.538462,171.692308 264.025641,191.282051 255,216.923077 C245.974359,242.564103 241.461538,261.74359 241.461538,274.461538 C241.461538,287.384615 246.076923,298.102564 255.307692,306.615385 C264.538462,315.128205 275.717949,319.384615 288.846154,319.384615 C300.128205,319.384615 310.589744,316.820513 320.230769,311.692308 C329.871795,306.564103 337.923077,299.589744 344.384615,290.769231 C350.846154,281.948718 356.589744,272.205128 361.615385,261.538462 C366.641026,250.871795 370.538462,239.538462 373.307692,227.538462 C376.076923,215.538462 378.128205,204.153846 379.461538,193.384615 C380.794872,182.615385 381.461538,172.410256 381.461538,162.769231 C381.461538,127.282051 370.230769,99.6410256 347.769231,79.8461538 C325.307692,60.0512821 296.025641,50.1538462 259.923077,50.1538462 C218.897436,50.1538462 184.641026,63.4358974 157.153846,90 C129.666667,116.564103 115.923077,150.25641 115.923077,191.076923 C115.923077,200.102564 117.205128,208.820513 119.769231,217.230769 C122.333333,225.641026 125.102564,232.307692 128.076923,237.230769 C131.051282,242.153846 133.820513,246.820513 136.384615,251.230769 C138.948718,255.641026 140.230769,258.769231 140.230769,260.615385 C140.230769,266.358974 138.692308,273.846154 135.615385,283.076923 C132.538462,292.307692 128.74359,296.923077 124.230769,296.923077 C123.820513,296.923077 122.076923,296.615385 119,296 C108.538462,292.923077 99.2564103,287.179487 91.1538462,278.769231 C83.0512821,270.358974 76.7948718,260.666667 72.3846154,249.692308 C67.974359,238.717949 64.6410256,227.641026 62.3846154,216.461538 C60.1282051,205.282051 59,194.358974 59,183.692308 L59,183.692308 Z" id="Shape"></path>
        </g>
    </g>
</svg>