<?xml version="1.0" encoding="UTF-8" standalone="no"?>
<svg width="512px" height="512px" viewBox="0 0 512 512" version="1.1" xmlns="http://www.w3.org/2000/svg" xmlns:xlink="http://www.w3.org/1999/xlink">
    <!-- Generator: Sketch 39.1 (31720) - http://www.bohemiancoding.com/sketch -->
    <title>plus-circle</title>
    <desc>Created with Sketch.</desc>
    <defs></defs>
    <g id="Page-1" stroke="none" stroke-width="1" fill="none" fill-rule="evenodd">
        <g id="plus-circle" fill="#000000">
            <path d="M405.333333,277.333333 L405.333333,234.666667 C405.333333,228.888889 403.222222,223.888889 399,219.666667 C394.777778,215.444444 389.777778,213.333333 384,213.333333 L298.666667,213.333333 L298.666667,128 C298.666667,122.222222 296.555556,117.222222 292.333333,113 C288.111111,108.777778 283.111111,106.666667 277.333333,106.666667 L234.666667,106.666667 C228.888889,106.666667 223.888889,108.777778 219.666667,113 C215.444444,117.222222 213.333333,122.222222 213.333333,128 L213.333333,213.333333 L128,213.333333 C122.222222,213.333333 117.222222,215.444444 113,219.666667 C108.777778,223.888889 106.666667,228.888889 106.666667,234.666667 L106.666667,277.333333 C106.666667,283.111111 108.777778,288.111111 113,292.333333 C117.222222,296.555556 122.222222,298.666667 128,298.666667 L213.333333,298.666667 L213.333333,384 C213.333333,389.777778 215.444444,394.777778 219.666667,399 C223.888889,403.222222 228.888889,405.333333 234.666667,405.333333 L277.333333,405.333333 C283.111111,405.333333 288.111111,403.222222 292.333333,399 C296.555556,394.777778 298.666667,389.777778 298.666667,384 L298.666667,298.666667 L384,298.666667 C389.777778,298.666667 394.777778,296.555556 399,292.333333 C403.222222,288.111111 405.333333,283.111111 405.333333,277.333333 L405.333333,277.333333 Z M512,256 C512,302.444444 500.555556,345.277778 477.666667,384.5 C454.777778,423.722222 423.722222,454.777778 384.5,477.666667 C345.277778,500.555556 302.444444,512 256,512 C209.555556,512 166.722222,500.555556 127.5,477.666667 C88.2777778,454.777778 57.2222222,423.722222 34.3333333,384.5 C11.4444444,345.277778 0,302.444444 0,256 C0,209.555556 11.4444444,166.722222 34.3333333,127.5 C57.2222222,88.2777778 88.2777778,57.2222222 127.5,34.3333333 C166.722222,11.4444444 209.555556,0 256,0 C302.444444,0 345.277778,11.4444444 384.5,34.3333333 C423.722222,57.2222222 454.777778,88.2777778 477.666667,127.5 C500.555556,166.722222 512,209.555556 512,256 L512,256 Z" id="Shape"></path>
        </g>
    </g>
</svg>