<?xml version="1.0" encoding="utf-8"?>
<!-- Generator: Adobe Illustrator 16.2.1, SVG Export Plug-In . SVG Version: 6.00 Build 0)  -->
<!DOCTYPE svg PUBLIC "-//W3C//DTD SVG 1.1//EN" "http://www.w3.org/Graphics/SVG/1.1/DTD/svg11.dtd">
<svg version="1.1" id="Ebene_1" xmlns="http://www.w3.org/2000/svg" xmlns:xlink="http://www.w3.org/1999/xlink" x="0px" y="0px"
	 width="512px" height="512px" viewBox="-224 -224 512 512" enable-background="new -224 -224 512 512" xml:space="preserve">
<path d="M155.646-195.65l-55.943-12.669l0,0c-10.556-2.113-32.719-1.057-46.449,8.442c-10.551,7.391-18.998,17.947-23.22,31.667
	l-239.612-55.943c-5.278-1.057-11.612,3.165-12.669,8.442c-1.057,6.334,2.113,11.612,8.442,12.669l239.618,53.835
	C24.757-117.539,43.76-87.984,71.201-81.65c27.451,6.334,60.169,13.72,61.221,13.72l0,0c2.113,0,4.227,1.057,6.34,1.057
	c11.607,0,23.225-3.165,32.719-10.556c13.72-9.499,23.225-24.276,26.389-42.223C205.261-152.375,186.262-186.151,155.646-195.65z
	 M178.871-122.816c-2.113,11.612-8.442,20.055-17.947,26.389c-9.493,6.334-17.946,10.556-29.554,7.386
	c-11.606-3.165-51.727-12.664-51.727-12.664c-22.163-5.278-36.94-28.502-32.719-52.778c2.113-11.612,8.442-21.112,17.946-27.446
	c9.494-6.334,24.276-6.334,30.605-5.278c6.34,1.057,0,0,0,0l51.728,11.612C168.315-170.317,183.098-147.098,178.871-122.816z
	 M284.429-14.094v-14.777h-487.677v14.777c0,86.553,44.336,162.557,109.783,206.893c-8.447,10.556-11.612,20.061-11.612,27.441
	c0,38.006,62.278,67.561,144.61,67.561c82.333,0,144.616-28.503,144.616-67.561c0-7.381-2.113-16.886-10.556-27.441
	C240.093,148.463,284.429,72.459,284.429-14.094z M164.089,220.24c0,22.173-52.778,46.449-123.499,46.449
	c-70.72,0-123.499-24.276-123.499-46.449c0-6.33,4.222-11.607,8.443-15.834c33.78,19.009,73.89,29.564,115.056,29.564
	s80.225-10.556,115.057-29.564C159.873,209.684,164.089,214.962,164.089,220.24z M40.59,210.746
	c-120.334,0-218.5-91.838-222.727-218.506h445.454C259.091,118.908,160.924,210.746,40.59,210.746z"/>
</svg>
