<?xml version="1.0" encoding="utf-8"?>
<!-- Generator: Adobe Illustrator 16.2.1, SVG Export Plug-In . SVG Version: 6.00 Build 0)  -->
<!DOCTYPE svg PUBLIC "-//W3C//DTD SVG 1.1//EN" "http://www.w3.org/Graphics/SVG/1.1/DTD/svg11.dtd">
<svg version="1.1" id="Ebene_1" xmlns="http://www.w3.org/2000/svg" xmlns:xlink="http://www.w3.org/1999/xlink" x="0px" y="0px"
	 width="512px" height="512px" viewBox="-224 -224 512 512" enable-background="new -224 -224 512 512" xml:space="preserve">
<path d="M32,288.944c-141.32,0-256.945-115.628-256.945-256.944c0-141.32,115.625-256.945,256.945-256.945
	c141.316,0,256.945,115.625,256.945,256.945C288.945,173.316,173.316,288.944,32,288.944z M32-202.464
	C-97.276-202.464-202.464-97.276-202.464,32c0,129.272,105.188,234.464,234.464,234.464c129.272,0,234.464-105.191,234.464-234.464
	C266.464-97.276,161.272-202.464,32-202.464z M89.814,118.717c-4.015,2.408-25.696,8.838-48.178,8.03
	c-16.059,0-32.118-5.622-39.348-11.237c-13.647-9.637-22.481-18.474-28.903-33.726c-1.608-4.015-3.215-9.637-4.015-9.637H80.177
	V48.059H-33.844c-0.8-8.029,0-16.059,0-24.088H80.177V-0.118H-30.629c6.422-24.088,23.285-43.358,36.933-50.584
	c10.441-5.622,21.682-8.833,32.118-10.441c24.089-5.618,49.785,6.426,49.785,6.426l12.844-25.696
	c-2.407,0-34.525-16.059-69.051-8.833C19.956-86.835,6.304-82.821-7.344-75.595C-35.447-60.339-53.917-32.236-59.536-0.118h-28.907
	v24.089h25.696c-0.804,8.029-0.804,16.059,0,24.088h-25.696v24.089h28.907c1.604,8.029,4.015,13.652,6.422,20.074
	c8.03,20.073,20.877,35.333,38.544,47.377c12.844,9.629,35.329,15.252,55.399,16.06c0.808,0,1.607,0,2.415,0
	c22.481,0,53.792-5.623,64.236-14.46L89.814,118.717z"/>
</svg>
