<?xml version="1.0" encoding="UTF-8" standalone="no"?>
<svg width="512px" height="512px" viewBox="0 0 512 512" version="1.1" xmlns="http://www.w3.org/2000/svg" xmlns:xlink="http://www.w3.org/1999/xlink">
    <!-- Generator: Sketch 39.1 (31720) - http://www.bohemiancoding.com/sketch -->
    <title>print</title>
    <desc>Created with Sketch.</desc>
    <defs></defs>
    <g id="Page-1" stroke="none" stroke-width="1" fill="none" fill-rule="evenodd">
        <g id="print" fill="#000000">
            <path d="M119.152542,451 L392.508475,451 L392.508475,373 L119.152542,373 L119.152542,451 L119.152542,451 L119.152542,451 Z M119.152542,256 L392.508475,256 L392.508475,139 L343.694915,139 C335.559322,139 328.644068,136.15625 322.949153,130.46875 C317.254237,124.78125 314.40678,117.875 314.40678,109.75 L314.40678,61 L119.152542,61 L119.152542,256 L119.152542,256 L119.152542,256 Z M470.610169,275.5 C470.610169,270.21875 468.677966,265.648438 464.813559,261.789062 C460.949153,257.929688 456.372881,256 451.084746,256 C445.79661,256 441.220339,257.929688 437.355932,261.789062 C433.491525,265.648438 431.559322,270.21875 431.559322,275.5 C431.559322,280.78125 433.491525,285.351563 437.355932,289.210938 C441.220339,293.070313 445.79661,295 451.084746,295 C456.372881,295 460.949153,293.070313 464.813559,289.210938 C468.677966,285.351563 470.610169,280.78125 470.610169,275.5 L470.610169,275.5 L470.610169,275.5 Z M509.661017,275.5 L509.661017,402.25 C509.661017,404.890625 508.694915,407.175781 506.762712,409.105469 C504.830508,411.035156 502.542373,412 499.898305,412 L431.559322,412 L431.559322,460.75 C431.559322,468.875 428.711864,475.78125 423.016949,481.46875 C417.322034,487.15625 410.40678,490 402.271186,490 L109.389831,490 C101.254237,490 94.3389831,487.15625 88.6440678,481.46875 C82.9491525,475.78125 80.1016949,468.875 80.1016949,460.75 L80.1016949,412 L11.7627119,412 C9.11864407,412 6.83050847,411.035156 4.89830508,409.105469 C2.96610169,407.175781 2,404.890625 2,402.25 L2,275.5 C2,259.453125 7.74576271,245.691406 19.2372881,234.214844 C30.7288136,222.738281 44.5084746,217 60.5762712,217 L80.1016949,217 L80.1016949,51.25 C80.1016949,43.125 82.9491525,36.21875 88.6440678,30.53125 C94.3389831,24.84375 101.254237,22 109.389831,22 L314.40678,22 C322.542373,22 331.491525,24.03125 341.254237,28.09375 C351.016949,32.15625 358.745763,37.03125 364.440678,42.71875 L410.813559,89.03125 C416.508475,94.71875 421.389831,102.4375 425.457627,112.1875 C429.525424,121.9375 431.559322,130.875 431.559322,139 L431.559322,217 L451.084746,217 C467.152542,217 480.932203,222.738281 492.423729,234.214844 C503.915254,245.691406 509.661017,259.453125 509.661017,275.5 L509.661017,275.5 L509.661017,275.5 Z" id="Shape"></path>
        </g>
    </g>
</svg>