<?xml version="1.0" encoding="UTF-8" standalone="no"?>
<svg width="512px" height="512px" viewBox="0 0 512 512" version="1.1" xmlns="http://www.w3.org/2000/svg" xmlns:xlink="http://www.w3.org/1999/xlink">
    <!-- Generator: Sketch 39.1 (31720) - http://www.bohemiancoding.com/sketch -->
    <title>recipe-book</title>
    <desc>Created with Sketch.</desc>
    <defs></defs>
    <g id="Page-1" stroke="none" stroke-width="1" fill="none" fill-rule="evenodd">
        <g id="recipe-book" fill="#000000">
            <path d="M509.536073,167.520805 L425.498263,446.046117 C417.494663,472.458 391.08278,492.467002 363.870536,492.467002 L79.7427046,492.467002 C48.5286611,492.467002 14.9135373,467.655839 3.70849609,435.641436 C-1.09366445,422.035314 -1.09366445,408.429192 2.908136,396.423791 C3.70849609,390.02091 4.50885618,384.41839 5.30921627,376.414789 C5.30921627,371.612628 2.908136,367.610828 3.70849609,363.609027 C5.30921627,356.405787 11.712097,350.803266 16.5142575,342.799665 C26.1185786,327.592823 36.5232598,302.781661 39.7247001,286.774459 C41.3254203,281.171938 38.12398,273.968697 39.7247001,269.166537 C41.3254203,263.564016 46.9279409,258.761856 50.1293813,253.159335 C58.1329822,238.752853 69.3380235,211.54061 70.9387436,197.134129 C71.7391037,190.731248 68.5376634,183.528007 70.1383835,178.725847 C72.5394638,171.522606 78.9423445,168.321166 83.7445051,162.718645 C90.9477459,152.313964 103.753507,123.501001 105.354227,106.693439 C106.154588,101.090918 102.953147,96.2887575 103.753507,90.6862368 C103.753507,85.0837162 111.757108,79.4811956 116.559269,72.2779548 C129.36503,53.0693126 131.76611,10.6502278 170.983755,21.8552691 L170.983755,22.6556292 C176.586275,21.054909 181.388436,20.2545489 186.990957,20.2545489 L421.496463,20.2545489 C435.902945,20.2545489 448.708706,26.6574296 456.712307,37.8624709 C464.715908,49.0675122 466.316628,63.4739938 462.314828,77.8804754 L376.676298,356.405787 C362.269816,403.627032 354.266215,414.031713 315.048571,414.031713 L47.728301,414.031713 C43.7265006,414.031713 38.92434,414.832073 35.7228997,418.833874 C33.3218194,422.835674 33.3218194,425.236754 35.7228997,432.439995 C42.1257804,450.047917 62.9351427,454.049718 79.7427046,454.049718 L363.870536,454.049718 C375.075578,454.049718 388.681699,447.646837 391.88314,436.441796 L483.92455,132.304961 C485.52527,126.702441 485.52527,120.29956 485.52527,114.69704 C492.728511,117.09812 499.131392,121.90028 503.933552,128.303161 C511.937153,138.707842 514.338233,153.114324 509.536073,167.520805 L509.536073,167.520805 Z M158.177993,217.143131 L345.462254,217.143131 C351.064775,217.143131 356.667296,213.141331 358.268016,207.53881 L364.670897,187.529808 C366.271617,181.927287 363.070176,177.925487 358.268016,177.925487 L170.983755,177.925487 C165.381234,177.925487 159.778714,181.927287 158.177993,187.529808 L151.775113,207.53881 C149.374032,212.34097 152.575473,217.143131 158.177993,217.143131 L158.177993,217.143131 Z M183.789516,137.907482 L371.073777,137.907482 C376.676298,137.907482 382.278819,133.905682 383.879539,128.303161 L390.282419,108.294159 C391.88314,102.691638 388.681699,98.6898377 383.879539,98.6898377 L195.794918,98.6898377 C190.192397,98.6898377 184.589876,102.691638 182.989156,108.294159 L176.586275,128.303161 C174.985555,133.905682 178.186996,137.907482 183.789516,137.907482 L183.789516,137.907482 Z" id="Shape"></path>
        </g>
    </g>
</svg>