<?xml version="1.0" encoding="UTF-8" standalone="no"?>
<svg width="512px" height="512px" viewBox="0 0 512 512" version="1.1" xmlns="http://www.w3.org/2000/svg" xmlns:xlink="http://www.w3.org/1999/xlink">
    <!-- Generator: Sketch 39.1 (31720) - http://www.bohemiancoding.com/sketch -->
    <title>refresh</title>
    <desc>Created with Sketch.</desc>
    <defs></defs>
    <g id="Page-1" stroke="none" stroke-width="1" fill="none" fill-rule="evenodd">
        <g id="refresh" fill="#000000">
            <path d="M503.666667,309.333333 C503.666667,310.444444 503.555556,311.222222 503.333333,311.666667 C489.111111,371.222222 459.333333,419.5 414,456.5 C368.666667,493.5 315.555556,512 254.666667,512 C222.222222,512 190.833333,505.888889 160.5,493.666667 C130.166667,481.444444 103.111111,464 79.3333333,441.333333 L36.3333333,484.333333 C32.1111111,488.555556 27.1111111,490.666667 21.3333333,490.666667 C15.5555556,490.666667 10.5555556,488.555556 6.33333333,484.333333 C2.11111111,480.111111 0,475.111111 0,469.333333 L0,320 C0,314.222222 2.11111111,309.222222 6.33333333,305 C10.5555556,300.777778 15.5555556,298.666667 21.3333333,298.666667 L170.666667,298.666667 C176.444444,298.666667 181.444444,300.777778 185.666667,305 C189.888889,309.222222 192,314.222222 192,320 C192,325.777778 189.888889,330.777778 185.666667,335 L140,380.666667 C155.777778,395.333333 173.666667,406.666667 193.666667,414.666667 C213.666667,422.666667 234.444444,426.666667 256,426.666667 C285.777778,426.666667 313.555556,419.444444 339.333333,405 C365.111111,390.555556 385.777778,370.666667 401.333333,345.333333 C403.777778,341.555556 409.666667,328.555556 419,306.333333 C420.777778,301.222222 424.111111,298.666667 429,298.666667 L493,298.666667 C495.888889,298.666667 498.388889,299.722222 500.5,301.833333 C502.611111,303.944444 503.666667,306.444444 503.666667,309.333333 L503.666667,309.333333 Z M512,42.6666667 L512,192 C512,197.777778 509.888889,202.777778 505.666667,207 C501.444444,211.222222 496.444444,213.333333 490.666667,213.333333 L341.333333,213.333333 C335.555556,213.333333 330.555556,211.222222 326.333333,207 C322.111111,202.777778 320,197.777778 320,192 C320,186.222222 322.111111,181.222222 326.333333,177 L372.333333,131 C339.444444,100.555556 300.666667,85.3333333 256,85.3333333 C226.222222,85.3333333 198.444444,92.5555556 172.666667,107 C146.888889,121.444444 126.222222,141.333333 110.666667,166.666667 C108.222222,170.444444 102.333333,183.444444 93,205.666667 C91.2222222,210.777778 87.8888889,213.333333 83,213.333333 L16.6666667,213.333333 C13.7777778,213.333333 11.2777778,212.277778 9.16666667,210.166667 C7.05555556,208.055556 6,205.555556 6,202.666667 L6,200.333333 C20.4444444,140.777778 50.4444444,92.5 96,55.5 C141.555556,18.5 194.888889,0 256,0 C288.444444,0 320,6.16666667 350.666667,18.5 C381.333333,30.8333333 408.555556,48.2222222 432.333333,70.6666667 L475.666667,27.6666667 C479.888889,23.4444444 484.888889,21.3333333 490.666667,21.3333333 C496.444444,21.3333333 501.444444,23.4444444 505.666667,27.6666667 C509.888889,31.8888889 512,36.8888889 512,42.6666667 L512,42.6666667 Z" id="Shape"></path>
        </g>
    </g>
</svg>