<?xml version="1.0" encoding="UTF-8" standalone="no"?>
<svg width="512px" height="512px" viewBox="0 0 512 512" version="1.1" xmlns="http://www.w3.org/2000/svg" xmlns:xlink="http://www.w3.org/1999/xlink">
    <!-- Generator: Sketch 39.1 (31720) - http://www.bohemiancoding.com/sketch -->
    <title>salty</title>
    <desc>Created with Sketch.</desc>
    <defs></defs>
    <g id="Page-1" stroke="none" stroke-width="1" fill="none" fill-rule="evenodd">
        <g id="salty" fill="#000000">
            <g id="Group" transform="translate(0.000000, 1.000000)">
                <path d="M258.078632,393.955556 C248.34188,393.955556 238.495726,390.673504 230.947009,384.218803 L16.0820513,204.034188 C7.43931624,196.48547 1.96923077,185.545299 0.875213675,173.620513 C0.875213675,161.695726 5.25128205,149.77094 12.8,142.112821 L143.097436,11.9247863 C150.646154,4.26666667 161.476923,0 173.401709,0 C186.420513,0 198.345299,5.47008547 206.003419,15.2068376 L386.188034,230.071795 C400.300855,247.466667 399.206838,271.316239 384,287.617094 L288.492308,383.124786 C279.849573,388.48547 268.909402,393.955556 258.078632,393.955556 L258.078632,393.955556 Z M173.401709,20.5675214 C167.931624,20.5675214 162.57094,22.7555556 159.288889,27.1316239 L29.1008547,157.319658 C24.7247863,161.695726 22.5367521,167.05641 22.5367521,172.526496 C22.5367521,177.996581 25.8188034,183.357265 30.0854701,187.733333 L245.059829,367.917949 C252.608547,374.482051 265.62735,374.482051 273.28547,366.823932 L368.793162,271.316239 C376.34188,263.767521 377.435897,251.733333 369.887179,243.090598 L188.608547,28.1162393 C185.435897,22.7555556 178.871795,20.5675214 173.401709,20.5675214 L173.401709,20.5675214 Z" id="Shape"></path>
                <path d="M326.454701,426.557265 C299.323077,426.557265 273.28547,415.726496 254.796581,397.237607 C252.608547,395.049573 251.51453,392.861538 251.51453,389.688889 C251.51453,386.406838 252.608547,384.218803 254.796581,382.140171 L384,253.921368 C386.188034,251.733333 388.376068,250.639316 391.548718,250.639316 L391.548718,250.639316 C394.830769,250.639316 397.018803,251.733333 399.097436,253.921368 C418.680342,273.504274 428.417094,298.447863 428.417094,325.579487 C428.417094,352.711111 417.586325,378.748718 399.097436,397.237607 C378.639316,415.617094 353.586325,426.557265 326.454701,426.557265 L326.454701,426.557265 Z M277.661538,387.391453 C291.774359,398.222222 308.075214,403.692308 326.454701,403.692308 C348.116239,403.692308 367.699145,395.049573 382.905983,379.842735 C398.112821,364.635897 406.755556,345.162393 406.755556,323.391453 C406.755556,305.996581 401.28547,288.711111 390.454701,274.598291 L277.661538,387.391453 L277.661538,387.391453 Z" id="Shape"></path>
                <path d="M453.470085,462.331624 C450.188034,462.331624 448,461.237607 445.921368,459.049573 L416.601709,429.729915 C412.225641,425.353846 412.225641,418.899145 416.601709,414.523077 C420.977778,410.147009 427.432479,410.147009 431.808547,414.523077 L461.128205,443.842735 C465.504274,448.218803 465.504274,454.673504 461.128205,459.049573 C458.940171,461.237607 455.65812,462.331624 453.470085,462.331624 L453.470085,462.331624 Z" id="Shape"></path>
                <path d="M500.184615,400.519658 C497.996581,400.519658 496.902564,400.519658 494.71453,399.425641 L458.940171,379.842735 C453.470085,376.560684 451.391453,370.105983 454.564103,364.635897 C457.846154,359.165812 464.300855,357.087179 469.77094,360.259829 L505.545299,379.842735 C511.015385,383.124786 513.094017,389.579487 509.921368,395.049573 C507.733333,398.331624 504.451282,400.519658 500.184615,400.519658 L500.184615,400.519658 Z" id="Shape"></path>
                <path d="M391.65812,509.046154 C387.282051,509.046154 384.109402,506.85812 381.921368,503.576068 L362.338462,467.801709 C359.05641,462.331624 361.244444,455.876923 366.71453,452.594872 C372.184615,449.312821 378.639316,451.500855 381.921368,456.97094 L401.504274,492.745299 C404.786325,498.215385 402.598291,504.670085 397.128205,507.952137 C394.830769,509.046154 393.736752,509.046154 391.65812,509.046154 L391.65812,509.046154 Z" id="Shape"></path>
            </g>
        </g>
    </g>
</svg>