<?xml version="1.0" encoding="UTF-8" standalone="no"?>
<svg width="512px" height="512px" viewBox="0 0 512 512" version="1.1" xmlns="http://www.w3.org/2000/svg" xmlns:xlink="http://www.w3.org/1999/xlink">
    <!-- Generator: Sketch 39.1 (31720) - http://www.bohemiancoding.com/sketch -->
    <title>search</title>
    <desc>Created with Sketch.</desc>
    <defs></defs>
    <g id="Page-1" stroke="none" stroke-width="1" fill="none" fill-rule="evenodd">
        <g id="search" fill="#000000">
            <path d="M354.08,217.77 C354.08,179.97 340.646667,147.636667 313.78,120.77 C286.913333,93.9033333 254.58,80.47 216.78,80.47 C178.98,80.47 146.646667,93.9033333 119.78,120.77 C92.9133333,147.636667 79.48,179.97 79.48,217.77 C79.48,255.57 92.9133333,287.903333 119.78,314.77 C146.646667,341.636667 178.98,355.07 216.78,355.07 C254.58,355.07 286.913333,341.636667 313.78,314.77 C340.646667,287.903333 354.08,255.57 354.08,217.77 L354.08,217.77 Z M511,472.77 C511,483.396667 507.116667,492.59 499.35,500.35 C491.583333,508.11 482.39,511.993333 471.77,512 C460.736667,512 451.543333,508.116667 444.19,500.35 L339.06,395.53 C302.486667,420.863333 261.723333,433.53 216.77,433.53 C187.961862,433.617941 159.438041,427.833556 132.94,416.53 C106.273333,405.196667 83.2733333,389.863333 63.94,370.53 C44.6066667,351.196667 29.2733333,328.196667 17.94,301.53 C-4.74562568,247.948952 -4.74562568,187.461048 17.94,133.88 C29.2733333,107.213333 44.6066667,84.2133333 63.94,64.88 C83.2733333,45.5466667 106.273333,30.2133333 132.94,18.88 C186.521048,-3.80562568 247.008952,-3.80562568 300.59,18.88 C327.256667,30.2133333 350.256667,45.5466667 369.59,64.88 C388.923333,84.2133333 404.256667,107.213333 415.59,133.88 C426.893556,160.378041 432.677941,188.901862 432.59,217.71 C432.59,262.663333 419.923333,303.426667 394.59,340 L499.66,445.19 C507.084888,452.423936 511.188979,462.405489 511,472.77 L511,472.77 Z" id="Shape"></path>
        </g>
    </g>
</svg>