<?xml version="1.0" encoding="UTF-8" standalone="no"?>
<svg width="512px" height="512px" viewBox="0 0 512 512" version="1.1" xmlns="http://www.w3.org/2000/svg" xmlns:xlink="http://www.w3.org/1999/xlink">
    <!-- Generator: Sketch 39.1 (31720) - http://www.bohemiancoding.com/sketch -->
    <title>settings</title>
    <desc>Created with Sketch.</desc>
    <defs></defs>
    <g id="Page-1" stroke="none" stroke-width="1" fill="none" fill-rule="evenodd">
        <g id="settings" fill="#000000">
            <path d="M341.6,282.4 C341.6,285.6 339.2,290.4 335.2,290.4 L293.6,296.8 C291.2,304 288.8,310.4 284.8,317.6 C292,328.8 300,338.4 308.8,348.8 C309.6,350.4 310.4,352 310.4,354.4 C310.4,356 309.6,358.4 308.8,359.2 C303.2,366.4 273.6,400 265.6,400 C263.2,400 261.6,399.2 260,398.4 L229.6,373.6 C223.2,376.8 216,380 208.8,382.4 C207.2,396 206.4,411.2 202.4,424.8 C201.6,428.8 198.4,431.2 194.4,431.2 L144.8,431.2 C140.8,431.2 137.6,428 136.8,424 L130.4,382.4 C123.2,380 116.8,377.6 110.4,373.6 L79.2,397.6 C77.6,399.2 76,399.2 73.6,399.2 C71.2,399.2 69.6,398.4 68,396.8 C60.8,390.4 29.6,360.8 29.6,352.8 C29.6,351.2 30.4,349.6 31.2,348 C39.2,337.6 47.2,327.2 54.4,316.8 C50.4,309.6 47.2,302.4 44.8,294.4 L4,288 C2.4,288.8 0,285.6 0,281.6 L0,231.2 C0,228 2.4,223.2 6.4,223.2 L48,216.8 C50.4,209.6 52.8,203.2 56.8,196 C49.6,184.8 41.6,175.2 32.8,164.8 C32,163.2 31.2,161.6 31.2,159.2 C31.2,156.8 32,155.2 32.8,153.6 C38.4,146.4 68,113.6 76,113.6 C78.4,113.6 80,114.4 81.6,115.2 L112,140 C118.4,136.8 125.6,133.6 132.8,131.2 C134.4,117.6 135.2,102.4 139.2,89.6 C140,85.6 143.2,83.2 147.2,83.2 L196.8,83.2 C200.8,83.2 204,86.4 204.8,90.4 L211.2,132 C218.4,134.4 224.8,136.8 231.2,140.8 L262.4,116.8 C264,115.2 265.6,115.2 268,115.2 C270.4,115.2 272,116 273.6,117.6 C280.8,124 312,153.6 312,161.6 C312,163.2 311.2,164.8 310.4,166.4 C302.4,176.8 294.4,187.2 287.2,197.6 C290.4,204.8 293.6,212 296,220 L336.8,226.4 C340.8,227.2 343.2,230.4 343.2,234.4 L343.2,282.4 L341.6,282.4 Z M170.4,187.2 C132.8,187.2 102.4,218.4 102.4,256.8 C102.4,295.2 132.8,326.4 170.4,326.4 C208,326.4 238.4,295.2 238.4,256.8 C238.4,218.4 208,187.2 170.4,187.2 L170.4,187.2 Z M512,136 C512,140 477.6,144 472,144.8 C469.6,149.6 467.2,154.4 464,159.2 C466.4,164.8 477.6,192 477.6,196.8 C477.6,197.6 477.6,198.4 476.8,198.4 C473.6,200 444.8,217.6 444,217.6 C440.8,217.6 420.8,190.4 417.6,186.4 C415.2,186.4 412,187.2 409.6,187.2 C407.2,187.2 404,187.2 401.6,186.4 C399.2,190.4 379.2,217.6 375.2,217.6 C373.6,217.6 345.6,200 342.4,198.4 C341.6,197.6 341.6,196.8 341.6,196.8 C341.6,192 352.8,164.8 355.2,159.2 C352,155.2 349.6,150.4 347.2,144.8 C341.6,144 307.2,140.8 307.2,136 L307.2,97.6 C307.2,93.6 341.6,89.6 347.2,88.8 C349.6,84 352,79.2 355.2,74.4 C352.8,68.8 341.6,41.6 341.6,36.8 C341.6,36 341.6,35.2 342.4,35.2 C345.6,33.6 374.4,16 375.2,16 C378.4,16 398.4,43.2 401.6,47.2 C404,47.2 407.2,46.4 409.6,46.4 C412,46.4 415.2,46.4 417.6,47.2 C424.8,36.8 432.8,25.6 442.4,16.8 L444,16.8 C445.6,16.8 473.6,33.6 476.8,36 C477.6,36.8 477.6,37.6 477.6,37.6 C477.6,42.4 466.4,69.6 464,75.2 C467.2,79.2 469.6,84.8 472,89.6 C477.6,90.4 512,93.6 512,98.4 L512,136 L512,136 Z M512,415.2 C512,419.2 477.6,423.2 472,424 C469.6,428.8 467.2,433.6 464,438.4 C466.4,444 477.6,471.2 477.6,476 C477.6,476.8 477.6,477.6 476.8,477.6 C473.6,479.2 444.8,496.8 444,496.8 C440.8,496.8 420.8,469.6 417.6,465.6 C415.2,465.6 412,466.4 409.6,466.4 C407.2,466.4 404,466.4 401.6,465.6 C399.2,469.6 379.2,496.8 375.2,496.8 C373.6,496.8 345.6,479.2 342.4,477.6 C341.6,476.8 341.6,476 341.6,476 C341.6,471.2 352.8,444 355.2,438.4 C352,434.4 349.6,429.6 347.2,424 C341.6,423.2 307.2,420 307.2,415.2 L307.2,376.8 C307.2,372.8 341.6,368.8 347.2,368 C349.6,363.2 352,358.4 355.2,353.6 C352.8,348 341.6,320.8 341.6,316 C341.6,315.2 341.6,314.4 342.4,314.4 C345.6,312.8 374.4,295.2 375.2,295.2 C378.4,295.2 398.4,322.4 401.6,326.4 C404,326.4 407.2,325.6 409.6,325.6 C412,325.6 415.2,325.6 417.6,326.4 C424.8,316 432.8,304.8 442.4,296 L444,295.2 C445.6,295.2 473.6,312 476.8,314.4 C477.6,315.2 477.6,316 477.6,316 C477.6,320.8 466.4,348 464,353.6 C467.2,357.6 469.6,363.2 472,368 C477.6,368.8 512,372 512,376.8 L512,415.2 L512,415.2 Z M409.6,82.4 C391.2,82.4 375.2,98.4 375.2,117.6 C375.2,136.8 390.4,152.8 409.6,152.8 C428.8,152.8 444,136.8 444,117.6 C444,98.4 428,82.4 409.6,82.4 L409.6,82.4 Z M409.6,361.6 C391.2,361.6 375.2,377.6 375.2,396.8 C375.2,416 390.4,432 409.6,432 C428.8,432 444,416 444,396.8 C444,377.6 428,361.6 409.6,361.6 L409.6,361.6 Z" id="Shape"></path>
        </g>
    </g>
</svg>