<?xml version="1.0" encoding="UTF-8" standalone="no"?>
<svg width="512px" height="512px" viewBox="0 0 512 512" version="1.1" xmlns="http://www.w3.org/2000/svg" xmlns:xlink="http://www.w3.org/1999/xlink">
    <!-- Generator: Sketch 39.1 (31720) - http://www.bohemiancoding.com/sketch -->
    <title>speed</title>
    <desc>Created with Sketch.</desc>
    <defs></defs>
    <g id="Page-1" stroke="none" stroke-width="1" fill="none" fill-rule="evenodd">
        <g id="speed" fill="#000000">
            <g id="Group" transform="translate(0.000000, 51.000000)">
                <path d="M334.863617,36.8104575 L322.03573,36.8104575 C321.366449,36.8104575 320.808715,37.3681917 320.808715,38.0374728 L320.808715,51.9808279 L320.808715,57.0004357 C320.808715,64.0278867 326.60915,67.5973856 333.636601,67.5973856 L336.202179,67.5973856 C343.22963,67.5973856 349.030065,64.0278867 349.030065,57.0004357 L349.030065,51.9808279 L349.030065,38.0374728 C349.030065,37.3681917 348.472331,36.8104575 347.80305,36.8104575 L334.863617,36.8104575 L334.863617,36.8104575 Z" id="Shape"></path>
                <path d="M305.415251,31.6793028 L366.87756,31.6793028 C372.566449,31.6793028 377.139869,27.1058824 377.139869,21.4169935 L377.139869,11.1546841 C377.139869,5.57734205 372.566449,0.892374728 366.87756,0.892374728 L305.415251,0.892374728 C299.726362,0.892374728 295.152941,5.46579521 295.152941,11.1546841 L295.152941,21.4169935 C295.264488,27.1058824 299.837908,31.6793028 305.415251,31.6793028 L305.415251,31.6793028 Z" id="Shape"></path>
                <path d="M357.842266,58.7851852 C357.842266,64.5856209 351.484096,75.1825708 334.863617,75.1825708 C318.243137,75.1825708 311.884967,63.6932462 311.884967,58.7851852 C225.213072,70.0514161 158.284967,144.118519 158.284967,233.802179 C158.284967,331.294118 237.371678,410.380828 334.863617,410.380828 C432.355556,410.380828 511.442266,331.294118 511.442266,233.802179 C511.442266,144.118519 444.514161,70.0514161 357.842266,58.7851852 L357.842266,58.7851852 Z M334.863617,374.574292 C257.115468,374.574292 194.091503,311.550327 194.091503,233.802179 C194.091503,156.054031 257.115468,93.0300654 334.863617,93.0300654 C412.611765,93.0300654 475.63573,156.054031 475.63573,233.802179 C475.63573,311.550327 412.611765,374.574292 334.863617,374.574292 L334.863617,374.574292 Z" id="Shape"></path>
                <path d="M339.994771,218.966449 L339.994771,121.251416 L332.298039,121.251416 L332.298039,218.966449 C324.266667,220.751198 318.243137,227.890196 318.243137,236.479303 C318.243137,246.406972 326.27451,254.438344 336.202179,254.438344 C346.129847,254.438344 354.16122,246.406972 354.16122,236.479303 C354.049673,227.890196 348.026144,220.639651 339.994771,218.966449 L339.994771,218.966449 Z" id="Shape"></path>
                <path d="M350.926362,208.927233 C350.926362,208.927233 355.499782,210.265795 358.511547,213.389107 C361.523312,216.400871 363.531155,221.643573 363.531155,221.643573 L394.206536,190.968192 L381.601743,178.251852 L350.926362,208.927233 L350.926362,208.927233 Z" id="Shape"></path>
                <path d="M0.669281046,228.336383 C0.669281046,235.363834 6.46971678,241.16427 13.4971678,241.16427 L123.036166,241.16427 C130.063617,241.16427 135.864052,235.363834 135.864052,228.336383 L135.864052,228.336383 C135.864052,221.308932 130.063617,215.508497 123.036166,215.508497 L13.4971678,215.508497 C6.46971678,215.508497 0.669281046,221.308932 0.669281046,228.336383 L0.669281046,228.336383 L0.669281046,228.336383 Z" id="Shape"></path>
                <path d="M77.5250545,100.28061 C77.5250545,107.308061 83.3254902,113.108497 90.3529412,113.108497 L169.551198,113.108497 C176.578649,113.108497 182.379085,107.308061 182.379085,100.28061 L182.379085,100.28061 C182.379085,93.253159 176.578649,87.4527233 169.551198,87.4527233 L90.3529412,87.4527233 C83.2139434,87.4527233 77.5250545,93.253159 77.5250545,100.28061 L77.5250545,100.28061 L77.5250545,100.28061 Z" id="Shape"></path>
                <path d="M77.5250545,356.169063 C77.5250545,363.196514 83.3254902,368.99695 90.3529412,368.99695 L169.551198,368.99695 C176.578649,368.99695 182.379085,363.196514 182.379085,356.169063 L182.379085,356.169063 C182.379085,349.141612 176.578649,343.341176 169.551198,343.341176 L90.3529412,343.341176 C83.2139434,343.341176 77.5250545,349.141612 77.5250545,356.169063 L77.5250545,356.169063 L77.5250545,356.169063 Z" id="Shape"></path>
                <path d="M28.8906318,293.479739 C28.8906318,300.50719 34.6910675,306.307625 41.7185185,306.307625 L134.860131,306.307625 C141.887582,306.307625 147.688017,300.50719 147.688017,293.479739 L147.688017,293.479739 C147.688017,286.452288 141.887582,280.651852 134.860131,280.651852 L41.7185185,280.651852 C34.5795207,280.651852 28.8906318,286.452288 28.8906318,293.479739 L28.8906318,293.479739 L28.8906318,293.479739 Z" id="Shape"></path>
                <path d="M28.8906318,163.416122 C28.8906318,170.443573 34.6910675,176.244009 41.7185185,176.244009 L134.860131,176.244009 C141.887582,176.244009 147.688017,170.443573 147.688017,163.416122 L147.688017,163.416122 C147.688017,156.388671 141.887582,150.588235 134.860131,150.588235 L41.7185185,150.588235 C34.5795207,150.699782 28.8906318,156.388671 28.8906318,163.416122 L28.8906318,163.416122 L28.8906318,163.416122 Z" id="Shape"></path>
            </g>
        </g>
    </g>
</svg>