<?xml version="1.0" encoding="UTF-8" standalone="no"?>
<svg width="512px" height="512px" viewBox="0 0 512 512" version="1.1" xmlns="http://www.w3.org/2000/svg" xmlns:xlink="http://www.w3.org/1999/xlink">
    <!-- Generator: Sketch 39.1 (31720) - http://www.bohemiancoding.com/sketch -->
    <title>star-outline-half</title>
    <desc>Created with Sketch.</desc>
    <defs></defs>
    <g id="Page-1" stroke="none" stroke-width="1" fill="none" fill-rule="evenodd">
        <g id="star-outline-half" fill="#000000">
            <path d="M364.917783,296.654914 L444.000305,219.720882 L334.457408,203.71764 L314.147145,200.63546 L304.910644,182.172497 L255.977266,83.090941 L255.977266,379.432037 L274.128999,388.969729 L371.985714,440.664017 L353.532791,331.42231 L349.838191,311.112047 L364.917783,296.654914 Z M504.007445,216.026282 L392.306017,324.956759 L418.770601,478.814783 C419.794648,485.581525 419.178881,490.86574 416.923301,494.667431 C414.667721,498.469121 411.180607,500.36662 406.461959,500.359927 C402.974846,500.359927 398.871965,499.128393 394.153317,496.665326 L255.977266,424.048355 L117.821294,496.675366 C113.136112,499.138433 109.033231,500.369966 105.512652,500.369966 C100.82747,500.369966 97.3403562,498.472468 95.0513103,494.67747 C92.7622643,490.882473 92.1464975,485.598257 93.20401,478.824823 L119.658554,324.956759 L7.65593659,216.026282 C1.08998893,209.460334 -1.25260197,203.356212 0.628163869,197.713914 C2.50892971,192.071617 8.04748393,188.534304 17.2438265,187.101977 L171.643993,164.633184 L240.917753,24.6198719 C245.020634,16.206624 250.040471,12 255.977266,12 C261.71996,12 266.739798,16.206624 271.036779,24.6198719 L340.310539,164.633184 L494.791023,187.101977 C504.020831,188.540997 509.559385,192.07831 511.406686,197.713914 C513.253986,203.349519 510.787572,209.453641 504.007445,216.026282 L504.007445,216.026282 Z" id="Shape"></path>
        </g>
    </g>
</svg>