<?xml version="1.0" encoding="UTF-8" standalone="no"?>
<svg width="512px" height="512px" viewBox="0 0 512 512" version="1.1" xmlns="http://www.w3.org/2000/svg" xmlns:xlink="http://www.w3.org/1999/xlink">
    <!-- Generator: Sketch 39.1 (31720) - http://www.bohemiancoding.com/sketch -->
    <title>star-outline</title>
    <desc>Created with Sketch.</desc>
    <defs></defs>
    <g id="Page-1" stroke="none" stroke-width="1" fill="none" fill-rule="evenodd">
        <g id="star-outline" fill="#000000">
            <path d="M349.846588,311.078275 L444.004392,219.721412 L314.157176,200.646902 L256,83.0776471 L197.842824,200.616784 L67.9956078,219.691294 L162.153412,311.048157 L139.695686,440.554039 L256,379.314824 L372.003137,440.554039 L349.846588,311.078275 Z M512,201.229176 C512,205.740131 509.322876,210.662693 503.968627,215.996863 L392.312471,324.922353 L418.775843,478.773333 C419.01547,480.815548 419.119436,482.871403 419.087059,484.927373 C419.087059,495.180758 414.880627,500.307451 406.467765,500.307451 C402.112471,500.174225 397.868408,498.900313 394.159686,496.61302 L256,423.999373 L117.850353,496.61302 C113.339399,499.075974 109.236706,500.307451 105.542275,500.307451 C101.232105,500.307451 98.0028235,498.821647 95.8544314,495.850039 C93.6307944,492.651291 92.4972238,488.82109 92.6218039,484.927373 C92.6986388,482.865347 92.9031613,480.810063 93.2341961,478.773333 L119.687529,324.922353 L7.69003922,215.996863 C2.56334641,210.461908 0,205.539346 0,201.229176 C0,193.672993 5.74243137,188.954562 17.2272941,187.073882 L171.670588,164.616157 L240.941176,24.6192941 C244.836392,16.2064314 249.856,12 256,12 C262.144,12 267.163608,16.2064314 271.058824,24.6192941 L340.329412,164.616157 L494.792784,187.073882 C506.264261,188.954562 512,193.672993 512,201.229176 L512,201.229176 Z" id="Shape"></path>
        </g>
    </g>
</svg>