<?xml version="1.0" encoding="UTF-8" standalone="no"?>
<svg width="512px" height="512px" viewBox="0 0 512 512" version="1.1" xmlns="http://www.w3.org/2000/svg" xmlns:xlink="http://www.w3.org/1999/xlink">
    <!-- Generator: Sketch 39.1 (31720) - http://www.bohemiancoding.com/sketch -->
    <title>sweet</title>
    <desc>Created with Sketch.</desc>
    <defs></defs>
    <g id="Page-1" stroke="none" stroke-width="1" fill="none" fill-rule="evenodd">
        <g id="sweet" fill="#000000">
            <g id="Group" transform="translate(0.000000, 1.000000)">
                <path d="M455.979916,311.805858 L455.979916,311.805858 C454.587448,311.805858 453.302092,311.698745 452.016736,311.591632 L17.5665272,311.591632 C12.4251046,311.591632 8.0334728,307.949791 7.06945607,302.915481 C5.89121339,296.488703 -4.3916318,239.825941 4.28451883,216.261088 C10.6041841,199.0159 19.9230126,188.733054 36.525523,180.806695 C43.1665272,177.593305 49.0577406,175.665272 54.734728,173.844351 C56.7698745,173.201674 58.8050209,172.451883 60.9472803,171.702092 C63.7322176,170.738075 66.5171548,169.238494 69.1949791,167.953138 C73.051046,166.025105 77.0142259,163.989958 81.6200837,162.59749 C87.5112971,160.776569 93.5096234,159.812552 99.7221757,159.812552 C114.717992,159.812552 127.678661,165.168201 140.317992,170.309623 C152.421757,175.23682 163.561506,179.842678 175.022594,178.771548 C181.128033,178.12887 189.482845,175.23682 194.195816,172.666109 C194.088703,172.558996 193.874477,172.558996 193.767364,172.451883 C192.267782,172.237657 188.733054,172.023431 185.841004,171.916318 C164.632636,170.952301 115.039331,168.595816 98.3297071,126.821757 C90.8317992,108.076987 102.721339,84.6192469 105.184937,80.1205021 C135.176569,25.0644351 209.941423,0 266.711297,0 C284.706276,0 301.4159,2.35648536 316.411715,7.06945607 C320.696234,8.35481172 323.695397,12.3179916 323.80251,16.8167364 C324.016736,21.3154812 321.338912,25.3857741 317.161506,27.0995816 C294.882008,35.9899582 285.027615,50.9857741 288.026778,71.5514644 C290.811715,90.1891213 323.695397,103.364017 343.297071,111.183264 L346.938912,112.682845 C363.648536,119.430962 368.897071,124.572385 369.539749,143.638494 C369.968201,156.277824 368.789958,166.989121 361.506276,178.12887 C344.153975,204.692887 315.340586,206.192469 294.346444,207.263598 C282.992469,207.799163 273.780753,212.512134 272.60251,214.868619 C272.816736,214.333054 274.102092,216.368201 277.851046,219.046025 C281.814226,221.938075 289.312134,223.437657 300.023431,223.437657 C305.593305,223.437657 311.056067,223.116318 316.090377,222.794979 C318.875314,222.580753 321.553138,222.47364 324.016736,222.366527 C342.011715,221.616736 357.650209,213.583264 374.145607,205.014226 C388.284519,197.730544 402.851883,190.125523 419.882845,186.697908 C425.666946,185.519665 431.451046,184.9841 437.235146,184.9841 C469.047699,184.9841 496.254393,202.979079 506.430126,230.935565 C511.892887,245.717155 512.642678,262.319665 508.572385,275.387448 C502.788285,293.061088 475.902929,311.805858 455.979916,311.805858 L455.979916,311.805858 Z M26.5640167,290.276151 L452.87364,290.276151 C453.516318,290.276151 454.051883,290.276151 454.694561,290.383264 C455.123013,290.490377 455.551464,290.490377 455.979916,290.490377 C467.119665,290.490377 485.543096,277.101255 488.113808,268.853556 C491.327197,258.677824 489.184937,245.931381 486.292887,238.112134 C479.116318,218.403347 460.264435,206.085356 437.128033,206.085356 C432.843515,206.085356 428.451883,206.513808 424.060251,207.370711 C409.921339,210.262762 397.282008,216.796653 383.892887,223.758996 C366.005021,232.970711 347.58159,242.610879 324.87364,243.467782 C322.624268,243.574895 320.160669,243.682008 317.482845,243.896234 C312.020084,244.217573 306.021757,244.646025 300.023431,244.646025 C284.277824,244.646025 273.245188,241.968201 265.318828,236.1841 C250.108787,225.151464 250.644351,214.118828 252.251046,208.656067 C256.535565,194.302929 276.458577,186.912134 293.168201,186.05523 C315.983264,184.876987 333.014226,182.734728 343.61841,166.453556 C347.902929,159.919665 348.545607,153.6 348.224268,144.281172 C348.010042,138.497071 347.58159,136.783264 347.367364,136.354812 C346.51046,135.283682 340.72636,133.03431 338.905439,132.284519 L335.370711,130.89205 C309.984937,120.716318 271.531381,105.29205 267.032636,74.5506276 C263.92636,53.3422594 270.138912,35.3472803 284.706276,22.1723849 C230.185774,16.2811715 151.564854,39.5246862 124.03682,90.1891213 C119.216736,99.0794979 115.574895,112.14728 118.25272,118.895397 C129.820921,147.923013 166.989121,149.63682 187.019247,150.600837 C194.624268,150.922176 198.801674,151.136402 202.336402,152.850209 C217.439331,159.919665 219.260251,168.917155 218.189121,175.129707 C214.761506,194.945607 177.700418,199.872803 177.271967,199.872803 C160.776569,201.479498 146.316318,195.588285 132.391632,189.911297 C117.074477,183.591632 102.4,178.343096 88.2610879,182.841841 C85.2619247,183.805858 82.2627615,185.305439 79.0493724,186.912134 C75.7288703,188.625941 72.3012552,190.339749 68.3380753,191.732218 C65.98159,192.589121 63.8393305,193.231799 61.6970711,193.98159 C56.1271967,195.80251 51.307113,197.409205 45.9514644,199.979916 C34.4903766,205.442678 28.9205021,211.65523 24.5288703,223.54477 C19.9230126,235.541423 22.9221757,267.782427 26.5640167,290.276151 L26.5640167,290.276151 Z" id="Shape"></path>
                <path d="M388.284519,510.071967 L96.1874477,510.071967 C67.1598326,510.071967 43.4878661,481.579916 42.9523013,446.339749 L9.10460251,303.558159 C7.71213389,297.881172 11.2468619,292.097071 17.0309623,290.811715 C22.8150628,289.419247 28.4920502,292.953975 29.7774059,298.738075 L63.8393305,442.697908 C64.0535565,443.447699 64.1606695,444.304603 64.1606695,445.161506 C64.1606695,468.833473 78.8351464,488.863598 96.1874477,488.863598 L388.177406,488.863598 C405.529707,488.863598 420.204184,468.833473 420.204184,445.161506 C420.204184,444.304603 420.311297,443.554812 420.525523,442.697908 L454.587448,298.738075 C455.872803,293.061088 461.656904,289.419247 467.333891,290.811715 C473.010879,292.204184 476.545607,297.881172 475.260251,303.558159 L441.412552,446.339749 C440.876987,481.687029 417.312134,510.071967 388.284519,510.071967 L388.284519,510.071967 Z" id="Shape"></path>
            </g>
        </g>
    </g>
</svg>