<?xml version="1.0" encoding="UTF-8" standalone="no"?>
<svg width="512px" height="512px" viewBox="0 0 512 512" version="1.1" xmlns="http://www.w3.org/2000/svg" xmlns:xlink="http://www.w3.org/1999/xlink">
    <!-- Generator: Sketch 39.1 (31720) - http://www.bohemiancoding.com/sketch -->
    <title>thumb-down</title>
    <desc>Created with Sketch.</desc>
    <defs></defs>
    <g id="Page-1" stroke="none" stroke-width="1" fill="none" fill-rule="evenodd">
        <g id="thumb-down" fill="#000000">
            <path d="M416.416667,356.875 L361.666667,356.875 C370.791667,375.125 376.875,393.375 376.875,414.666667 C376.875,435.958333 376.875,454.208333 364.708333,472.458333 C349.5,502.875 319.083333,512 288.666667,512 C279.541667,512 267.375,508.958333 261.291667,499.833333 C230.875,469.416667 240,420.75 221.75,402.5 C209.583333,390.333333 200.458333,378.166667 188.291667,362.958333 C179.166667,350.791667 157.875,323.416667 145.708333,314.291667 L60.5416667,314.291667 C39.25,314.291667 21,296.041667 21,274.75 L21,80.0833333 C21,58.7916667 39.25,40.5416667 60.5416667,40.5416667 L148.75,40.5416667 C157.875,40.5416667 182.208333,31.4166667 191.333333,28.375 C233.916667,13.1666667 273.458333,1 319.083333,1 L352.541667,1 C407.291667,1 446.833333,34.4583333 446.833333,92.25 L446.833333,95.2916667 C459,110.5 465.083333,128.75 465.083333,150.041667 L465.083333,162.208333 C474.208333,174.375 477.25,189.583333 477.25,204.791667 C477.25,210.875 477.25,220 474.208333,226.083333 C483.333333,241.291667 489.416667,259.541667 489.416667,274.75 C495.5,320.375 459,356.875 416.416667,356.875 L416.416667,356.875 Z M84.875,83.125 C72.7083333,83.125 66.625,92.25 66.625,101.375 C66.625,110.5 75.75,119.625 84.875,119.625 C94,119.625 103.125,110.5 103.125,101.375 C103.125,92.25 97.0416667,83.125 84.875,83.125 L84.875,83.125 Z M434.666667,238.25 C440.75,232.166667 446.833333,216.958333 446.833333,207.833333 C446.833333,192.625 440.75,180.458333 431.625,171.333333 C434.666667,165.25 437.708333,156.125 437.708333,150.041667 C437.708333,134.833333 431.625,119.625 416.416667,110.5 C416.416667,104.416667 419.458333,98.3333333 419.458333,92.25 C419.458333,55.75 398.166667,40.5416667 361.666667,40.5416667 L322.125,40.5416667 C285.625,40.5416667 252.166667,52.7083333 218.708333,61.8333333 C203.5,67.9166667 173.083333,80.0833333 157.875,80.0833333 L148.75,80.0833333 L148.75,274.75 L157.875,274.75 C182.208333,274.75 218.708333,326.458333 230.875,344.708333 C240,353.833333 246.083333,362.958333 255.208333,372.083333 C285.625,402.5 273.458333,451.166667 294.75,469.416667 C337.333333,469.416667 343.416667,445.083333 343.416667,411.625 C343.416667,375.125 313,350.791667 313,314.291667 L419.458333,314.291667 C440.75,314.291667 459,296.041667 459,274.75 C455.958333,265.625 446.833333,238.25 434.666667,238.25 L434.666667,238.25 Z" id="Shape"></path>
        </g>
    </g>
</svg>