<?xml version="1.0" encoding="UTF-8" standalone="no"?>
<svg width="512px" height="512px" viewBox="0 0 512 512" version="1.1" xmlns="http://www.w3.org/2000/svg" xmlns:xlink="http://www.w3.org/1999/xlink">
    <!-- Generator: Sketch 39.1 (31720) - http://www.bohemiancoding.com/sketch -->
    <title>thumb-up</title>
    <desc>Created with Sketch.</desc>
    <defs></defs>
    <g id="Page-1" stroke="none" stroke-width="1" fill="none" fill-rule="evenodd">
        <g id="thumb-up" fill="#000000">
            <path d="M475.25,289.958333 C478.291667,296.041667 478.291667,305.166667 478.291667,311.25 C478.291667,326.458333 475.25,341.666667 466.125,353.833333 L466.125,366 C466.125,384.25 460.041667,405.541667 447.875,420.75 C447.875,478.541667 408.333333,512 353.583333,512 L341.416667,512 L314.041667,512 C271.458333,512 228.875,499.833333 189.333333,484.625 C180.208333,481.583333 155.875,472.458333 146.75,472.458333 L58.5416667,472.458333 C37.25,472.458333 19,454.208333 19,432.916667 L19,238.25 C19,216.958333 37.25,198.708333 58.5416667,198.708333 L143.708333,198.708333 C155.875,189.583333 177.166667,162.208333 186.291667,150.041667 C195.416667,137.875 207.583333,122.666667 219.75,110.5 C238,92.25 228.875,43.5833333 259.291667,13.1666667 C265.375,7.08333333 277.541667,1 286.666667,1 C317.083333,1 347.5,13.1666667 362.708333,40.5416667 C371.833333,58.7916667 374.875,77.0416667 374.875,98.3333333 C374.875,119.625 368.791667,137.875 359.666667,156.125 L414.416667,156.125 C457,156.125 493.5,192.625 493.5,235.208333 C490.458333,259.541667 487.416667,277.791667 475.25,289.958333 L475.25,289.958333 Z M79.8333333,399.458333 C67.6666667,399.458333 61.5833333,408.583333 61.5833333,417.708333 C61.5833333,426.833333 70.7083333,435.958333 79.8333333,435.958333 C88.9583333,435.958333 98.0833333,426.833333 98.0833333,417.708333 C98.0833333,408.583333 92,399.458333 79.8333333,399.458333 L79.8333333,399.458333 Z M414.416667,201.75 L307.958333,201.75 C307.958333,165.25 338.375,140.916667 338.375,104.416667 C338.375,67.9166667 332.291667,46.625 289.708333,46.625 C271.458333,67.9166667 280.583333,113.541667 250.166667,143.958333 C241.041667,153.083333 234.958333,162.208333 225.833333,171.333333 C210.625,189.583333 177.166667,241.291667 152.833333,241.291667 L143.708333,241.291667 L143.708333,435.958333 L152.833333,435.958333 C171.083333,435.958333 198.458333,448.125 213.666667,454.208333 C247.125,466.375 280.583333,475.5 317.083333,475.5 L353.583333,475.5 C387.041667,475.5 411.375,460.291667 411.375,423.791667 C411.375,417.708333 411.375,411.625 408.333333,405.541667 C420.5,399.458333 429.625,381.208333 429.625,366 C429.625,359.916667 426.583333,350.791667 423.541667,344.708333 C432.666667,335.583333 438.75,323.416667 438.75,308.208333 C438.75,299.083333 435.708333,283.875 426.583333,277.791667 C441.791667,277.791667 450.916667,250.416667 450.916667,238.25 C450.916667,220 432.666667,201.75 414.416667,201.75 L414.416667,201.75 Z" id="Shape"></path>
        </g>
    </g>
</svg>