<?xml version="1.0" encoding="UTF-8" standalone="no"?>
<svg width="512px" height="512px" viewBox="0 0 512 512" version="1.1" xmlns="http://www.w3.org/2000/svg" xmlns:xlink="http://www.w3.org/1999/xlink">
    <!-- Generator: Sketch 39.1 (31720) - http://www.bohemiancoding.com/sketch -->
    <title>times-circle</title>
    <desc>Created with Sketch.</desc>
    <defs></defs>
    <g id="Page-1" stroke="none" stroke-width="1" fill="none" fill-rule="evenodd">
        <g id="times-circle" fill="#000000">
            <path d="M383,331.333333 C383,325.555556 380.888889,320.555556 376.666667,316.333333 L316.333333,256 L376.666667,195.666667 C380.888889,191.444444 383,186.444444 383,180.666667 C383,174.666667 380.888889,169.555556 376.666667,165.333333 L346.666667,135.333333 C342.444444,131.111111 337.333333,129 331.333333,129 C325.555556,129 320.555556,131.111111 316.333333,135.333333 L256,195.666667 L195.666667,135.333333 C191.444444,131.111111 186.444444,129 180.666667,129 C174.666667,129 169.555556,131.111111 165.333333,135.333333 L135.333333,165.333333 C131.111111,169.555556 129,174.666667 129,180.666667 C129,186.444444 131.111111,191.444444 135.333333,195.666667 L195.666667,256 L135.333333,316.333333 C131.111111,320.555556 129,325.555556 129,331.333333 C129,337.333333 131.111111,342.444444 135.333333,346.666667 L165.333333,376.666667 C169.555556,380.888889 174.666667,383 180.666667,383 C186.444444,383 191.444444,380.888889 195.666667,376.666667 L256,316.333333 L316.333333,376.666667 C320.555556,380.888889 325.555556,383 331.333333,383 C337.333333,383 342.444444,380.888889 346.666667,376.666667 L376.666667,346.666667 C380.888889,342.444444 383,337.333333 383,331.333333 L383,331.333333 Z M512,256 C512,302.444444 500.555556,345.277778 477.666667,384.5 C454.777778,423.722222 423.722222,454.777778 384.5,477.666667 C345.277778,500.555556 302.444444,512 256,512 C209.555556,512 166.722222,500.555556 127.5,477.666667 C88.2777778,454.777778 57.2222222,423.722222 34.3333333,384.5 C11.4444444,345.277778 0,302.444444 0,256 C0,209.555556 11.4444444,166.722222 34.3333333,127.5 C57.2222222,88.2777778 88.2777778,57.2222222 127.5,34.3333333 C166.722222,11.4444444 209.555556,0 256,0 C302.444444,0 345.277778,11.4444444 384.5,34.3333333 C423.722222,57.2222222 454.777778,88.2777778 477.666667,127.5 C500.555556,166.722222 512,209.555556 512,256 L512,256 Z" id="Shape"></path>
        </g>
    </g>
</svg>