<?xml version="1.0" encoding="UTF-8" standalone="no"?>
<svg width="512px" height="512px" viewBox="0 0 512 512" version="1.1" xmlns="http://www.w3.org/2000/svg" xmlns:xlink="http://www.w3.org/1999/xlink">
    <!-- Generator: Sketch 39.1 (31720) - http://www.bohemiancoding.com/sketch -->
    <title>twitter</title>
    <desc>Created with Sketch.</desc>
    <defs></defs>
    <g id="Page-1" stroke="none" stroke-width="1" fill="none" fill-rule="evenodd">
        <g id="twitter" fill="#000000">
            <path d="M512,97.3807107 C497.489002,118.605753 479.945854,136.690355 459.370558,151.634518 C459.58714,154.666667 459.695431,159.21489 459.695431,165.279188 C459.695431,193.434856 455.580372,221.536379 447.350254,249.583756 C439.120135,277.631134 426.612521,304.541455 409.827411,330.314721 C393.042301,356.087986 373.062606,378.883249 349.888325,398.700508 C326.714044,418.517766 298.774958,434.328257 266.071066,446.13198 C233.367174,457.935702 198.389171,463.837563 161.137056,463.837563 C102.443316,463.837563 48.7309645,448.135364 0,416.730964 C7.58037225,417.597293 16.0270728,418.030457 25.3401015,418.030457 C74.071066,418.030457 117.49577,403.086294 155.614213,373.19797 C132.873096,372.764805 112.514382,365.780034 94.5380711,352.243655 C76.5617597,338.707276 64.2165821,321.434856 57.5025381,300.426396 C64.6497462,301.509306 71.2554992,302.050761 77.319797,302.050761 C86.6328257,302.050761 95.8375635,300.85956 104.93401,298.477157 C80.676819,293.49577 60.5888325,281.42132 44.6700508,262.253807 C28.751269,243.086294 20.7918782,220.832487 20.7918782,195.492386 L20.7918782,194.192893 C35.5194585,202.423012 51.3299492,206.862944 68.2233503,207.51269 C53.928934,197.98308 42.5583756,185.529611 34.1116751,170.152284 C25.6649746,154.774958 21.4416244,138.098139 21.4416244,120.121827 C21.4416244,101.062606 26.2064298,83.4111675 35.7360406,67.1675127 C61.9424704,99.4382403 93.8341794,125.265651 131.411168,144.649746 C168.988156,164.033841 209.218274,174.808799 252.101523,176.974619 C250.368866,168.744501 249.502538,160.730964 249.502538,152.93401 C249.502538,123.912014 259.736041,99.1675127 280.203046,78.7005076 C300.670051,58.2335025 325.414552,48 354.436548,48 C384.758037,48 410.314721,59.0456853 431.106599,81.1370558 C454.714044,76.5888325 476.913706,68.142132 497.705584,55.7969543 C489.692047,80.7038917 474.314721,99.9796954 451.573604,113.624365 C471.715736,111.458545 491.857868,106.043993 512,97.3807107 L512,97.3807107 Z" id="Shape"></path>
        </g>
    </g>
</svg>