<?xml version="1.0" encoding="UTF-8" standalone="no"?>
<svg width="512px" height="512px" viewBox="0 0 512 512" version="1.1" xmlns="http://www.w3.org/2000/svg" xmlns:xlink="http://www.w3.org/1999/xlink">
    <!-- Generator: Sketch 40 (33762) - http://www.bohemiancoding.com/sketch -->
    <title>unsorted</title>
    <desc>Created with Sketch.</desc>
    <defs></defs>
    <g id="Page-1" stroke="none" stroke-width="1" fill="none" fill-rule="evenodd">
        <g id="unsorted" fill="#000000">
            <path d="M442.363636,325.818182 C442.363636,332.121212 440.060606,337.575758 435.454545,342.181818 L272.545455,505.090909 C267.939394,509.69697 262.484848,512 256.181818,512 C249.878788,512 244.424242,509.69697 239.818182,505.090909 L76.9090909,342.181818 C72.3030303,337.575758 70,332.121212 70,325.818182 C70,319.515152 72.3030303,314.060606 76.9090909,309.454545 C81.5151515,304.848485 86.969697,302.545455 93.2727273,302.545455 L419.090909,302.545455 C425.393939,302.545455 430.848485,304.848485 435.454545,309.454545 C440.060606,314.060606 442.363636,319.515152 442.363636,325.818182 L442.363636,325.818182 Z M442.363636,186.181818 C442.363636,192.484848 440.060606,197.939394 435.454545,202.545455 C430.848485,207.151515 425.393939,209.454545 419.090909,209.454545 L93.2727273,209.454545 C86.969697,209.454545 81.5151515,207.151515 76.9090909,202.545455 C72.3030303,197.939394 70,192.484848 70,186.181818 C70,179.878788 72.3030303,174.424242 76.9090909,169.818182 L239.818182,6.90909091 C244.424242,2.3030303 249.878788,0 256.181818,0 C262.484848,0 267.939394,2.3030303 272.545455,6.90909091 L435.454545,169.818182 C440.060606,174.424242 442.363636,179.878788 442.363636,186.181818 L442.363636,186.181818 Z" id="Shape"></path>
        </g>
    </g>
</svg>