<?xml version="1.0" encoding="UTF-8" standalone="no"?>
<svg width="512px" height="512px" viewBox="0 0 512 512" version="1.1" xmlns="http://www.w3.org/2000/svg" xmlns:xlink="http://www.w3.org/1999/xlink">
    <!-- Generator: Sketch 39.1 (31720) - http://www.bohemiancoding.com/sketch -->
    <title>vegan</title>
    <desc>Created with Sketch.</desc>
    <defs></defs>
    <g id="Page-1" stroke="none" stroke-width="1" fill="none" fill-rule="evenodd">
        <g id="vegan" fill="#1E1E1C">
            <path d="M510.278996,104.982585 C503.493901,92.2013607 434.380612,78 354.695199,78 C294.576105,78 229.249846,86.2052306 181.123012,109.558579 C67.6699191,164.470508 31.5353457,255.359216 73.6660492,341.829724 C75.2439782,344.038825 76.6641142,347.03689 78.2420432,349.403783 C69.2478481,357.609014 51.8906294,371.179203 35.4801681,384.749392 C24.2768724,393.743587 12.9157838,402.737782 3.92158867,410.311841 C-0.654405348,414.098871 -1.28557694,421.515137 2.3436597,426.091131 C4.55276026,429.089196 7.5508253,429.878161 11.3378548,429.878161 C13.5469554,429.878161 16.5450204,429.089196 18.9119139,427.66906 C27.1171445,420.883965 38.4782331,411.88977 49.6815288,402.895575 C65.4608185,390.11435 82.0290727,377.333126 91.8122324,369.127895 C95.5992619,373.703889 98.5973269,377.333126 101.595392,381.120155 C131.576042,414.887835 174.49571,433.034019 223.253716,433.034019 C258.599325,433.034019 297.57417,424.039823 337.495773,404.473504 C449.370937,349.088197 524.480356,132.754135 510.278996,104.982585 L510.278996,104.982585 Z M447.161837,241.631234 C426.806553,282.972973 383.255713,355.873292 326.923649,383.644842 C290.789076,401.00206 255.60126,409.996256 222.464751,409.996256 C179.702876,409.996256 143.568303,395.00593 117.216889,365.656451 C109.011658,355.873292 99.2284985,343.881032 93.2323684,331.888771 C54.8886944,252.992323 91.0232679,177.882904 189.486036,129.75607 C228.618674,110.978715 286.370875,100.406591 353.275063,100.406591 C419.390287,100.406591 471.30415,110.978715 488.503576,117.76381 C488.503576,134.963236 475.722351,184.510206 447.161837,241.631234 L447.161837,241.631234 Z M308.935259,142.537295 C308.935259,139.53923 305.937194,136.541165 302.939129,137.330129 C299.941064,137.330129 297.731963,140.328194 297.731963,143.326259 L300.730028,210.230448 C265.384419,232.005868 229.407639,255.359216 193.273065,280.132701 L187.276935,208.021347 C187.276935,205.023282 184.27887,202.814182 181.280805,202.814182 C178.28274,202.814182 176.073639,205.812247 176.073639,208.810312 L182.06977,287.70676 C161.083314,301.908121 139.939066,317.056239 120.53054,331.2576 C118.321439,332.835529 117.532475,336.464765 118.952611,338.831659 C119.741575,340.409588 121.950676,341.040759 123.528605,341.040759 C125.106534,341.040759 125.737705,341.040759 126.52667,340.251795 C146.092989,326.050434 167.079444,311.691281 188.0659,296.700955 L244.397964,326.681606 C245.186928,327.47057 245.975893,327.47057 246.607064,327.47057 C248.816165,327.47057 250.394094,326.681606 251.81423,324.472505 C253.392159,321.47444 252.603195,318.476375 249.605129,316.898446 L198.480231,289.758068 C234.614804,265.773548 271.380549,241.631234 306.726158,219.855815 L361.638086,243.209163 C362.427051,243.209163 363.216015,243.998128 363.847187,243.998128 C366.056288,243.998128 368.423181,242.420199 369.054353,240.211098 C370.632282,237.213033 369.054353,234.214968 366.056288,232.637039 L318.718418,212.281755 C366.056288,183.721241 409.607127,158.947756 442.743636,142.379502 C445.741701,140.801573 446.530665,137.803508 444.952736,134.805443 C443.374807,131.807378 440.376742,131.018413 437.378677,132.596342 C402.822033,149.953561 358.482228,174.727046 311.144359,203.918732 L308.935259,142.537295 L308.935259,142.537295 Z" id="Shape"></path>
        </g>
    </g>
</svg>