<?xml version="1.0" encoding="UTF-8" standalone="no"?>
<svg width="512px" height="512px" viewBox="0 0 512 512" version="1.1" xmlns="http://www.w3.org/2000/svg" xmlns:xlink="http://www.w3.org/1999/xlink">
    <!-- Generator: Sketch 39.1 (31720) - http://www.bohemiancoding.com/sketch -->
    <title>vegetarian</title>
    <desc>Created with Sketch.</desc>
    <defs></defs>
    <g id="Page-1" stroke="none" stroke-width="1" fill="none" fill-rule="evenodd">
        <g id="vegetarian" fill="#000000">
            <path d="M373.89296,417.944069 C373.89296,377.951784 350.934426,358.572806 320.940212,336.231437 C299.216008,320.308582 296.253616,290.931533 296.253616,286.858245 C296.253616,286.858245 296.253616,286.24108 296.870781,286.24108 C315.138862,246.865959 335.135005,183.91514 325.136933,104.547734 C324.519769,100.968177 322.174542,98.1292189 318.718419,96.8948891 C315.138862,96.2777242 311.682739,97.512054 309.337512,100.474446 C301.067502,112.817743 293.414658,125.778206 286.996143,139.232401 C285.761813,99.8572806 280.577628,55.1745419 265.889103,6.41851495 C264.654773,2.83895853 261.19865,0 257.619094,0 C254.039537,0 250.583414,2.34522662 249.349084,6.41851495 C233.42623,55.1745419 227.624879,99.8572806 227.007715,139.232401 C220.5892,125.654773 212.936355,112.817743 204.666345,100.474446 C202.321119,97.512054 198.741562,95.7839923 195.285439,96.8948891 C191.705882,97.512054 188.866924,100.968177 188.866924,104.547734 C178.251688,183.91514 198.24783,246.742527 216.515911,286.24108 C216.515911,286.24108 216.515911,286.858245 217.133076,286.858245 L217.133076,287.47541 C217.133076,288.092575 220.095468,317.469624 192.44648,336.231437 C166.525554,353.265188 139,375.606557 139,417.944069 C139,433.866924 144.924783,512 256.508197,512 L259.470588,512 L260.704918,512 L262.43298,512 C368.585342,509.037608 373.89296,433.249759 373.89296,417.944069 L373.89296,417.944069 Z M309.214079,132.813886 C311.559306,192.185149 297.487946,240.324012 282.799421,272.663452 C278.726133,270.318226 275.146577,268.590164 271.690453,267.355834 C275.763742,253.284474 282.305689,226.746384 285.268081,187.988428 L286.996143,182.68081 C292.797493,166.387657 300.450338,149.353905 309.214079,132.813886 L309.214079,132.813886 Z M256.384764,43.5718419 C278.726133,140.590164 264.654773,222.302797 256.384764,255.753134 C248.114754,222.179364 234.043394,141.083896 256.384764,43.5718419 L256.384764,43.5718419 Z M203.432015,132.813886 C212.812922,149.230473 220.465767,166.264224 226.39055,183.421408 C227.007715,184.655738 227.624879,187.000964 228.118611,188.111861 C231.081003,226.869817 237.499518,253.901639 241.696239,268.096432 C237.622951,269.330762 233.42623,271.058824 230.587271,272.786885 C215.158149,240.447445 201.086789,192.185149 203.432015,132.813886 L203.432015,132.813886 Z M299.833173,488.547734 C310.942141,473.242044 317.484089,450.900675 317.484089,426.214079 C317.484089,399.799421 309.831244,375.606557 296.377049,359.189971 C293.414658,355.610415 287.613308,355.116683 284.033751,357.955641 C280.454195,360.918033 279.960463,366.719383 282.799421,370.298939 C293.414658,383.259402 299.833173,403.749277 299.833173,426.090646 C299.833173,461.88621 282.182257,492.497589 261.568949,493.731919 L259.840887,493.731919 C238.733848,493.114754 221.082932,462.626808 221.082932,426.090646 C221.082932,405.477338 227.007715,386.098361 236.388621,372.644166 C239.351013,368.570878 238.733848,363.263259 234.660559,360.300868 C230.587271,357.338476 225.279653,357.955641 222.317261,362.02893 C210.591128,377.951784 203.555448,401.40405 203.555448,425.473481 C203.555448,451.888139 211.208293,474.846673 222.934426,490.152363 C162.328833,477.809065 156.527483,432.509161 156.527483,416.70974 C156.527483,386.098361 174.178399,368.447445 202.321119,349.685632 C231.081003,330.306654 234.660559,301.423337 235.277724,289.697203 C241.696239,285.00675 259.347155,275.625844 279.343298,290.314368 C280.577628,301.423337 286.378978,331.417551 311.065574,349.685632 C338.714561,369.681774 356.859209,385.481196 356.859209,416.70974 C356.242044,432.015429 351.551591,473.735776 299.833173,488.547734 L299.833173,488.547734 Z" id="Shape"></path>
        </g>
    </g>
</svg>