<?xml version="1.0" encoding="UTF-8" standalone="no"?>
<svg width="512px" height="512px" viewBox="0 0 512 512" version="1.1" xmlns="http://www.w3.org/2000/svg" xmlns:xlink="http://www.w3.org/1999/xlink">
    <!-- Generator: Sketch 39.1 (31720) - http://www.bohemiancoding.com/sketch -->
    <title>youtube</title>
    <desc>Created with Sketch.</desc>
    <defs></defs>
    <g id="Page-1" stroke="none" stroke-width="1" fill="none" fill-rule="evenodd">
        <g id="youtube" fill="#000000">
            <path d="M313.714286,355.428571 L313.714286,415.714286 C313.714286,428.47619 310,434.857143 302.571429,434.857143 C298.190476,434.857143 293.904762,432.761905 289.714286,428.571429 L289.714286,342.571429 C293.904762,338.380952 298.190476,336.285714 302.571429,336.285714 C310,336.285714 313.714286,342.666667 313.714286,355.428571 L313.714286,355.428571 Z M410.285714,355.714286 L410.285714,368.857143 L384.571429,368.857143 L384.571429,355.714286 C384.571429,342.761905 388.857143,336.285714 397.428571,336.285714 C406,336.285714 410.285714,342.761905 410.285714,355.714286 L410.285714,355.714286 Z M134.285714,293.428571 L164.857143,293.428571 L164.857143,266.571429 L75.7142857,266.571429 L75.7142857,293.428571 L105.714286,293.428571 L105.714286,456 L134.285714,456 L134.285714,293.428571 L134.285714,293.428571 Z M216.571429,456 L242,456 L242,314.857143 L216.571429,314.857143 L216.571429,422.857143 C210.857143,430.857143 205.428571,434.857143 200.285714,434.857143 C196.857143,434.857143 194.857143,432.857143 194.285714,428.857143 C194.095238,428.285714 194,424.952381 194,418.857143 L194,314.857143 L168.571429,314.857143 L168.571429,426.571429 C168.571429,435.904762 169.333333,442.857143 170.857143,447.428571 C173.142857,454.47619 178.666667,458 187.428571,458 C196.571429,458 206.285714,452.190476 216.571429,440.571429 L216.571429,456 L216.571429,456 Z M339.142857,413.714286 L339.142857,357.428571 C339.142857,343.52381 338.285714,334.095238 336.571429,329.142857 C333.333333,318.47619 326.571429,313.142857 316.285714,313.142857 C306.761905,313.142857 297.904762,318.285714 289.714286,328.571429 L289.714286,266.571429 L264.285714,266.571429 L264.285714,456 L289.714286,456 L289.714286,442.285714 C298.285714,452.761905 307.142857,458 316.285714,458 C326.571429,458 333.333333,452.761905 336.571429,442.285714 C338.285714,437.142857 339.142857,427.619048 339.142857,413.714286 L339.142857,413.714286 Z M435.714286,410.857143 L435.714286,407.142857 L409.714286,407.142857 C409.714286,416.857143 409.52381,422.666667 409.142857,424.571429 C407.809524,431.428571 404,434.857143 397.714286,434.857143 C388.952381,434.857143 384.571429,428.285714 384.571429,415.142857 L384.571429,390.285714 L435.714286,390.285714 L435.714286,360.857143 C435.714286,345.809524 433.142857,334.761905 428,327.714286 C420.571429,318 410.47619,313.142857 397.714286,313.142857 C384.761905,313.142857 374.571429,318 367.142857,327.714286 C361.809524,334.761905 359.142857,345.809524 359.142857,360.857143 L359.142857,410.285714 C359.142857,425.333333 361.904762,436.380952 367.428571,443.428571 C374.857143,453.142857 385.142857,458 398.285714,458 C412,458 422.285714,452.952381 429.142857,442.857143 C432.571429,437.714286 434.571429,432.571429 435.142857,427.428571 C435.52381,425.714286 435.714286,420.190476 435.714286,410.857143 L435.714286,410.857143 Z M262,150 L262,90 C262,76.8571429 257.904762,70.2857143 249.714286,70.2857143 C241.52381,70.2857143 237.428571,76.8571429 237.428571,90 L237.428571,150 C237.428571,163.333333 241.52381,170 249.714286,170 C257.904762,170 262,163.333333 262,150 L262,150 Z M467.428571,364.571429 C467.428571,409.142857 464.952381,442.47619 460,464.571429 C457.333333,475.809524 451.809524,485.238095 443.428571,492.857143 C435.047619,500.47619 425.333333,504.857143 414.285714,506 C379.238095,510 326.380952,512 255.714286,512 C185.047619,512 132.190476,510 97.1428571,506 C86.0952381,504.857143 76.3333333,500.47619 67.8571429,492.857143 C59.3809524,485.238095 53.9047619,475.809524 51.4285714,464.571429 C46.4761905,443.238095 44,409.904762 44,364.571429 C44,320 46.4761905,286.666667 51.4285714,264.571429 C54.0952381,253.333333 59.6190476,243.904762 68,236.285714 C76.3809524,228.666667 86.1904762,224.190476 97.4285714,222.857143 C132.285714,219.047619 185.047619,217.142857 255.714286,217.142857 C326.380952,217.142857 379.238095,219.047619 414.285714,222.857143 C425.333333,224.190476 435.095238,228.666667 443.571429,236.285714 C452.047619,243.904762 457.52381,253.333333 460,264.571429 C464.952381,285.904762 467.428571,319.238095 467.428571,364.571429 L467.428571,364.571429 Z M182.285714,0 L211.428571,0 L176.857143,114 L176.857143,191.428571 L148.285714,191.428571 L148.285714,114 C145.619048,99.9047619 139.809524,79.7142857 130.857143,53.4285714 C123.809524,33.8095238 117.619048,16 112.285714,0 L142.571429,0 L162.857143,75.1428571 L182.285714,0 Z M288,95.1428571 L288,145.142857 C288,160.571429 285.333333,171.809524 280,178.857143 C272.952381,188.571429 262.857143,193.428571 249.714286,193.428571 C236.952381,193.428571 226.952381,188.571429 219.714286,178.857143 C214.380952,171.619048 211.714286,160.380952 211.714286,145.142857 L211.714286,95.1428571 C211.714286,79.9047619 214.380952,68.7619048 219.714286,61.7142857 C226.952381,52 236.952381,47.1428571 249.714286,47.1428571 C262.857143,47.1428571 272.952381,52 280,61.7142857 C285.333333,68.7619048 288,79.9047619 288,95.1428571 L288,95.1428571 Z M383.714286,48.8571429 L383.714286,191.428571 L357.714286,191.428571 L357.714286,175.714286 C347.619048,187.52381 337.809524,193.428571 328.285714,193.428571 C319.52381,193.428571 313.904762,189.904762 311.428571,182.857143 C309.904762,178.285714 309.142857,171.142857 309.142857,161.428571 L309.142857,48.8571429 L335.142857,48.8571429 L335.142857,153.714286 C335.142857,160 335.238095,163.333333 335.428571,163.714286 C336,167.904762 338,170 341.428571,170 C346.571429,170 352,165.904762 357.714286,157.714286 L357.714286,48.8571429 L383.714286,48.8571429 L383.714286,48.8571429 Z" id="Shape"></path>
        </g>
    </g>
</svg>