<svg width="14" height="22" viewBox="0 0 14 22" xmlns="http://www.w3.org/2000/svg"><title>icon_phone</title><path d="M9.537 14.702c.435-.05.828.047 1.003.271.266.34 2.435 3.347 2.614 3.609.18.262.113.787-.403 1.129-.515.342-2.77 1.61-3.415 1.34-.646-.272-3.342-1.374-6.533-8.387C-.387 5.654.58 2.955.805 2.304 1.031 1.653 3.504.863 4.108.718c.605-.145 1.047.166 1.128.463.092.337.906 3.908.991 4.314.058.278-.137.628-.465.911-.328.284-1.646 1.344-1.646 1.344s.2 1.154 1.378 3.742C6.673 14.081 7.415 15 7.415 15s1.687-.249 2.122-.297z" fill="#FFF" fill-rule="evenodd"/></svg>