<svg width="155" height="40" viewBox="0 0 155 40" xmlns="http://www.w3.org/2000/svg"><title>kyt_logo</title><g fill="none" fill-rule="evenodd"><path d="M83.682 39.812H3.486C1.57 39.812 0 38.367 0 36.602V3.21C0 1.445 1.57 0 3.486 0H83.68c1.919 0 3.486 1.445 3.486 3.21v33.392c.002 1.765-1.567 3.21-3.484 3.21z" fill="#65AAD3"/><path d="M113.088 11.564h-7.995l-.003 22.2h-2.979l.002-22.2H94.14V9.256h18.945zm16.972 22.204l-13.41-.002V9.301l13.413-.002-.003 2.245h-10.354l-.005 8.628h9.84l.002 2.245h-9.84v9.036h10.355zm24.013-1.021c-2.192.865-4.75 1.295-7.68 1.295-4.109 0-7.078-1.087-8.926-3.26-1.845-2.156-2.784-5.053-2.784-8.705 0-3.67.966-6.748 2.907-9.242 1.949-2.514 5.172-3.758 9.72-3.76 2.138 0 4.283.249 6.419.727l-.296 2.557c-2.285-.611-4.502-.926-6.644-.928-3.248 0-5.508.996-6.837 3.01-1.328 2.018-1.995 4.42-1.995 7.23.002 3.145.711 5.594 2.17 7.313 1.449 1.747 3.808 2.605 7.055 2.61 1.009 0 2.143-.116 3.425-.365 1.252-.247 2.285-.566 3.124-.952l.342 2.47z" fill="#000"/><path d="M36.01 34.033L24.72 21.597v12.436h-3.048V9.521h3.048v11.598L36.06 9.521h3.717L27.991 21.28l12.204 12.753zm21.21-22.224H46.86v8.63h9.84v2.245h-9.84v9.034h10.36v2.315H43.811V9.566h13.407zm14.462 13.206v9.016h-2.974v-8.995l-8.29-15.517h3.296l4.526 8.63c.367.723.714 1.452 1.06 2.177l.982 2.127h.052c.293-.725.664-1.495 1.058-2.308l1.254-2.406 4.382-8.22h3.171l-8.517 15.496z" fill="#FFF"/></g></svg>