<?xml version="1.0" encoding="UTF-8" standalone="no"?>
<svg width="14px" height="22px" viewBox="0 0 14 22" version="1.1" xmlns="http://www.w3.org/2000/svg" xmlns:xlink="http://www.w3.org/1999/xlink">
    <!-- Generator: Sketch 3.8.2 (29753) - http://www.bohemiancoding.com/sketch -->
    <title>icon_phone</title>
    <desc>Created with Sketch.</desc>
    <defs></defs>
    <g id="Symbols" stroke="none" stroke-width="1" fill="none" fill-rule="evenodd">
        <g id="Header" transform="translate(-1130.000000, -31.000000)" fill="#FFFFFF">
            <g id="icon_phone">
                <path d="M1140.74318,44.5208257 C1141.13103,44.3190697 1141.53282,44.2681799 1141.77683,44.4147144 C1142.14633,44.6370426 1145.2491,46.667232 1145.51035,46.8469714 C1145.77161,47.0270718 1145.89746,47.5413863 1145.53824,48.0452342 C1145.18048,48.549082 1143.53002,50.5413743 1142.83065,50.52008 C1142.13018,50.4977028 1139.21785,50.4349024 1133.726,45.031531 C1128.23524,39.6299641 1128.17029,36.7646003 1128.14791,36.0755989 C1128.12553,35.3869588 1130.15099,33.7631683 1130.66322,33.410908 C1131.17619,33.0590084 1131.6998,33.1914669 1131.8818,33.4390598 C1132.08875,33.7209404 1134.12889,36.7631563 1134.35345,37.1118077 C1134.50719,37.3500165 1134.45068,37.7473922 1134.24557,38.1292482 C1134.04156,38.5118261 1133.19101,39.9732014 1133.19101,39.9732014 C1133.19101,39.9732014 1133.79058,40.9790926 1135.81824,42.9731898 C1137.84626,44.9676476 1138.86853,45.5584778 1138.86853,45.5584778 C1138.86853,45.5584778 1140.35424,44.7218595 1140.74318,44.5208257 Z" transform="translate(1136.954097, 41.858247) rotate(21.000000) translate(-1136.954097, -41.858247) "></path>
            </g>
        </g>
    </g>
</svg>